<mxfile host="app.diagrams.net" modified="2024-03-02T15:29:06.191Z" agent="Mozilla/5.0 (X11; Ubuntu; Linux x86_64; rv:122.0) Gecko/20100101 Firefox/122.0" etag="2LUHAcnemsk1Vlc04DqP" version="24.0.0" type="device">
  <diagram name="Page-1" id="mgTsanLNk7XlQv9lW8OB">
    <mxGraphModel dx="1600" dy="418" grid="1" gridSize="10" guides="1" tooltips="1" connect="1" arrows="1" fold="1" page="1" pageScale="1" pageWidth="850" pageHeight="1100" math="0" shadow="0">
      <root>
        <mxCell id="0" />
        <mxCell id="1" parent="0" />
        <mxCell id="9bJqxLlEq6opLeguGgHp-4" value="" style="rounded=1;whiteSpace=wrap;html=1;fillColor=#fff2cc;strokeColor=#d6b656;" vertex="1" parent="1">
          <mxGeometry x="40" y="510" width="760" height="410" as="geometry" />
        </mxCell>
        <mxCell id="9bJqxLlEq6opLeguGgHp-3" value="" style="shape=image;verticalLabelPosition=bottom;labelBackgroundColor=default;verticalAlign=top;aspect=fixed;imageAspect=0;image=data:image/png,iVBORw0KGgoAAAANSUhEUgAAAgAAAAIACAYAAAD0eNT6AAAACXBIWXMAAAsTAAALEwEAmpwYAAAgAElEQVR4nO3dB5xcVdn48bN3NrubZFMhDUMXCIEQkCAIKL5KsVDstBf8g4gvEFoiJZCQhBJDEaWpSJOioigoRSMK0iSQpkJCSbK7MaGHACEJkHr+58zuxMnu7O6dnXPvKfd3P59HzJbvmefePc9zZubeO+LAAz9bo6KbCtGVTf9ey+/XFAUeHh4eHh6ey15QyeDh4eHh4eHFR6wNjoeHh4eHh2fVszo4Hh4eHh4eXvqe1cHx8PDw8PDw0vesDo6Hh4eHh4dnx7M6OB4eHh4eHp4dz+rgeHh4eHh4eHY8q4Pj4eHh4eHh2fGsDo6Hh4eHh4dnxwsqGTw8PDw8PLx4XlDJ4OHh4eHh4XXRCyoZPDw8PDw8PJo/Hh4eHh4enkuD4+Hh4eHh4dH88fDw8PDw8BL2gkoGDw8PDw8PL54XVDJ4eHh4eHh48bygksHDw8PDw8OL5wWVDB4eHh4eHl48L6hk8PDw8PDw8GID4SSDh4eHh4eHFx+xNjgeHh4eHh6eVc/q4Hh4eHh4eHjpe1YHx8PDw8PDw0vfszo4Hh4eHh4enh3P6uB4eHh4eHh4djyrg+Ph4eHh4eHZ8awOjoeHh4eHh2fHszo4Hh4eHh4enh0vqGTw8PDw8PDw4nlBJYOHh4eHh4fXRS+oZPDw8PDw8PBo/nh4eHh4eHguDY6Hh4eHh4dH88fDw8PDw8NL2AsqGTw8PDw8PLx4XlDJ4OHh4eHh4cXzgkoGDw8PDw8PL54XVDJ4eHh4eHh48bygksHDw8PDw8OLDYSTDB4eHh4eHl58xNrgeHh4eHh4eFY9q4Pj4eHh4eHhpe9ZHRwPDw8PDw8vfc/q4Hh4eHh4eHh2PKuD4+Hh4eHh4dnxrA6Oh4eHh4eHZ8ezOjgeHh4eHh6eHc/q4Hh4eHh4eHh2vKCSwcPDw8PDw4vnBZUMHh4eHh4eXhe9oJLBw8PDw8PDo/nj4eHh4eHhuTQ4Hh4eHh4eHs0fDw8PDw8PL2EvqGTw8PDw8PDw4nlBJYOHh4eHh4cXzwsqGTw8PDw8PLx4XlDJ4OHh4eHh4cXzgkoGDw8PDw8PLzYQTjJ4eHh4eHh48RFrg+Ph4eHh4eFZ9awOjoeHh4eHh5e+Z3VwPDw8PDw8vPQ9q4Pj4eHh4eHh2fGsDo6Hh4eHh4dnx7M6OB4eHh4eHp4dz+rgeHh4eHh4eHY8q4Pj4eHh4eHh2fGCSgYPDw8PDw8vnhdUMnh4eHh4eHhd9IJKBg8PDw8PD4/mj4eHh4eHh+fS4Hh4eHh4eHg0fzw8PDw8PLyEvaCSwcPDw8PDw4vnBZUMHh4eHh4eXjwvqGTw8PDw8PDw4nlBJYOHh4eHh4cXzwsqGTw8PDw8PLzYQDjJ4OHh4eHh4cVHrA2Oh4eHh4eHZ9WzOjgeHh4eHh5e+p7VwfHw8PDw8PDS96wOjoeHh4eHh2fHszo4Hh4eHh4enh3P6uB4eHh4eHh4djyrg+Ph4eHh4eHZ8awOjoeHh4eHh2fHCyoZPDw8PDw8vHheUMngbdwGqfiiijNU/FDF71Q8omKWiudUNFRVVbUJ/fWuBh4eXhheFFW9pP47W339cRUPqfipivNVHKlimIpIdLA5UP/wuuoFlUx2vC1UnCSaG/0SFbKjUJO7TXT2O3h4eHgtsVzF31VcqGIPFVWiZQuknmbTCyqZ8L3NRPMz/JkqNgh/igceHl5Y3qsqfqh+dxeP62m2vaCSCdhTk2yk+vavVawWYRQPPDy8QLwoimZUV1cfPWrUHnU+1FM824PjxfJqa2v2Ut+6X5TxbF8kPNnx8PDw2vFeVF8/VhS9PRB387E+e+sFlUyAXv/+/QaqVfV16lvrhLuTHQ8PD6+Up9+i3FvE3Hyrz957QSUTmNetW/W31GR6W/gz2fHw8PBax3oVV6qoER1svtXnILygkgnE22qrob31s35PJzseHh5eqXhexa6ixOZTfQ7KCyqZALzevXttFUVVswOY7Hh4eHitY4WKL4uizaf6HJwXVDKee3V1dZ9QE2lxQJMdDw8Pr3WsFc33LfGqPgfpBZWMx55q/nuoifS2A5MTDw8PLw3vbF/qc7BeUMl46vXo0WOYmkivOjY58fDw8JL0NlRX5052vT5nwbM6eJY9fZmfmggLHZyceHh4eEl7a2tquh3san3Ogmd18Cx7++67d20URX9weHLi4eHhJe29qergx0QXNp/qvYue1cGz7uVyuXM9mJx4eHh4SXv6kwc7/JTB1ptv9d5Fz+rgWfbq63tur/74Vwo/JiceHh5e0t7JIubmW7131bM6eJa9KIr+KPyanHh4eHhJestUDBCdbD7We1c9q4Nn1evWrdtBwr/JiYeHh5e0d63oYPOx3rvsWR08q5761jSR8uSsr6+XO+24oxwxYoTcd9995f777UcQBNEmRo4cKXfZZRc5aNAgG4uJVSo2t1mfs+QFlYwPnpoAI0UKH+k7bKed5Kmnnipv/8Uv5JzZs+WipqZNoqmxUS5csKBN6K+3/tk4gYeHF5734gsvyD/cd5+8aMIE+en995fV1dVpvJIw0VZ9zpoXVDKeeNeLhJp/t27d5JFHHin/9NBDThQPPDy8sLxZM2fK8847T26++eZJNX8dS1RUWarP2faCSsY9T1/m8qpIoPl//nOfk48/9pjTxQMPDy8MT78ycMbpp8uamhrTzb8Qn7JQn7PtBZWMm96+wnDz18/6p1x2mVfFAw8PLwzvoQcflFtttZXp5q/jqgDqvT9eUMm4600QBpt/9+7d5a9++UtviwceHp7/3uxZs+SwYcNMXz0wJ4B674cXVDJue/cKQ81f//umn//c++KBh4fnvzd9+tNy8ODBJi8dXL399tvWe17v3feCSsZ9r0kYes//2GOPDaZ44OHh+e/dduutRu8bUFtbu7fn9d59L6hk3PZqRIzL/+I0fzUx8mfjhlQ88PDw/Pf0PUY6q3Fx6191dfWxHtd7P7ygknHb07e4rLj56zjowAOdmOx4eHh4xXHVlVcaaf46crncaR7Xez+8oJJx29tBGGj+OsaOHevEZMfDw8Mr9v768MNGmn9L/Ts/xfqcTS+oZNz2PiEMNH8dkydPTm+yz3tBLvz3v9tE09y5ctG8eWWH/r3Y3ssvO1XcFv/nP2XHfxYtko0NDSoWFkVD/uuF77tQzBvaeXyV5NuwcKFXzQuvcm/mjBmmmr+Oy1Ksz9n0gkrGbW9PYaD567i4nQWAicne9M9/yaarr5ONJ/yfbDjkK3L+gYe1iQYVjQcdXnY0lLA69Q79pmw89WzZdMvtsumll43n25HX1Nggly5dKj/68EO5YcMGWe6mf2fNmjVtorW1fv16+cGqVfKtt95KrZjrZr1s2TK5YsUKuXr16g4fXyX5fvTRR3KVyk3vR1cWO3jJefrcpM7qVxn1b0qK9TmbXlDJuO21WQB09brZUgsAI81fNdnGL329683adPNvHd86Xi6a9nAqxe21V1/NNy+TzTBOc9VjvrJkSaLF/M0335Tr1q7t0uOrJN81aqHx6iuvONu88Cr3ylkAxKh/sRcADtZ7rzyrg2fE22QBUMlNM1ovAIw0/+tvNNusTTf/Qnzxa7LxoT8nWtxef/31xJthR5tuzsWLAJPFXL/KUOnjqyTf9evWdboICKUZZtGLuwCIWf9iLQAcrffeeFYHz5C3cQFQ6R2zihcARib740/IxkO+4n7zL3jfPE4umDsvkeK2qKkx/5K4reZf2D744APjxXzJ4sVynWrAtpp/YdOvcrjYvPAq9+IsAMqof50uAByu9154VgfPmJdfAJi4XWZhAWBqsjdOvMyf5t8SC27/ZSLFbdnbb1tv/oVNvwpgspjr9/xtN//C9vprrznXvPAq9zpbAJRZ/zpcADhe773wrA6eJU/9oe9p6l7ZegFgcrI3Hv9dr5p/PiZPSaS46WfeaTfD9jz9VoTJYr58+XtONH+96cWIa80Lr3KvowVAF+pfuwsA1+u9L57VwbPk1dTU7G3qgzImT5pkdLI3HH2CX81fvwIwfnIixU2/PJ12M2zPe6PVAqDSfJcvX+5E89fbu++841zzwqvca28B0MUnPyUXAD7Ue188q4Nnyautrd3H1AdlTJo40ehkX3DWeV41fx2NP70pkeKmL4tLuxm25y1evNhoMX976VInmr/e9JUIrjUvvMq9UguACl75bLMA8KXe++JZHTxLXvECQFTQ/PXvt14AVDrZF/zmd141/4Yvfk0umvPPRIqbftk97WZYytPXzpsu5osWLXKi+esTEfU9AVxrXniVe60XABW+7bnJAsCneu+LF1QyLnuFBYCosPm3XgCYmuwLzj7Pj+avounGWxItbnFeBUiy+eurEJa0PPs3Xczfe/fdih9fpfnqZ/8uNi+8yr3iBYCBc542LgB8q/e+eEEl47KnzwEQBpp/8QLA6GSfN082jjnf7eavvtd07U9TKW4dLQKSbP76HAR9nXySxfz95cu7/PgqyVf/vL4joKvNC69yr7AAMHTC85S06jOeC4MH7OmrAISB5l9YACQy2VU0/eZ3sumk02TjwUe40/wPUY/l7PPlokf+nmpx089U9W2Ak2iGrT3d+N/JnxnfmEox1ycYfhjjigcT+eqfXakWVHph43Lzwqvc058FYOpqJxVTfK33XnpBJeOe16UFQKnJpK8CSHyy//s5uegvf5VNv/+DbPrdfSWj8Z578+cPtA799fZ+p6No7S38nfq3egyNL75ktbjp++brcwPefOMN+dprr8lXX311Y+h/64WCvsNeuaF/Txv6/XBbxbyQ21slctCPr5J8C79f+AwA15sXXuXeM9Onm2r+hQWAr/XeLy+oZNz0yl4AtLeSbu/DgHwvHnh4eH57rRcA5da84oiiaKrH9d4fL6hk3PXKWgB09DJauQsAX4oHHh6e317xAqCceleq/uVy0eUe13s/vKCScdvbVRho/jomjB/vxGTHw8PDK3aeePxxI82/eQGQu8Tjeu+HF1QybntDhYHmr+P44493YrLj4eHhFccdt99upPm3LADGeFzv/fCCSsZtr5cw0Px1bLnllrKxocH6ZMfDw8MrjhNOOMFI829ZAJzocb33wwsqGbe9KhXviwqbfyGuv+4665MdDw8PrxCzZ82SvXr1MtL8W+rfwSnW52x6QSXjvvekMND8dQwePFjOmT07mOKBh4fnt3fol79ssvnrGJhyfc6eF1Qy7nvXCgPNvxCf3Gsv+eILLwRRPPDw8Pz1xo4da7r5v2KhPmfPCyoZ971jhaHmX4i9Ro2Sc+bM8bp44OHh+enpc5FGjx5tuvnr+L2F+pxZz+rgGfL6qVgjDDX/QgwZPFjeduut3hUPPDw8f72nnnxS7r/ffkk0fx3HWajPmfSsDp41T23TTDZ/UTSZDjroIPnA/fd7UTzw8PD89GbMmCFPO+002b1796Sa/2oVfW3U56x5VgfPoqcvbUmi+RciiqL8uQGXT50qZzz7rHPFAw8Pzz/v+eeekzffdJP86le+Iuvq6ozVq3bq33226nPWPKuDZ9Hbfvtt69Uf/StJNP/Wnv73dtttJw8//HB51plnyssuvVRef/318oYbbmgT+uvXXXedvPbaazeG/nd7P99Z4OHh+etdcfnl8pxzzpHHHHOM3GOPPfJNP+l6VRT726rPWfOsDp5VL5fLnZ/iZMLDw8PzxXtGdLL5Vu9d9qwOnlVvwIDN+qtvvSb8m5x4eHh4SXoHiQ42H+u9y57VwTPuHS38m5x4eHh4SXm/ER1sntd7J72gkvHQ+5vwZ3Li4eHhJeUtV/Ex0c4WSL13zgsqGQ+9wSpeF+5PTjw8PLwkPX2TtJJbQPXefS+oZPzw/kfFOuH25MTDw8NLyrtGtLM5UJ+z4wWVjF/e2cLdyYmHh4eXlKffBi35XrRD9Tl8L6hk/PQmC/cmJx4eHl5S3nQV9aLE5mB9DtcLKhm/vR8IdyYnHh4eXlKebv4lb/frcH0OzwsqmQA8tZ2kJs/awCY7Hh4eXiH0rX57iBKb6/U5OC+oZALx1Ha4mkRvBzLZ8fDw8HRsUHG5ikiU2Hypz0F5QSUTkNenT++hUVQ1Tfg72fHw8PAK8YaKL4p2Nt/qczBeUMkE5g0YsJleKZ+u4l3h12THw8PD07Fexc0qNhftbL7W5yC8oJIJ1xsomidRh/cLEPYnOx4eHl4h9Af7fFJ0sAVSn/31gkomfG8b0XzTjA+Fe5MdDw8PT8dTKg5TUSU62Byop3hBJZMdbwsVF6hYIOxPdjw8PDx9L/8bRSfP+AubY/U0857VwfG67OkV9v4qLleT8XmPiwceHp5/3psqblfxLdHOZX2lNofraSY9q4PjmfPq6+u37dat+ltRFE1V33pYRYOKNcLN4oGHh+eP97qqK8+ouDGXy52s/r2baOdyvo42n+ppFjyrg+Ol4uVUDFWxp4p99a+p+KqKb5aK6urqo1QcXRRHtfezcQLPqneGMNccfuVBvnhmvINVHKD+Nvasq6vbZauthvb2uP7hdeBZHRwPDy9Rbwdh7pnhOA/yxcPDK8OzOjgeHl6i3sYFgIGXhTcuABzOFw8PrwzP6uB4eHiJevkFgKH3hMd5kC8eHl4ZntXB8fDwkvNUo9/B4Alh41zPFw8PrzwvqGTw8PD+63XvXrezwbPBx7meLx4eXnleUMng4eH91+vRo/twU5eC5XLRha7ni4eHV6EXVDJ4eBn2ihcAosLrwHO53HjX88XDw6vACyoZPLyMe4UFgKj8JjDFCwBn88XDw+uiF1QyePqzAg5VcZaKH6v4g4onVCGfHUVVL6n/NhRCNN8tsEtR7OA56S0WBpp/SyzzIF88M95CFbNUPK3iTyp+ruJCFceo2EU031xsk82x+odH88+Ut6WKk1Xcp+I10Xkxd/V2o3h4eO57K1Q8oeIiFaMGDNgsCqyeZscLKplseQNE8zP8OcKv4oGHhxeW90YURdfW1dXu6XE9zaYXVDLZ8PZQ8VsR80N+PCgeeHh44Xiz1df15w+0eZugsy2Q+uyXF1QyYXujVDykYoNwZ7Lj4eHhlfLmqzhexPzEwADqs59eUMmE6fVXcY2KdcLdyY6Hh4dXKvTJhJ8SHWye12e/vaCSCc/TH825TPgz2fHw8PBax3oVV6uoFa02z+uz/15QyQTi1dR06y6an/X7ONnx8PDwSsVcFSNEy+ZrfQ7KCyqZALwoivQ1/PpEGt8nOx4eHl7rWKniUF/rc6ie1cHxmj01oUaqby8R4Ux2PDw8vNaxNpfLnepbfQ7Vszo43sbmr18ae1vYn5x4eHh4iXtqEXCOL/U5VM/q4Hgbm//HRTt38OssfJnseHh4eK2sDWoRcLLr9Tlkz+rgeJ/tpiZAP/XtRuHe5MTDw8NL2tOXNx8oytx8rfeueVYHz7q3zTZbVYnm+/e7Ojnx8PDwkvbeUvExEXPztd676FkdHE+cI9yfnHh4eHhJe0+KGHcN9LzeO+dZHTzj3lai+ZIYHyYnHh4eXtLe/4kONs/rvZNeUMl45t0v/JqceHh4eEl676gYKEpsAdR7J72gkvHI+5zwb3Li4eHhJe1dL1ptAdR7f7ygknHX+4tIeXL27dtXDhs2TI4cOVLuv99+BEEQJWOvUaPkiBEj5ODBg2UURWkvJlapGGC5PmfTCyoZd73dRQqTaeedd5ajR4+Wd955p/z3v/4lFzU1yabGRrlwwYI2ob+uv19u4OHhhe0tmD9f3n///XLSpEnygAMOkN26dUvjlYTJFutzNr2gknHbu0Ek1Pz15Dzm6KPltGnTnCgeeHh4YXlzZs+W48aNkwMHDkyq+et4ZcCAzaJA6r37XlDJuO3py1xeEwk0/4MOOkg++cQTThcPPDy8MLyXXnxRnnXWWbKmpsZ0889HTU23zwRQ7933gkrGfW8/Ybj56wk4depUr4oHHh5eGN6fHnpIbrP11sZPIMzloh8FUO/d94JKxn1vgjDY/Hv06CF/c/fd3hYPPDw8/70ZM2bI4cOHG716IIqq/hVAvXffCyoZ9717haHmr7938803e1888PDw/PeemT5dDhk82Ejzb4nVW221Zb3n9d59L6hk3PcWCUPv+R933HHBFA88PDz/vTvuuMNU8y/EJ1Kuz9nzgkrGba9GGGr+dXV1cvasWUEVDzw8PP+9/fbbz0jzb/nekSnW52x6QSXjtqdvcVlx89ehz/h3YbLj4eHhFXs/vOoqU81fR4efDWC4PmfTCyoZt70dhIHmr2Ps2LFOTHY8PDy84p/768MPm2r+Os5PsT5n2rM6eEY8/X5Wxc1fx+TJkxOd7I1/f1wuuPYncsEFE+WC0WNVjJELTh8jG08fK5vO+H7ZoX9P/37eKUQMr/Hs82XjRZfKpltul4tmz7FS3F595RX5zjvvyJUrVsgPPvhAfhgjPli1Sr7//nL5/vKiUP/WXy/9s+/LpUuXysX/+U+qxXzRoib55htvyHdVfu09vkryXbVypVyhcnu7g9xcal54lXszZ8ww1fx1XJZifc6sZ3XwDHl7CgPNX8fFRQsAo5P9mRmy4bSz5fwDD2sTDSoaDzq87GgoYXXFazrkK7Jp8g9k07wXUiluixcvzje2crcNGzbINWvWtAn99c629evX55tx0sVcx7vvvlv246skX/3v99SY/1m0yNnmhVe5N2vmTFPNX8eUFOtzJj2rg2fMyy8ATNwxq7AAMDnZm/76iGz48jecbP6beP97klw4e06ixe0V9ax/3bp1iTXDzrZVauGhG2USxVz/V7+SkWbzL94+/PDDdhcBtpsXXuVeZwuAMutfhwsAx+u9F57VwbPkqT/0PU3dLlMvAIxO9rnzZMNXj3a/+RfitLPkwvnzEylu+ntrVRNLoxl2tOlXApIo5itXrrTW/AubfsvDxeaFV7nX0QKgC/Wv3QWA6/XeF8/q4Fnyampq9jZ1u8zJkyYZneyN19zgT/NviQUP/imR4rbs7bdTbYbteatXr5aNDQuNFvPXXn3VevMvbEuWLHGueeFV7rW3AOjik5+SCwAf6r0vntXBs+TV1tbuY+pe2ZMmTjQ62RecdJpXzV9H4+VXJ1Lcyn3fP4nmXzD0CYgmi7l+VcGF5q+3t9VCy7XmhVe5V2oBUMErn20WAL7Ue188q4NnySteAIgKmr/+/dYLgEon+/xvHe9V89dfbxo/ucv5dlTcVn/0UerNsD3vjddfN1rMly9f7kTz15s+CdG15oVXudd6AVDh256bLAB8qve+eEEl47JXWACICpt/6wWAick+/+TRXjV//f2mK3+cSHFbFfMVgKSbvw79kr3JYv7uu+840fz1tvStt5xrXniVe8ULAAPnPG1cAPhW733xgkrGZU+fAyAMNP/iBYCpyb7gup961fzzC4C/PpJIcdPXrKfdDEt5+hyAzi6ZKzdffc2/qcdXSb76csdSj9F288Kr3CssAAyd8DwlrfqM58LgAXv6KgBhoPkXFgBGJ/vcubLhm8d50/wbz7kwseKmm+4a1XzTaobtecuWLUukmH9UxlscSeWr3/93sXnhVe7pGwGZutpJxRRf672XXlDJuOd1aQFQajLpqwCMT/Yn/yGbvnq0882/6aTT5KJ5LyRa3F5ZskSuXbs2lWZYyit1mZypfJcsXpwfo5LHV0m+y5e/52zzwqvc0x8LbOpqJ9G8APC13vvlBZWMm17ZC4D2VtIXT07mBLhFc/4pm86/SDYefIR7zf/Qb8qmq66Ri+bPT6W46VvXrlixQnetxJpha0vfJEffEjjpYq5z04uMjh676XzXqQXVW2++6XTzwqvca70AKLfmFUcURVM9rvf+eEEl465X1gKgo5fRyl0AlD3ZZ8yUTbfdIZumXCkbx03MLwqKo/G8CXLBuePbhP5665+NE+16F06WTZdfLZvu/l3+ZkU2ipt+xqyb8jvLluXPXH+vJZa/927+8wH0/e7LDf17+ve1oz9nQPv6kr+uFN5K8tW56XMe9L37V7bz+CrJt9l5L3/uQcPChc43L7zKveIFQDn1rlT9y+Wiyz2u9354QSXjthd7AdDZe2jlLAB8Kh54eHh+e4UFQNxa11H9K1oA+Fjv/fCCSsZtL9YCIM4JNHEXAL4VDzw8PL89vQCIU+fi1L+WBYCv9d4PL6hk3PY6XQDEPXs2zgLAx+KBh4fntxf344Dj1L+WcwDSqs/Z9IJKxm1vV2Gg+euYMH68E5MdDw8Pr9j7x1NPGWn+LfVvYor1OZteUMm47Q0VBpq/juOOO86JyY6Hh4dX7N11112mmr+OM1Osz9n0gkrGba+XMND8dQwdOlQ2NjRYn+x4eHh4xd6JJ5xgqvnrOD7F+pxNL6hk3PaqVCwXFTb/Qlx7zTXWJzseHh5e4Wdmz5ol6+vrTTV/HQenWJ8z7VkdPEPeE8JA89cxaNCg/IQLpXjg4eH57X3pi1802fx1DEy5PmfSszp4xrxrhIHmX4hRo0bJeXPnBlE88PDw/PXOOuss081/iYX6nDnP6uBZ89R2rMEPysjHnnvuKWc8+6zXxQMPD89PT5+LdMopp5hu/jp+l3Z9zqJndfCsef379xug/uBXm2r+BWPw4MHylptv9q544OHh+es9+cQTct99902i+ev437TrcxY9q4Nn0YuiaJrJ5l8cB37+c/LBBx7wonjg4eH56elzj/Sz/rq6uqSa/0cq+tioz1nzrA6eRa+6uvrEJJp/8ff1uQFTpkzJ35bTteKBh4fnn6fPNbrpppvkEUccIWtra43WqxJxr636nDXP6uBZ9LbdduueovkEl0Saf+vYZuut5aGHHipPHz1aXnrJJfKaH/9Y3nDDDfm4/vrr5XXXXSevvfbajaH/rb9e+JlyAg8PLwzv0ksvlWPHjJFHHXmkHLnbbrJbt26p1KuW2M9Wfc6aF1QyHnljRXqTCQ8PD88X70lRYvO83jvrBZWMR5DyDEYAACAASURBVF69ileEf5MTDw8PL0nv86LVFkC998cLKhm3vSOFf5MTDw8PLynv16LVFlC9d98LKhk/vIeFP5MTDw8PLynvPRVbiKLNgfqcHS+oZPzxBqt4Tbg/OfHw8PCS9L4hijZH6nM2vKCS8c/7HxXrhNuTEw8PDy8p72pRtDlWn8P2gkrGX+8M4e7kxMPDw0vK02+Dbjwb3dH6HK4XVDJ+exOFe5MTDw8PLynvadF8RVR+c7w+h+kFlYznXhRFUxyanHh4eHhJef8QRbf79aE+B+kFlUwAXnV19XfVRFoT2GTHw8PDK4S+1W930bL5VJ+D84JKJhCvW7fqQ9W3loowJjseHh6ejvUqpqiIRMvmY30OygsqmbC8gSr+JPyd7Hh4eHiFeEPFF0TR5nl9DsMLKpnwPL1SPlXFMuHXZMfDw8PToZ/136iivyjaAqnPwXhWB8fr1NtcNE+itcLtyY6Hh4dXCH2i3yjRanOgnuJ1dXM9mcC9rVVco+ID4d5kx8PDw9PxlIrDRInNsXqaec/q4Hhd9oaoOE/FSw5Mdjw8PLx3VfxExZ6inc3heppZz+rgeJV7NTU1n87losujqOrfHhcPPDw8/7zXVdwimu/jv/GyvlKbL/U0a57VwfHMelEU6VcGjlBxiYo/q5iv4iPhZvHAw8Pzw9ug4lX19SdVXK/i/6nYVUWViLH5Wk+z4FkdHC8VT09S/TGbI1XspYnW0a1bty+0jlI/FzfwnPG+Lcw1h1s8yBfPkFdTU/OZ2trafXr27LHDtttu3dPj+ofXgWd1cDw8vOQ81eh3MPjMcJzr+eLh4ZXnBZUMHh7ef73u3et2Nviy8DjX88XDwyvPCyoZPDy8/3o9enQfbuo94VwuutD1fPHw8Cr0gkoGDy/DXvECQFR4Qlgulxvver54eHgVeEElg4eXca+wABAGzgYvWgA4my8eHl4XvaCSwcPDq9HnAAhDl4K1LACczhcPD68LXlDJ4OHh5T19FYAwcx144RwAp/PFw8Oj+ePh4TV7XVoAtHPp4DgP8sXDwyvHCyoZPDy8Yq/sBUAH9w0oewEQwP7DwwvbCyoZPDy84h8rawHQyU2DyloABLL/8PDC9oJKBm8Tr3//foPq6mo/2a1b9Tdyudwp6luni+ZPESw7crnoAmUURXRBVy281LwrhZnmr2OaB/nimfPGqDhZxbEq9lcxVEWkwpv6hxfDCyqZbHu9VHxFxQ+iqOpvqoC/48kHjeDh4fnhrVYxM4qiG6urq7+rPyfAofqH1xUvqGSy5w1ScZaKv4nmyely8cDDwwvPm6e+foWKPUSZm4P1NHteUMlkw9Of7vclFX9UsUb4XTzw8PDC8f4pmt9mrBedbA7VUzzbg+PF8vT7b4epmCncmOx4eHh4pWK5iqkq+osSmyP1FM+FwfFieXupeFa4Odnx8PDwSsW7Ks5UUS1aNkfqKZ4Lg+N16m2m4k4VG4T7kx0PDw+vVPxLxV4O1FO8Vp7VwfE69PQ3lgj/JjseHh5e61gbRdHFu+22S/dA6nMQntXB8Up6+iS/8SrWCX8nOx4eHl4bTy0C/ta/f7+BHtfnoDyrg+O12fQB+YUIZLLj4eHhlfDmqdhGdGELrN5b96wOjrfJViua77Zme3Li4eHhJe29rkJ/XHXsLbB674QXVDIeezkVvxXuTE48PDy8pL1XVGwrYmyB1XtnvKCS8dj7hXBvcuLh4eEl7S1UMUB0sDlQn7PjBZWMH56+c5arkxMPDw8vae8R0fwqaJvNgfqcHS+oZPzw9hYt9/BvLxyYnHh4eHhJe5NEq82B+pwdL6hk/PD0CRgvCD8mJx4eHl6S3noVnxQtmwP1OTteUMn4440T/kxOPDw8vKS9GSoiR+pzNrygkvHH+5iKlcKvyYmHh4eXtHeiA/U5O15QyfjjXS38nJx4eHh4SXoN3C44RS+oZPzw+ql4X6QwmbbYYgv5lSOOkBdecIG88cYb5X333Scf+/vf5ROPP152PP7YY/Lvjz4qH33kkY2h/62/joeHF5Y37c9/lr+86y45depU+e3jj5cjRoxoU4+SWkxUV1cfHVC9d9sLKhk/vLEiwebfv18/edJJJ8kHH3hALlywYJNoamyUi5qayg79e60tPDy8bHkzZ8yQEydOlMN22inRVxKiKPpHQPXebS+oZPzwnhUJNP+ePXrIc885R86dO9fJ4oGHhxeGt2D+fPmzn/1Mbrfddkm9jbAhiqqGWqrP2fKCSsZ9b0sVG4Th5r/PPvvI6dOne1E88PDwwvBefOEFecopp+hn7Cabf+F7Z1ioz9nzgkrGfe8UYbj5H3vssRsntU/FAw8PLwzvxp/9TNbW1pps/joetlCfM+tZHTxD3s3CYPM/+qij8hPQ5+KBh4fnv3fTTTeV9UpAjPq3TEVVyvU5k57VwTPmzRGGmv+uu+6afy8uhOKBh4fnv3f66NGmmn8htkm5PmfOszp4xrxIxWpTZ8/ec889QRUPPDw8v735L78shwwZYqr56zgsxfqcSc/q4FnycrlcX1PNXz/7tz3Z8fDw8FrH2LFjTTV/HSemVZ+z6lkdPEtejx7dP27qutmTv/tdJyY7Hh4eXnHcd++9ppq/jjFp1eeselYHz5JXV1c7ytRNMyZMmODEZMfDw8MrjmemTzfV/HVcnFZ9zqpndfAsebW1tfuYumnGpIkTE53sjU/9Qzb97GbZOPEy2XT+RbGj8bwJcsG549uE/no5zibepClywW13yIUzZ1kpbq8sWSKXLVsmV6xYIVetXLlJrFRfW/7eu/K9d/8b+t8rS/xse7FSxfvLl8u33norP16axTyf29tvyxXvvx/vsXYhX53bUpXb4v/8x/nmhVe5N2vmTFPNX8eUtOpzVr2gknHZKywARIXNv/UCwOhkn/6MbDjzHNl40OFlR8OBh8n5JUJ/3Yh3yFfkgksul40vvpRKcVuyeHG+gbW3bdiwQa5Zs6ZN6K93ZdO/99FHH8k333gj8WKum7Fu2rKMx1ppvuvXr5fvqgWDy80Lr3KveAFg4JynjQsA3+q9L15QybjsqW1vYaD5Fy8AjE72vz0qGw7/lpvNv8hr+n/fk03Pz020uL36yity3bp1iTXDzjz9zDqpYq6f9a9du7aix1dJvh988EH+MbrYvPAq9woLAEMnPE9Jqz7juTB4wJ6aAHsKA82/sAAwOtmfe142fON/nW/+hZ9pOv37clHM/Mstbv9ZtCjf3NJohh1577zzTiLFfPXq1UYeXyX56rdUXGxeeJV7+gODDH5Q0BRf672XXlDJuOd1aQFQajJNnjTJ6GRvvPan3jT/Qiya9tdEipt+TzzNZtiep6PU++aV5KvPMzD1+CrNt6mxwbnmhVe5p08CNHW1k2heAPha7/3ygkrGTa/sBUB7K+mLJ082Otkbvzvaq+affxXgyh8nUtw+WLUq9WbYnvfWm28aLeb6REaTj6+SfF9/7TXnmhde5V7rBUC5Na84oiia6nG998cLKhl3vbIWAB29jFbuAqCzyd545Le9av75BcD49vdBJcVt9Ucfpd4M2/P0qxEmi7l+/93k46sk36VLlzrXvPAq94oXAOXUu1L1L5eLLve43vvhBZWM217sBUBn76GVswCIM9kbTz7dq+bf0SsAlRa31q8A2Gr+eovzCkA5+cZ5BSCtfJe2XPboUvPCq9wrLADi1rqO6l/RAsDHeu+HF1QybnuxFgBxTqCJuwCIO9mbbrjRq+afPwfg4b8lUtzeLjoHwGbzj3MOQLn56gWFqcdXUb7r1+cvs3SteeFV7pW6EVA5UVz3WhYAvtZ7P7ygknHb63QBEPfs2TgLgLIm+wsvysZvHudN828aOy6x4la4CsBm89fbu51cBdDVfD8q8RZHVx5fJfkuX77cyeaFV7mnrwLorM7FrX8t5wCkVZ+z6QWVjNtehwuAci6d6WwB0KXJ/vgTsvGIo5xv/o0nniIXzZ2XaHFbsmSJ/PDDD601f313wKSKuX7mvXbNmooeXyX56rdY9CLLxeaFV7nX+k6AcaOd+jclxfqcTS+oZNz22l0AlHvdbEcLgIom+6zZsmnMONl48BHuNf8vfV02Tf2hXPTyy6kUN32Zmr5zXZrNX998SF8jn3Qx128t6PMBNrRcbphG89e5deXeBj43wyx6XVkAdFD/yl4AOFTv/fCCSsZtr+QCoCs3zWhvAWBssk9/RjbddJts1PfhN31v/3K8cRNl05QrZdNdd8tFzz1vpbjpr7+9dKl8P+b98su9d75+tq9fEtfvz3f2zNh0vosXL5ZvvPFGftHR1c8y6ChfvYDS9psqt3LvaRBCM8yiV+4CoJP6V9YCwLF674cXVDJue20WAF29Y1apBUAIxQMPD89vr5wFQIz6F3sB4GC998qzOnhGvE0WAJXcLrP1AiCU4oGHh+e3F3cBELP+xVoAOFrvvfGsDp4hb3dhoPnrmFR0K+CQigceHp7f3rPPPGOq+eu4NMX6nEnP6uAZ87YTBpq/jtNHj3ZisuPh4eEVx4MPPGCq+es4J8X6nEnP6uBZ8nK5XH9Tn5K19957OzHZ8fDw8IrjoosuMtX8dXw3rfqcVc/q4Fnyhg3bobv6g19r4oMyoiiSf5k2zfpkx8PDwytEY0OD3GnHHU01fx1fS6s+Z9WzOnjWvCiqmmfqgzI+/elPywXz5wdTPPDw8Pz2Lrn4YpPNX8ewNOtzFj2rg2fNU8/cf2nqgzJ0jDn77GCKBx4enr/e/fffL+vq6kw2/xUqojTrcxa9oJJx3cvlcvqkFiPNv+Ve2XL8hRd6Xzzw8PD89XTz79+vn8nmr+OptOtzFr2gknHdUxNguDDU/Isn01FHHilfmDfPy+KBh4fnr3flFVfIHj16mG7+Oi5Muz7j2R48G94LwmDzL8TQoUPlT3/yk04nrUvFAw8Pz0/vrw8/LD/zmc+Yfs+/zfv/AdR7f7ygknHXu1gYbv7FMWzYMDllyhQ593k7987Hw8ML02tYuFDecfvt8pBDDsm//WiiXrUTz1msz9n0gkrGbW+oitUigeZfHDU1NXL//faTY8eOlb+47Tb56COP5N8mCKUY4eHhJefpS/qemT5d3nPPPXLy5MnyiCOOKPk+v6l61Sq+F1C9d98LKhk/vNtEgs2/M69v37756NOnT5ejYBQHHh6e/151dXVF9aXCevWGevJSF1i9d9cLKhl/vJ1VrBUWmj8eHh6ew955DtTn7HhBJeOX92Ph3+TEw8PDS8pbMHToFr0cqc/Z8IJKxi+vl4pXhT+TEw8PDy8xr7q6+nCH6nM2vKCS8c87TMUG4cHkxMPDw0vKi6LoVgfrc/heUMl46KltquuTEw8PDy9B77ktthjS18X6HLwXVDIeevpTAtXq91GHJyceHh5eUt6yHj267+xqfQ7eCyoZT72BAwdsphYBMx2cnHh4eHhJeStramoOcL0+Z8GzOjjeZ2v69OkzWDTfAcuVyYmHh4eXlLeqpkaVQE/qc8ie1cHxNvH6qfi7sD858fDw8JLy3qytrdnfw/ocnGd1cLySXo2KO0Q4kx0PDw+v4L3Uo0ePYR7X56A8q4Pjdegdr2KF8Huy4+Hh4eUjiqK7Bg0a2D+Q+hyEZ3VwvE69nVRMFx5Odjw8PLyWeKO6uvpoB+opXivP6uB4sbYq0fxqwBvCj8mOh4eHp0N/3smN+gRnh+opXpFndXC8srY+KsarybjU0cmOh4eHp0M3/jvV7+7scD3F62gB4GMyWfCGDBnUL5fLjY2iqhcdmex4eHh4OpapuFbFdr7U06x7QSWTNa+qSnxKffunKl4R/hcPPDw8/7xVKu5XcZSKOhXe1lM824PjVeLtruI8FfeqWCz8KB54eHh+ectF871KrlBxiGhp+oUtoHqaPS+oZPAGqNhPxTEqxqm4XMWNURTdoeJ3RXGP+vpvuxr69/Gc9f5sqjlEUdXzHuSLZ8b7pYobVVytYrKK76g4UMX2KiLRzuZY/cOj+ePhZdfr3r1uZ2HomWEulxvver54eHhd8IJKBg8PL++pxr2DMPSycC4XXeh6vnh4eDR/PDy8Zq9LC4B23hMe50G+eHh45XhBJYOHh1fslb0A6OCEsLIXAAHsPzy8sL2gksHDwyv+sbIWAJ2cDV7WAiCQ/YeHF7YXVDJ4eHjFW+wFQIxLwWIvAALaf3h4YXtBJYOHh1e8xVoAxLwOPNYCILD9h4cXthdUMnh4eMVbpwuAMm4C0+kCwIF88fDwyvGCSgYPD69463ABUOYd4DpcADiSLx4eXtKb68ng4eHlt3YXAF24nWy7CwCH8sXDw0tycz0ZPDy8jVvJBUAX7yVfcgHgWL54eHhJba4ng4eHt8nWZgFQwQfJtFkAOJgvHh5eGZ7VwfHw8BL1NlkAVPgpcpssABzNFw8PrwzP6uB4eHiJehsXAAY+QnbjAsDhfPHw8MrwrA6Oh4eXqJdfABj6/PhxHuSLh4dXhmd1cDw8vOQ8/WmAhpp/fgHger54eHjleUElg4eH91+ve/e6nQ01/8ICwOl88fDwyvOCSgYPD++/Xo8e3Ycbav4yl4sudD1fPDy8Cr2gksEr6e266/C6/v37Dayv77m9iu369es7cMCAzSJXHh+eGa94ASAqaP7693O53HjX88Ure4vUce3Xs2cPXQe21zVh1Kg96hx6fHg0f7wKvM1UfE3FpSruUfFvVcw/7OBl4VUq/qXityouUXGEin4e5YtX5BUWAKLC5t9qAeBsvnjtbnoOf0U0z2k9t/Uc/0C0f4Ko/t6/RXPN0LXjqyr6e5QvXrleUMlk2xup4goV/1SxXlR+Hfg6FbNUTFGxi4P54rXyevbs+XHVsC9Sx/dp9a21osLm3xILoyj6SVWV2F99r8qlfPFKbruqmKpitmhVB0TX6oE25qi4XMVuDuaL11UvqGSy6fVRMUY0r9rjFPNKXhbWBeWMgQM37xfQ/vPe23bbrXtWV1d/RzXpx9Wx3WDqmX87fy8NKiapGGwrX7ySXi8VZ4rmRl3J8Y0T+lWEs1X0Dmj/Zc8LKpnseZuL5kL8jkh2spfyludy0RX9+/cb5PH+896rVZt6tn+KOh6LDR/fOH8vq1XcoeLjaeWLV9LrreI8FcuE2eMbJ95Xi87revfutaXH+y+7XlDJZMfTl2+cq2KlSHeyl/KWq6+fpaI6wXzxSm/HqP3/WsLHN87vrVFxpYr6JPPFa+PpOaefhes5mOTxjeOtUAvR8z/+8e16eLT/8IJKJhveASrmCbuTvZSnXxLcN4F88dpuw1Q8mvLxjRNLVHw9gXzx2nr7iQ7e8isVKf29zFXxmQTyxUvCCyqZsD292p8k2jmhp3VYag4bRPOJRzkH918o3vEqVjrY/IvjjkGDBvZ1dP/57ukTMPXL/frkXNeaf3EduEY0v1Lp2v7Da/XL4SQTrjdUxVPCzcleKv4m2jlBLJDjYcPTL6//UrhxfDv1oqjqxbq6ut0d2n8heENUPCocOL4xvcdVfMyh/YdXAggnmTC94SoWC/cne+tYpGInB/ZfCJ6+Bnu6cOv4xvFWdOtW/SUH9l8I3vYqFgq3jm8c7zVR4rJBC/sPrz3E2uB4nXn6fb4Oz/AXbk321vGWilEW918I3jYqXhZuHt843kei5bwAS/svBG8v0TyXXDy+cUJfnfApi/sPz+TmejKBePqGK/rOfL5N9tbxvvrdUQEcDxve1qL5xDqXj28cT79ffaSF/ReC90kV7wu3j2+c0Fcs7Wth/+GZ3FxPJhBP33Ev1jW9ws3J3tpb2r173QiPj4cNT9/j4UXhx/GN4+lLBQ9Jcf+F4On7K7wh/Di+ceI99bsjPT4ewXlWB8cr6W2p4hXh/2Rv7TX16dN7qIfHw4bXXcWzwq/jG8fTz2T3SGH/heDpk2gXCb+ObxxvSa9e9dt4eDyC9KwOjtfG05f6+XS2f1leFFU9phYBHV4iWOH+C8W7SXh4fGN6+kS2PgnvP989/cmcfxV+Ht9OvSiKntlxx4/39Oh4BOtZHRyvjac/aCOoyV7Cm5Dg/gvB0++V+3x848Q9Ce6/ELxJwu/j26mnFgE/8Oh4BOtZHRxvk+3zovkGGtYnZ8KePiFsnwT2Xwje1ipWeH5848aJCey/EDx95U+sm30Js8cjbU/neEAC+w+vDM/q4HgbN30g8id8dRaeTvbW8ZyI8dkBAR3fuNsfAjm+cWKZeha4ucvHw4Kn54S+pXYIxzeOp29pHu9l6Hj7r6wNr4MFgI/JeOyNF+5NzqS9Mwzuv0431z21fSGw49tpqAXAza4eD0veWBHQ8Y3pnWtw/8Xe8Jq9oJLx1BskYlzvb2pybrP11vKQQw6RJ510kjx99Oh8fOc735EHHXSQ3HLLLdMsHu+p6Gdg/3W6ue7pEyPV/pqfVvEdNGiQ/OxnPytPPPFEOVod/7PPPlt+7+ST5aFf/rLcaccddWNOqzmsr6ur3cu142HJ03d7TO1T/bbaait58MEHb6wDZ5zeXAf017ZWNSLFxcQKFQMM7L/YG14HXlDJ+OF1euJfpZN91113lZMnT5bPTJ8umxob5cIFC9qE/vqipib59D/+IS+aMEEOGzYsyeZfiDYnBDpwPFL3qqtzxyXd/PXibsyYMfLRRx7JH+eOYs6cOfKHV10l99lnnySbfz7UYuN3rh0PS94kkfB823nnneXEiRPl9Kef3nis26sHT6ufmTRpktxll12SbP6FuMzA/ou14dH8XfL0M+AO7/JVSfHVk/fOO+/sdLIXmn9x6K/dduutckf1jDCpx6fibVH0GfIOHI/UvX33/WRNFFXNTar5DxkyRF599dX549xZ4y/1N3DvvffKT33qU0kuTtarGNbV/ef68Y3p9RIxb/zVlfmmX9X5xW23tZnncevBHbffHvsJQRfrgX41sK9DxyN7XlDJ+OOdLxJortW5nDzv3HNlw8KFXWr+xaF/5qwzz5Q5ZZp6fK3iDIeOR+qe2g5LqrkedeSRcu7cuWU3/lJ/L5dPnSp79uxpuvkXvndTV/ef68c3pnemSKC56jl71llnlVz8lVsP9Pe+P3ZsvraYenytYpNzAQI7vm57QSXjl9fumf9dnUy9e/eWv7n77oome6nQzwJ69uhhuvnrmO3Q8Ujdi6LoHtPNv1t1tZz6gx+UdXzj/L38Zdq0/CsKlT6+Evnq9767u3A8LHlzhOHmrxdrxa/+maoHv/rlL2WvXr1MN38d8xw6HtnxgkrGL09/yIfx5v+nhx4y3vwL8Yf77ssvAky/J1xXVzvSgeORurfZZv0HqH33ocnmX62a/09uuMF48y94+v3jj33sYyabfyGOsn08LHkjRALN/49/+IPx5l+IBx94YJNFgMF6sKcDxyNbXlDJ+OVdIww2f134f/ub3yTW/Averbfckn9p0eTL1rlcNNWB45G6p47Zd02/7H/JxRcn1vwL8cjf/lbyWWCcx9dBvvfbPh6WvKnCYPPXczOJZ/6t49e/+lX+7QDDTwZ+6MDxyJYXVDJ+eS8IQ81fx7hx4xJv/gVj9GmnGX3POoqqZjlwPFL3oii6Wxhs/kcccUTizb8QN9xwg8nmr0NfDtbuTWF8PL4xvdnCUPPXoS/pTLr5F7yxY8YYfSVQ/f7zDhyPbHlBJeOPN0S0uu1vJc1/xIgRRk74i9scXnrxRTlsp52MNP+W2KBCnw8xt6uhfn+uWkjMK4T+twfeWkP7T/bv31/Onj07leZfCH3NeNzHF/PvuTGw49tZ6L/5krf/7sr+01fsmDjhL+7fy8svvSSHDx9u8snAhpZPDLVdn7PjBZWMP97RwlDz11F80l/Szb8QN998s6nmb+yVhCx7F110UarNX8fjjz1W8qxwH/dfCN7tv/hFas2/ELfffrvRfKurq491oD5nxwsqGX+8q4Sh4rH77run3vz113WUc7MgU/nitfX69esnX3zhhVSbfyH02w6+778QPH2Tn7SbfyFG7rabsXyjKLrKgfqcHS+oZPzxHhSGiseUKVNSb/6Fn5kwfryXxTI07/jjj7fS/HXcdddd3u+/ELzWrwClWQ8uveQSk/n+UXRhc7zeO+9ZHTxrntoWmCge+nfmzJ5tpfnr+MdTT3lZLEPz9LXZNpq/Dn3uSZ8+fbzefyF406dPt9L89fdnzphR9uPtIN+XRZmb6/Xedc/q4FnzBgzYLFJ/7OtMFA99i09bzb8Q+kNFOnucrhXLkLxu3brlT8q00fwL3oEHHujt/gvB0x/eY6v5F2KHHXYwla8+MbZKxNxcr/eue1YHz6K32Wb9NzNVPA4//HCrzV+H/hTBjh6ja8UyNE+f+W2z+evfP+20U73dfyF4+tM9bTZ/HYceeqjJfHuKGJsP9d51z+rgWfR69arf2lTxOPXUU602fx36I2Xbe3wuFsvQvM997nNWm78OfdthX/dfCJ7+GF/brwSecsopJvPVl0l3uPlS7133rA6eRa979+67mioe55xzjtXmr0N/UFB7j8/FYhmap8/Ct9n8dVx/3XXe7r8QvDPPOMP6K4H6w8cM5ruD6GDzqd677lkdPIteYQEgDBSPc9Wks9n821sAuFwsQ/M6WwCk8czwhuuv93b/heCdeWbbBUDa9aCjBUAX8t1RtLP5Vu9d96wOnkWvvr7nNsJQ8dDvvdps/jr0y4/tPT4Xi2Vo3uc7eAsgrZeFr7j8cm/3XwienoO2XwnUb0cazHcLUWLzsd677gWVjA9eLpfrIwwVjzTv/d5eFN8O1odiGZq3UzsnAab5nvAZp5/u7f4LwdMnAdp+JfCwww4zmW+9aLX5Wu9d94JKxhMvp2KdMFA89J34bDZ/HdtsvbVXxTI0r6amJn9PdlvNX39fNyBf918I3jbbbGP9lUC9EDWUb5vLAD2v9355QSXjrrdQGCgeURTJf86ZY63568+G7+jxdTXwyvPu/vWvrTX/xoYGXu8UewAADdhJREFU2bdvX6/3Xwienou2mv/sWbM2yanCfOeLoi2Qeu+HF1QybnsPCUPFQ7//aqP569C3H/WxWIbmnXjCCVaavw79ufC+778QvIsnT7bS/HXo25EbzPcB0bIFVO/d94JKxn3vamGoeIwaNcpK89e/t8suu3hZLEPz9EcB6w8DSrv56/jaV7/q/f4Lwdt1112tNH8de+yxh8l89Qel2a7P2fKCSsYP73+FweLx29/+NvXmf+stt3hbLEP0Jk6cmHrzf+rJJ/XHtwax/0Lw7rzjjtSbv377yXC+xzhQn7PjBZWMP56+zMVY8dAfx6nfi02r+et7z+uPH/W5WIbmDRgwIP9ebJpng3/5S18KZv+F4A3baaf8sUqr+euaM3LkSJP5boiiaIgD9Tk7XlDJ+OW9JAwWj4smTEil+evfP/vss00Xt1Vq4s/Uof7/TPX1GV0N/fsFy3VP/f9lJpvD17/+9dSa/00//7npZrheRaf71qfjG9NbZWj/5ePcc85JpfnrGDdunOnFzjyH6nM2vKCS8cu7Thh85qA/Fe7e3/8+8eZ/x+2351/2NfnMJpeLrnDgeKTu5XK57wlDzb8Ql0+dmnjzf+yxx/IfAdyVx9fBzz9o+3hY8q4Qhpq/jupcbpOrQpKqB/ptR11zTL7SoRZM1zhwPLLlBZWMX94+wlDzL0S/fv3kw3/5S2LN//4//lH27t3b+MuadXV1n3DgeKTuqQVAP/Xtj4Sh5q+/rhdnt9xyS2LNf8azz+Y/frarj6+DOMb28bDkjRSGmn8hevXqJf/00EOJNf9p06bla43ptzlqa2v3deB4ZMsLKhn/PH3Nq9GX0fTEvEetzk03/7vuvDOR5h9FVf9y6HjY8O4Rhpp/IfQzsx//6EfGm/+jjzwit9xyyySa//sqejhyPGx4/xaGmn8h9Fz9zd13J/LMP4nmr+rASw4dj+x4QSXjmae2Cw2/h5b/fX13uAsvuEDOf/llIyf8fX/sWNnN8Mv+/335P/d9V46HJe8wYbD5F8e3jz8+f3mgieZ/zY9/LOvr65No/jpudeh42PDGCIPNvxD67QD9iaH6TpEmTvi7YNw44y/7F9WB8Q4dj+x4QSXjmdenT+8h6o9/penJVAh9dYB+FtDV5q/f7x8+fLjxyV4U71RX53p3df+5fnxjepGKF4Xh5l+IoUOHyhtuuKHNVSJxm/+0P/9ZfuYznzG+OCmKDSp2deh42PD054O8l8STAR36fh36EsGuNn9dQ0aMGGF0cVL8+FS8379/v0EOHY/MeVYHz7KXy0U/Sqi5bvzennvumT85bM7s2Z1O9lkzZ8pLLr645OU9CTy+yZXuP9ePb0zv2yKZ5roxtt9+e3nBBRfkr93vrPnPff55ee0118jPfvazscep4PHd6+DxSN2LomhK0vNt9913l1Muuyx/uWhndUDXih/84AfyE5/4hJG/v44en6qBV7p2PLLkWR08616vXvVbq0nwoUio+bf+OX2t8OGHHy5PO+00ed555+VDf5Sn/jSvHXfcsaSVUPPX7/v2r3T/uX58Y3r6U7kaRULNv3Xok/i+8IUvyO+edFL+JWId+hP9vvGNb8jd1DM9/dJxOV4Fj08/+9/TwP5rd/PF69u3zxZqv61I+slA4fv6w3v0nNdzv1AHdE3QtUHXiOLfSbgerFI1cKhrxyMrntXB8Zo99a1JIuHm76A3xtT+c/34xvS+KsI6vnHiNoP7r83mm5fL5S4I7Ph26qln/+NdPR5Z8KwOjrfRq1XxsnBscibozRXNz3pN7b+yN0c9/UEoIRzfOPGOioGG99/GzUdv2LAduqtvPSfCOL5xvPm1ajO1/1w/vi56VgfH28Q7RDS/JOrK5EzK03d8+3QC+y8EbzsVK4XfxzdufC+B/ReCd4BoniO+H9/OPF3rDkxg/+GV4VkdHK/N9iPhxuRM0rskwf3nvae2Ezw/vnFCv9JRlcT+C8SbIvw+vnG8KxPcf3gxPauD47XZ9EsyTwv7kzMp73EV1QnuvyC8KIru8PT4xonFKjZLcv8F4Ok58oTw8/jG8Z5V0fmzz67vP7yYXlDJBOJto+J1Ec5kLy78W6Sw/7z3hgwZ1C+KquZ4dnzjhH57Y6+k918g3sdULBF+Hd843msqtkph/+HF8IJKJiBvhIp3hf+TvRBvqxie4v7z3uvdu5deLJX8xMg44eDfyxoVX0xr/wXi6TmzTPhxfON4y1XskeL+wyvXCyoZv73/UZG/P4Cnk70Q+uNOP2Vh/4XgbS/aeTWoo3Dw70Wf8HWchf0XgrefaPWRwQ4e3ziermUHWNh/eDR/Pz21/Y+aPMs9nOyF0M9e9rW1/wLxdhAd3CSodTjYHPQz/2Mt7r8QPL0I0JdNunh843jvqSg7aYePR3heUMkE5NXV1e2hJtErHk32Quj3+nazvf8C8Qar+Kdw6/jGCf2ePy/7G/DUvh+uYrFjxzeOp1/B4mV/l72gkgnQ69mz58fVZNJnzro+2Quhz/bnhD+znv7QpHY/OtjB5q9vbDXSof3nvVdfX79tFEVPOXJ843hPC074c9sLKpmAvfr6nvrSoEnC7ZuE6Pd6rxFl3OXP1+Nh0TtexQfC7eb/exV9Hd1/XnvDh+/UQy0CLhZdqAPC3PHtzCvUgZpK83X9eHjvBZVMNryDVcwX7kz2wvfmiTJP8gnkeNjw9FUiTwn3mr9+uffYBPLFa+vp/3lBuNf89Ss/3OHPFy+oZLLj6ftnTxCtngm2jpSawwoV5wru7Z+qt802W1XlcrmT1DF4y4Hmv1Y0P+Prk1S+eCU9/Qz7fNFy++jOIuF6sCqXiyZwb3/PvKCSyZ43QDS/LaDPsk27+euP89VFf0iK+eK18vRNg9RCYIw6Hq+K9Ju/PsP/DhU7ppUvXsltc9FcBza5d4io/PjG+XtZEUXRdfX1Pbf2eP9l1wsqmex6+taqF4qWG8ck2fyjqOoFtdK/QDWdvhbzxWvl1dR0058k938qnhHJN399h7qpKra0lS9eya2faH5FYJO3BhKqBy+pGjChf/9+gwLaf9nzgkoGT9TU1OynV+SqUb9oaLJvUNZc1fR/VFtbu49r+eKV9HZSoU8Um6linTDT/JtU3KTi8yoix/LFa7uNUnG1Op5zDTb/eaq2XFtbW7Ofg/nidcULKhm8Tbz6+np9CY4+KesqFQ+qWCg6bgj6vVx9guH9Kq6srs4d26dP76G+5ItXctOv1Bwhmj9hTp+dP1fFatF+89dncC9S8RcV16k4UTR/TLEv+eK18nr37rVldXX1cap5/1A0fxKjnuN6rndUBxaI5pqha8cx6neH+JIvXsKb68ngderpk7X0h43oZ4o7iuZr9ns59PjwEvYGDty8n24MPXp037l797rdevbssV0ul+vnyuPDS8XTdUDPfV0Ddmr5/70denx4KXhWB8fDw8PDw8NL37M6OB4eHh4eHp4dz+rgeHh4eHh4eHY8q4Pj4eHh4eHh2fGsDo6Hh4eHh4dnx7M6OB4eHh4eHp4dL6hk8PDw8PDw8OJ5QSWDh4eHh4eH10UvqGTw8PDw8PDwaP54eHh4eHh4Lg2Oh4eHh4eHR/PHw8PDw8PDS9gLKhk8PDw8PDy8eF5QyeDh4eHh4eHF84JKBg8PDw8PDy+eF1QyeHh4eHh4ePG8oJLBw8PDw8PDiw2EkwweHh4eHh5efMTa4Hh4eHh4eHhWPauD4+Hh4eHh4aXvWR0cDw8PDw8PL33P6uB4eHh4eHh4djyrg+Ph4eHh4eHZ8awOjoeHh4eHh2fHszo4Hh4eHh4enh3P6uB4eHh4eHh4drygksHDw8PDw8OL5wWVDB4eHh4eHl4XvaCSwcPDw8PDw6P54+Hh4eHh4bk0OB4eHh4eHh7NHw8PDw8PDy9hL6hk8PDw8PDw8OJ5QSWDh4eHh4eHF88LKhk8PDw8PDy8eF5QyeDh4eHh4eHF84JKBg8PDw8PDy82EE4yeHh4eHh4ePERa4Pj4eHh4eHhWfWsDo6Hh4eHh4eXvmd1cDw8PDw8PLz0PauD4+Hh4eHh4dnxrA6Oh4eHh4eHZ8ezOjgeHh4eHh6eHc/q4Hh4eHh4eHh2PKuD4+Hh4eHh4dnxgkoGDw8PDw8PL54XVDJ4eHh4eHh4XfSCSgYPDw8PDw+P5o+Hh4eHh4fn0uB4eHh4eHh4NH88PDw8PDy8hL2gksHDw8PDw8OL5wWVDB4eHh4eHl48L6hk8PDw8PDw8OJ5QSWDh4eHh4eHF88LKhk8PDw8PDy82EA4yeDh4eHh4eHFR6wNjoeHh4eHh2fVszo4Hh4eHh4eXvqe1cHx8PDw8PDw0vesDo6Hh4eHh4dnx7M6OB4eHh4eHp4dz+rgeHh4eHh4eHY8q4Pj4eHh4eHh2fGsDo6Hh4eHh4dnxwsqGTw8PDw8PLx4XlDJ4OHh4eHh4XXRCyoZPDw8PDw8PJo/Hh4eHh4enkuD4+Hh4eHh4dH88fDw8PDw8BL2gkoGDw8PDw8PL54XVDJ4eHh4eHh48bygksHDw8PDw8OL5wWVDB4eHh4eHl48L6hk8PDw8PDw8GID4SSDh4eHh4eHFx+xNjgeHh4eHh6eVc/q4Hh4eHh4eHjpe1YHx8PDw8PDw0vfszo4Hh4eHh4enh3P6uB4eHh4eHh4djyrg+Ph4eHh4eHZ8awOjoeHh4eHh2fHszo4Hh4eHh4enh0vqGTw8PDw8PDw4nlBJYOHh4eHh4cXz/v/IQD5yZKK2hwAAAAASUVORK5CYII=;" vertex="1" parent="1">
          <mxGeometry x="130" y="680" width="142" height="142" as="geometry" />
        </mxCell>
        <mxCell id="9bJqxLlEq6opLeguGgHp-6" value="Back-End Server" style="text;strokeColor=none;align=center;fillColor=none;html=1;verticalAlign=middle;whiteSpace=wrap;rounded=0;fontStyle=1;fontSize=25;" vertex="1" parent="1">
          <mxGeometry x="65" y="540" width="250" height="30" as="geometry" />
        </mxCell>
        <mxCell id="9bJqxLlEq6opLeguGgHp-7" value="" style="rounded=1;whiteSpace=wrap;html=1;fillColor=#d5e8d4;strokeColor=#82b366;" vertex="1" parent="1">
          <mxGeometry x="40" y="130" width="760" height="340" as="geometry" />
        </mxCell>
        <mxCell id="9bJqxLlEq6opLeguGgHp-1" value="" style="shape=image;verticalLabelPosition=bottom;labelBackgroundColor=default;verticalAlign=top;aspect=fixed;imageAspect=0;image=data:image/png,iVBORw0KGgoAAAANSUhEUgAAAgAAAAIACAYAAAD0eNT6AAAABHNCSVQICAgIfAhkiAAAAAlwSFlzAAAOxAAADsQBlSsOGwAAABl0RVh0U29mdHdhcmUAd3d3Lmlua3NjYXBlLm9yZ5vuPBoAACAASURBVHic7d13nFTV/f/x1+wuu7B0UAQLogIaE0tEQRRR1IC9t1hRk68tUWMsX5P8YqLmiyUJ0WisscWCGgsgoKIiiCKIGhWwEUBBelvK9mV/f4wkisDeMzuzd3bn9Xw8fDyinnPPG3PvuZ+ZufcckCRJkiRJkiRJkiRJkiRJkiRJkiRJkiRJkiRJkiRJkiRJkiRJkiRJkiRJkiRJkiRJkiRJkiRJkiRJkiRJkiRJkiRJkiRJkiRJkiRJkiRJkiRJkiRJkiRJkiRJkiRJkiRJkiRJkiRJkiRJkiRJkiRJkiRJkiRJkiRJkiRJkiRJkiRJkiRJkiRJkiRJkiRJkiRJkiRJkiRJkiRJkiRJkiRJkiRJkiRJkiRJkiRJkiRJkiRJkiRJkiRJkiRJkiRJkiRJkqQUJeIOEFFrYAdgS6Al0Orrv9rReP4MkqSmpRZYCaz5+q+1wBJg1td/n9Wy8ebZHRgA7AX0BHYGtok1kSRJYeYBnwGfAu8B44B/x5poA9lQALQBjgEOBQ4Gtos3jiRJGfElyUJgLDACWB1nmLgKgDxgP+As4HSSX+dLkpQryoGRwD+AMUB1Qwdo6AKgLfAz4GJg6wYeW5KkbDQfuBO4A1jVUIM2VAGwBckb/6VA+wYaU5KkxmQ18CAwBFiY6cEyXQA0B64FrgSKMzyWJElNwVrgFuBmoCJTg2SyADiY5Fcau2RwDEmSmqp/Az8n+YxA2mWiAOgE/A04MQPHliQp1zwNXEJyjYG0SXcBcCDwOD7gJ0lSOi0CzgReSdcB89N0nARwGcnXGdql6ZiSJCmpFXAGydfoJ5BchbBe0vENQCvgKeDwNBzrWxKJBF27dqV79+706NGDHXfckY4dO9KyZUuKi4tp3bp1uoeUJDUhpaWlrFy5kpqamowcf+3atZSVlVFeXs6KFSuYO3cuX3zxBXPmzGHhwoXU1tb7Pr0xLwCnkXxYMGX1LQC2AEYBvet5nP/o1q0bAwYMoF+/fhxwwAFsueWW6Tq0JCkH1dTUsHz5ckpKShp03OXLlzN16lTeeecdJk+ezIIFC9J5+MnAkcCyVA9QnwJge+BF0vCUf5s2bTj88MM57bTTOPDAA0kksmGFYklSU1JWVsbChQsz9m1AXT7++GNGjx7Niy++yMqVK9NxyE+AQSSXGA6W6p12R2A8sG2K/QHYfvvtueyyy/jxj39M8+bN63MoSZLqVF1dzaJFiygrK4stQ2VlJSNGjOCRRx5Jx7cC84D+wOzQjqkUAJ2AN0nu2peSrl27cu2113LSSSdRUFCQ6mEkSQpWW1vLsmXL0vUpPGXV1dW8+OKL3HPPPSxcWK+F/z4H+gGLQzqFvgXQmuQrCN8P7AdAs2bN+OlPf8ojjzzCXnvtRV5eXiqHkSQpZYlEguLiYvLy8igtLY0tR15eHj179uSEE06goKCAadOmpfrzREdgADAMqIzaKeQbgGYkf/M/OCxXUq9evbjrrrvo0aNHKt0lSUq71atXs3jx4kw9rR9k9uzZXHfddXz88cepHmIscAQRdxYM+QbgFpLvIAYbPHgwDz30EJ06dUqluyRJGVFUVERhYSFr1qyJOwrt27fn6KOPprq6mg8//DCVQ+wEFAKvRmkctQA4GridwGcGiouLeeCBB7j00kvJz0/XmkOSJKVPYWEh+fn5sf4csF5eXh69e/dmxx13ZOLEiVRXR/ow/037A1OAmXU1jHJD3w54n+RvDJG1a9eOYcOG0adPn5BukiTFYtmyZaxYsSLuGP8xffp0Lr/88lQeVlwO7AV8sblGdX0sTwAjgO+FjLzNNtvwwgsvsMcee4R0kyQpNsXFxVRWVlJZGfk5uozq1KkT/fr1Y8KECaxdG7ToXwtgD+CRzTWqqwA4F7g0ZNSOHTsycuRIevbsGdJNkqTYFRcXs2bNGtatWxd3FCD5XED//v0ZO3Zs6NoFO5D8GWCTDxNs7ieADiRXGYq8Fm+rVq0YOXIke+65Z+SEkiRlk4qKCubNm5cVbwasN2PGDC666KLQ5xQWkVytd6O/IWzuG4C/kFxdKJL8/Hwef/xx+vbtGxJOkqSsUlBQQCKRiHW1wA1tueWW9OzZk5dffjmkMGlFcv2e0Rv7l5sqAH4A3EfAU//XXHMNZ511VtTmkiRlrebNm7N27drY9g3YmK5du1JTU8P7778f0q0XyR17l274LzZVAPwF2D3q0fv168ftt9/uyn6SpCYhkUhQVFTEqlWr4o7yLXvttRcffPAB8+fPj9olj+S3AM9v+C829gm/O8nf/iO9uN+mTRumTJnCVlttFTWMJEmNwqJFi1i9enXcMb5l8eLFnHzyySHPA1QDPdlgw6CN3eRvBvaOetTrr7+eAw88MGpzSZIajaKiIkpKSuKO8S0tW7aksLCQt99+O2qXPKAIGPXNf7jhNwBbktxasDDKEXfffXdee+01V/mTJDVZ2fgtQE1NDWeddRaff/551C4VwLZ841mADX+0/zERb/4AQ4YM8eYvSWrS2rdvH3eE78jPz+cXv/hFSJci4NRv/oMNC4Bzoh6pd+/e7LfffiGDS5LU6BQWFtKyZcu4Y3zHPvvsE7ruzrde1ftmAbArybWDI7nmmmtCBpUkqdFq3bp13BE2avDgwSHN+5BcGAiAgm/8i8gv8f/gBz/g4IMPDhk066xZs4aZM2fy5Zdfsnz5ckpLS2nWrBktWrRgiy22YKeddqJbt240a9Ys7qgZsXbtWmbOnMnMmTNZtWrVfx5yadOmDS1btqR79+50796dtm3bxpxUkuLXsmVL8vLysmaJ4PX2228/evToEfIswOnAb+HbBcCgqL3POOOM6OmyRHV1Na+99hpjx45lwoQJfPbZZ3X2adasGb169aJ///4cddRR7Lbbbg2QNDPWrVvHW2+9xejRo3njjTeYMWNGpBO5R48e9O/fn0GDBjFgwAAKCgrq7CNJTU0ikaBVq1ZZty5AIpHgiCOO4LbbbovaZRBfFwDr3wLoACzhu88EfEdBQQHTp0+nU6dOqWRtcAsWLOCuu+5i2LBhLFmypF7H2nXXXTnvvPM444wzaN68eZoSZlZJSQn3338/Dz/8MHPnzq3XsTp16sTpp5/ORRdd1Gj+/5ekdCktLQ1ZgKfBLF++nCOOOCLqqoU1wBbAyvUFwAnAM1F6Dhw4kCeffDK1lA1o+fLl/OEPf+Cxxx6joqIircfu1KkTV111Feeee27WvgVRXl7O0KFDueuuu9L++krz5s05//zzueaaa7L2dzFJSrfa2lpmzZqVVZsErXfppZcyadKkqM2PA4av/8Q/IGqvQYMi/1IQm2HDhtG7d28eeOCBtN/8IbkK01VXXcUhhxzChx9ucqfF2IwbN46+fftyyy23ZOTd1fLycu6880569+7NyJEj0358ScpGiUQia7/93X///UOaD4D/fuXfJ2qvAw44IGSQBlVeXs5ll13GRRddxLJlyzI+3gcffMDAgQO5++67Mz5WFDU1Ndx0002cdNJJzJkzJ+PjLVy4kLPPPpsLL7yQ8vLyjI8nSXFr0aJF3BE2ap999glpvi/89xmAEqBNXT222morPvnkk/BkDWD92shxfSI//fTTue2222J7SK6srIzBgwfz8ssvxzL+3nvvzZNPPkmHDh1iGV+SGkK2PgdQW1vL4YcfHvXD70qgfR6wNRFu/gB9+/atR7zMmTdvHocddlisX8c//vjjnHfeeVRVVTX42GvWrOH444+P7eYPMHXqVI499tgG+eZFkuKSra+GJxIJdt898ia+7YDOecDOUXv06NEjlVwZtWzZMk488URmz55dd+MMGzlyJJdcckmDvidaWVnJ4MGDmTx5coONuSnTpk3jlFNOYe3atXFHkaSMaNasGYnExjbSjd/2228f0rxnHsktAiPJtgKgqqqK008/PdI7/Q3l6aef5tZbb22w8S677DJeffXVBhuvLu+99x4XXHBBVj4lK0npUFgYecucBtWtW7eQ5jvnkdwBMJLu3buH5smoG264gSlTpsQd4ztuueUWxo0bl/FxHn30UYYNG5bxcUKNGjWKe+65J+4YkpQR2fozQOA3AFsmgJuBq6O0nj59OltvvXUqudLurbfe4qijjkr5k2bLFoUMOnAX+vXagW06t6Xzlm2orKxm/uJVfPHVcl6a8CmT3p/DunWpHb9Lly5MmTKFVq1apdS/LvPmzaNPnz6Ulpam1L+osICD9+vBwH47s12Xdmy1ZWvy8hIsWbaGeQtX8tqkmbw0/hPWllWmdvyiIt54442s+9ZIkupr8eLFWbciICQXvjvmmGOiNr8pAfwNuChK6zlz5mTF2vBVVVX0798/pTcSdurakd9ffhjHDdyNFs03X8UtXraGux57kz/fP541peHrCVxyySXceOONwf2iOPPMMxk1alRwv04dW/Gbn/2Is0/Yh9Ytizbbtqy8iqdH/4vr/vISX85fETzWgAEDePbZZ4P7SVI2W7JkyX/2T8kmJSUlHHrooVGb35kA/gGcGaX1kiVLsmIt+AcffJArrrgiqE+zgnz+cOUR/PycAyhsFrZ636Klq7n8hud5atS/wsZs1oypU6fStWvXoH51mTRpEkcccURwv8vO7c/vLz+szhv/hsorqrnp7lf5w51jg78R+ec//8khhxwS1EeSstmyZctYsSL8Q1GmVVVVsd9++0Vt/kgeEGmT46Kioqy4+dfU1HDHHXcE9enQrpgxD/4Pv/zJQcE3f4CttmjNE7edxdDfHEdeXvSnP6uqqkI2aIjsT3/6U1D7osICHrj5NP7862ODb/4AzYsK+N1lgxhx7/m0aRW2CtbNN98cPJ4kZbO8vDq3zYlFs2bNQh5QbJ1HhA2AIHv+wKNGjWLWrFmR27duWcSrj17MgL71f4Dx0sEHcPt1xwf1eeyxx1i5cmW9x17vs88+C3rqPy8vwVN3nM05JwatErVRhx/0PYbfdz7NCqIXUe+88w7vvfdevceWJNUt4BXFLLmrB3jiiScit83LS/DIn05n9126pG38i87YnwvPiPwVCxUVFTz33HNpGz/kzw/wf1ceyVEHfz9t4/ffZ0fuvvGkoD5PPfVU2saXJKVHoyoASkpKgj79/uTUfTnm0B+kPcfQ3xzHjtt1jNw+nQ/ChRyr3947cNX/RN7nKbLBJ/Xm8IO+F7n9c88957oAkpRlGlUB8Oabb0Zeardli0J++/OBGclR2CyfG395eOT2U6ZMSfl1vW+aNWsWX375ZeT2Q64+qt5jbvLYVx0Z+XmIxYsXM2PGjIxlkSSFa3QFQFTnndKHLp0ibXGQklOO3JOeO0RbQ6mysjItCxaF/PkP2b8n++3Vrd5jbspuO3fh6EOi/7QwceLEjGWRJIVrVAXA9OnTI7c98bDImyKkJJFIcNzA3SK3T8cn4KA//6Do2VJ1wqDo/439BkCSskujKgBmzpwZqV3Hdi0z+ul3vWMOjf4JOGr2dBwjkUhwdAaefdjQEQd9j/z8aKfQ559/nuE0kqQQjaYAqK2tZeHChZHa7rJTp8g3pvr4fo/OkdumY//oqMdo37YFW2fw54/1OrQrpsuWrSO1zcb9syUplzWaAqC8vJyamppIbbfeqmGWK27TqjmtiqMtrLNmzZp6jxf1GA1x819vm4j/rdPx55ckpU+jKQDKysoit23ftkUGk3xbx/bFkdqF5N+U8vLySO06tI2WKR06tI+0kGRa3oKQJKVPoykAWrSIflNftmJtBpN829Ll0cYKyb8pzZtHW4Z3eUnD3Wyj/rcuLm64okSSVLdGVQDk50dbgnbhktUZTpNUsro88na56dgWOOox5i9uuG0qF0QcK1PbIkuSUtNoCgCALl2iLen78b8XUV2zLsNp4KNPF0Ruu/XWW9d7vKjHWFFS1iBFwLKVayOPE/X/O0lSw2hUBUCPHj0itVu+spSJ70TfMChVI16ZFrltz5496z1e9+7RNjSqra1lxNjo2VI16rUZ1EQstNLx55ckpU+jKgC+//3o790/8+KHGUwC69bVMjzgJrvrrrvWe8yQP/8/X/yg3uPV5dmXPorcNh1/fklS+jSqAqBfv36R2z7w9GTmLkjfNrwbenzEe8z8YmmktkVFRfTu3bveY4b8+cdNmsnrb9d/8aFN+eDj+YwaF311vwMOOCBjWSRJ4RpVAbDffvtRWFgYqW15RTW/v/2ljOQor6jmt0PHRG6/7777Rn6Cf3N22GEHtt9++8jtf3XrqIztwnfVTSNZty7asTt16sT3vhd990BJUuY1qgKgdevWDBwYfYe/h/75Dk++8H7ac1x+w3N88dWKyO1POOGEtI194oknRm47+YMvuf6vL6dt7PWGPjCeV9/8LHL7E088kUQi2s6BkqSG0agKAIDTTjstctva2lp+cu1TvDd9XtrGv+3BCdw37O3I7Zs3b85xxx2XtvFPO+20oJvpDX8dy1Oj/pW28V+a8AnX3PxCUJ9TTz01beNLktKj0RUAhx12WOSn4QFKyyo5+PS/8cJr0XfS25ja2lpuuec1rhwyIqjf2WefTZs26Vuat0ePHvzoRz+K3L62tpYzr3iMW+55rd5jDxv5Pide/FDkJ/8h+dzCHnvsUe+xJUnp1egKgPz8fC699NKgPqvXVnDCRQ/xhzvHUl5RHTzmvIUlnHjxQ1x766jIv3tD8uG/0KxRXHnllUHta2rWce2toxh81RMsXha+Jv/KVWVcdv1znPGLRykrrwrq+8tf/jJ4PElS5jW6AgDgxz/+MbvtFrbffU3NOn479EV2OXQIDz49hTWlFXX2mbewhF/9cRS7HDok6JW/9S666CK22Wab4H512WeffVJ6ruAfz02lx4D/4/rbX+arRSV1tl+6Yi1//vvr9Dx4CHc8MjF4vIEDB3LQQQcF95MkZV4CeB44tq6GLVq0yKotXd955x0OO+ww1q1LbcW/5kUFHLxfD/rvsxNbb9WGbTq3o6yskoVLVjN73nJemvAJ706bl/JT9Ntttx1vv/12xtbAX7hwIb1792b16tSWPU4kEuy927Ycun9PtuvSjm06tyUvkceCJauYu2Al49+eyZvvzQn6uv+bmjdvzqRJk+jWrVtK/SUpW61YsYJly5bFHWOj+vXrR0VF3R9wgeGNtgAAuPHGG/nTn/4Ud4zvKCgoYMSIEfTt2zej4zz33HOcd955GR0jVUOHDmXw4MFxx5CktGsqBUCj/AlgvWuvvTZocZyG8utf/zrjN3+A448/nvPPPz/j44Q6+eSTvflLUpZr1AVAfn4+jz32WPDzAJl0zjnncPnllzfYeDfffDNHH310g41Xl379+nH77bfHHUOSVIdGXQAAtGnThieffDLyRkGZdOKJJzb4TxL5+fnce++9DBgwoEHH3Zh99tmHxx57LC2rHkqSMqvRFwCQ3Gp2zJgx9OrVK7YMF1xwAffeey/5+fkNPnbz5s0ZNmxY0CqB6TZw4ECGDx+e1jUPJEmZ0yQKAICOHTvywgsvcMEFFzTouEVFRQwZMoSbbrqJvLz4/nMWFhZy3333MWTIkMj7JaRDIpHgggsu4LHHHqNFixYNNq4kqX6aTAEAyU/CN910Ew899BCdO3fO+Hh9+vRh/PjxXHjhhRkfK4pEIsGFF17ImDFjGuS5iO7duzN8+HBuuukmCgoKMj6eJCl9mlQBsN6xxx7LlClT+PnPf56R9/C322477rzzTsaMGcPOO++c9uPX11577cW4ceO49dZbM1IIdejQgeuuu46JEye6za8kNVKNeh2AKJYuXco999zD448/Xu/8vXr1YvDgwZx66qk0a9YsTQkzq6Kigscff5xHHnmEf/2rfpsC7bzzzpx55pmce+65tGzZMk0JJalxaSrrADT5AmC9devWMXHiRMaOHcuECROYPn06NTU1m+1TXFxMnz596N+/P0ceeWRWvGlQH59++iljxozhjTfeYPLkyaxdu3az7YuKiujVqxf9+/dn0KBB7Lnnng2UVJKylwVAI1dRUcHs2bOZNWsWq1evpqysDEi+VtiuXTu6d+/OtttuG+uDfZn21VdfMWfOHJYsWcLatWtZt24drVu3pn379nTr1o3tttuuSf/5JSkVTaUAyNknt4qKithll13YZZdd4o4Sm2222SYjmxVJkrKfH+8kScpBFgCSJOUgCwBJknKQBYAkSTnIAkCSpBxkASBJUg6yAJAkKQdZAEiSlIMsACRJykEWAJIk5SALAEmScpAFgCRJOcgCQJKkHGQBIElSDrIAkCQpB1kASJKUgywAJEnKQRYAkiTlIAsASZJykAWAJEk5yAJAkqQcZAEgSVIOsgCQJCkHWQBIkpSDLAAkScpBFgCSJOUgCwBJknKQBYAkSTnIAkCSpBxkASBJUg6yAJAkKQdZAEiSlIMsACRJykEWAJIk5SALAEmScpAFgCRJOcgCQJKkHGQBIElSDrIAkCQpB1kASJKUgywAJEnKQRYAkiTlIAsASZJykAWAJEk5yAJAkqQcZAEgSVIOsgCQJCkHWQBIkpSDLAAkScpBFgCSJOUgCwBJknJQQdwB6qO8vJx3332Xjz/+mM8++4y5c+dSWlrKqlWr4o4mSWpC2rRpQ3FxMdtttx3bbrstW221FbvtthuFhYVxR0tZoysAli9fzjPPPMPIkSOZMmUKFRUVcUeSJOWgwsJCdt99dwYMGMCgQYNo27Zt3JGCJIDngWPratiiRQvmz5+f+USbMG3aNIYOHcoLL7xAZWVlbDkkSdpQs2bNOOiggzj33HPp0aNHbDn69esX9YPx8Kz/BmDOnDn8+te/ZsyYMdTW1sYdR5Kk76iqqmLs2LG88sor9O/fn8svv5xtt9027liblbUPAVZXV/PHP/6Rvn37Mnr0aG/+kqSsV1tby/jx4znttNO4//77qampiTvSJmVlATB//nyOOeYY/vCHP1BeXh53HEmSglRUVHDPPfdw/vnns2DBgrjjbFTWFQDvvfceBx54IJMmTYo7iiRJ9TJ9+nTOOeccpk+fHneU78iqAmDcuHEcc8wxLF26NO4okiSlxYoVK7j44ouz7oNt1hQAU6dO5cwzz2Tt2rVxR5EkKa1KS0v55S9/yZQpU+KO8h9ZUQB8/PHHnHTSSZSWlsYdRZKkjKiqquKaa65h5syZcUcBsmAhoDVr1nD22WdTUlJS72MlEgnabtmZwubN05BMkqSkyvJySpYsrPcbaWvWrOHqq6/m0Ucfpbi4OE3pUhN7AXDFFVfUqxraftc92Pfok9l13wPpustuFLaI9z+oJKlpqiwr5ctPPmLG2+N5e+TTfDHjg5SOM3fuXIYMGcINN9yQ5oRhYl0JcOzYsZxyyikp9e3+wz78+Nr/Y5feB6Q1kyRJUXw6ZSKPD7mWme9PTqn/0KFD6devX1ozhawEGNszAOXl5Vx99dXB/Vq168Cldz7B756d4M1fkhSbnXv343fPTuCyvw2jVfuOwf1vvfXWWPezia0AePjhh5kzZ05Qn87dunPdM+Ppc+SJJBKJzASTJCmiRCJB7yNO4Prn32TbnrsG9Z0/fz7PPfdchpLVLZYCoLKykr/+9a9Bfbrv2ZsbRk5i6512zlAqSZJSs9X2O/K7ZyfQ/Yd9gvo98sgjsW1wF0sBMHz4cL766qvI7Tt02YZf3Ps0xa0b11aLkqTc0aJVG35x79N07BJ9E6AlS5bwyiuvZDDVpsVSAAwbNixy24JmhVxx7zO069Qlg4kkSaq/dlt25or7nqFZYVHkPqNGjcpgok1r8AJg0aJFjB8/PnL7Q8+6gB122yuDiSRJSp9uP/ghh5x5QeT2U6dOZcmSJRlMtHENXgC8/vrrkbdHbN6yNcdeck2GE0mSlF4nXPZrWrZtH6ntunXrYlkiuMELgIkTJ0Zue9i5P6NNx04ZTCNJUvq1bNueH519UeT2U6dOzWCajWvwAiDkD3nAiWdlMIkkSZnTP+AeNm3atAwm2bgGLQBqamqYPXt2pLadu3Wn8w7dM5xIkqTM2KrbTnTuFu0+Nm/ePKqrqzOc6NsatACYO3du5FWPevTaN8NpJEnKrJ577xepXXV1NQsWLMhwmm9r0AJg+fLlkdu64I8kqbELuZetXLkyg0m+q0ELgDVr1kRu27r9FhlMIklS5rXuEP1eVlpamsEk39WgBUBZWVnktm7rK0lq7IqKW0ZuG3KPTIcGLQBqa2sbcjhJkmKVzRvXxbYboCRJio8FgCRJOcgCQJKkHGQBIElSDrIAkCQpB1kASJKUgywAJEnKQRYAkiTlIAsASZJykAWAJEk5yAJAkqQcZAEgSVIOsgCQJCkHWQBIkpSDLAAkScpBFgCSJOWggqgNa2pqeOihh+o12PTp0yO3nTHpdSpK19ZrPEmS4jTro3cjt508eTIrVqyo13g1NTWR2yaA54Fj6zWiJElqTIb7E4AkSTnIAkCSpBxkASBJUg6yAJAkKQflAcviDiFJkhrU0jwg+jsKkiSpKXgvAWwFfAEUxRxGkiRlXgWwfR6wCBgWcxhJktQwngAWJb7+m92AD2MMI0mSGsYPgX8lvvEPXgcOjNKzuLgll159NXl5vkQgSVJc1q1bx+233EJp9KXzxwMHwbf3AriNiAVAaelaqioq2XvffUNySpKkNHrn7UkhN3+Av6z/H9/8CD8c+HfUI4wZOSJkQEmSlGaB9+I5wMj1f/PNAmAdcGfUo8yY9hFfzJ4VMrAkSUqTuV/M4eNp00K63Ab8Z7vADX/Evx8oiXokvwWQJCkeLzz/fEjz1cCD3/wHGxYAq4GHoh7trQkTWFnPvYslSVKYVSUlTJr4RkiXv7PBB/yNPcb/ra8INqeqqopXX3oxJIAkSaqnl0ePoqqyMmrzdcAdG/7DjRUAs4FRGQohSZLqIYUP3yPZyEP+m3qR/7aoR03hawhJkpSiFH5+3+g9fVMFwGvAB1GPHPgggiRJSlHgJSVOQgAAE4dJREFUA/jTSC709x2bW8rv9qhHT+FVBEmSFCiFV/D/DNRu7F9srgB4jORGQZH4SqAkSZkVeK9dQnLjn43aXAFQAdwTdZSpk99m0cIFAbkkSVJUSxYv5r0pU0K6/A0o39S/rGs3nzs31/mbamtreXlU5JcHJElSgDEjR7Bu3bqozSuBuzfXoK4CYDHwVNTRxo19OXRTAkmSVIeysjLGv/JKSJcngIWbaxBlP9+/1N0kqaysjPGvvhq1uSRJiuD18A/Y31n4Z0NRCoD3gQlRR3wx7CsKSZK0GbW1tbwU9hP7eGBqXY0KIh7sNqB/lIaLFy3ivXfeYe8+fSIeuuGsWL6cWTM/Z1VJiUWKJAmAvLw82rRty47de9C+Q4e443zHu5Mnhz5kH2kxv6gFwHBgFrBjlMYvjhyRVQXA6lWreODuu5j81pvU1m70dUhJUo5LJBLsu38/zrvwIlq1bh13nP8IfPXvCyBShyg/AUByc6C/RR19+kcf8sXs2VGbZ9TaNWv43bXX8PabE735S5I2qba2lkkT3+B3/3sNpWuz44H2uV98wcfTgxbau52IG/pFLQAA7gNWRW384gsjAw6dOU888jDz582LO4YkqZH4at5chv3jkbhjADB6+PMhH15Xk9z2N5KQAmAV8HDUxm+Of52SlSsDDp9+lZWVTHx9XKwZJEmNzxvjXot9p9tVJSW8+UbkZ/ABHgRKojYOKQAg+dVCpKfnqqqqeCVsu8K0W7RgARUVFbFmkCQ1PuXl5SxauNnX6DNu7JjRIUVILQE/1UN4ATATiPwuwsujXoi1gkrkhf7xJElKyovxHlJdXc0rL44J6TIS+DSkQyp/ukivF0Dy64tJb05MYYj06LJ1F4pbtoxtfElS41Rc3JJOnTvHNv5bE8azcsWKkC6R783rpVIAvAp8ELXxmBHDUxgiPfLzCxjwo4GxjS9JapwOGTSIgoKob8qn30ujXghpPg0IfuAt1e83/hq14ZxZs0JfYUirk08/g5169IxtfElS49K9586cdPoZsY3/8bRpzJo5M6TLUJLPAATJD+3wtRnAT4FWURqXlZbRt98BKQ5VPwUFBezf/0DKysuZO2cONTWRXo+UJOWYwsJCfnT4EVz8iysoKiqKLcc//n5/yOvrS4DzgOrQcRKhHb7hBuA3URrm5eUx9K57Yv09BaCivJwv58yhvCLSDseSpBzRvKg5XXfYIdYbP8CSxYu5/IKfhixXfwPw21TGqk8B0AWYAxRGaXzkscdx5nnn12M4SZKatn/8/X5GR392rgrYAfgqlbHq847DAuCpqI1fe/klVq+KvJCgJEk5ZVVJCePGvhzS5UlSvPlD/QoASD54EElZWRnD//l0PYeTJKlpev6fT1NWVhbS5fb6jFffAuA9IPKL/i+PGc2ypUvrOaQkSU3L0sWLeWXM6JAubwDv1GfMdCxzFHnxgarKyqzZYEGSpGwx7B+PUFVVFdKlXp/+IT0FwHPArKiNJ74+jjcnjE/DsJIkNX4p3Bdnkbz31ks6CoAa4JaQDvffeQcL5qf83IIkSU3CooULeOCeu0O73UTy3lsv6drp4CECnkQsLy/nr3/8Y+jDDpIkNRllZWX85eabKCstDek2F3g4HeOnuhLghmqAZcBxUTusXLGcT6ZPY99+B8S63rIkSQ2toqKCW2+4ns8/DdrAD+AS4F/pyJCuAgDgQ+BwYJuoHZYtXconM6ZbBEiScsb6m/+MaR+Fdn0buDxdOdJZAAC8D5wbctxlS5YwY9pH7LHXXrQoLk5zHEmSsseypUu55Ybr+fTjGaFdq4DjSS7ClxbpLgAWfH3Mg0I6LV+6lDfGjaNrt2507rJ1miNJkhS/6R9+yJDf/ZYFX6X0EPzvSa78lzb12QtgU5oBE4B9QzsmEgmOPO44jj/lVIqLW6Y/mSRJDay0dC3PPvkko4c/T21t8K69AG8BB5LCjn+bk4kCAKAz8C6Q0sf5Vq1bc/TxJ3DEscf5bIAkqVGqqanm9Vde4enHH6Nk5cpUD7MI6EU91vzflEwVAAD9gLFA81QP0LlLFw4edBgHHDSAdu3bpy+ZJEkZsnLFCt4Y9xqvvvQSixbW6yf7MuBHwJvpSfZtmSwAIPla4D+p57MG+fn57Nlrb3r37UuPXXahy9aRXzSQJCnj5n/1FTM//YQpkybxr3enUlNT73V6qoETgJH1T7dxmS4AAM4GHiCNDxy2btOG7j13ZotOW9K6dRtatW5Nq1ataVbYLF1DSJL0HVWVVaxZs5o1q1ezevUqlixazMzPPmXN6tXpHKYaOAd4PJ0H3VBDFAAAxwBPAUUNNJ4kSY1RJXA68EymB2qoAgDgEJJFQIcGHFOSpMZiGXAyMK4hBmvIAgBgJ+B54AcNPK4kSdnsI5LPzUXeXbe+0rUZUFT/BvYhuY9xSi9DSpLUhNQC95JcO6fBbv7Q8N8AfNNhwB0kvxWQJCnXzAR+BrwUx+DpXgo4xEySVU81sDdQGGMWSZIaymrgRuAsIHg7wHSJswCA5M1/PHA/yZ8j9iS5lLAkSU3NWuA24BTgRdK8tG+oOH8C2Jj2wHnARfjTgCSpafgcuAt4EEh5TeB0y7YCYL0E0Ac4leQaAjvGG0eSpCD/BkaQ3MFvcsxZNipbC4ANdQMGkNwQYU9gV5LfFkiSFLcVwHTgA2Aqyff4v4g1UQSNpQDYmGKgK9AaaEtylcHiWBNJkpq6UqACKCH5MN+XX/8zSZIkSZIkSZIkSZIkSZIkSZIkSZIkSZIkSZIkSZIkSZIkSZIkSZIkSZIkSZIkSZIkSZIkSZIkSZIkSZIkSZIkSZLUYPLjDiA1kDbA94AtgGVAbbxxlGUKgO8DWwOlQEW8cSRJ9bUtMIzkhF779V/LgN8CzWLMpezQjOS5sJz/nh8VJM+ZbWPMJUmqh52A+fx3Yt/wr5ewCMhlhcDLbPr8+IrkOSRJakTygSlsenJf/9e1cQVU7H5N3efHFPypVJIalUuoe3Jf/ykvL6aMik8esIBo58jPYsooSQrUGVhJtMm9FugaT0zFqBvRz4+VQJdYUkoZ5CcfNUV/AtoGtC/IVBBlrZBnP9qSPKckSVnsYKJ/sqsFSrAAyEXNgFWEnSuHxJJUklSnIuATwib122NJqmzwV8LOlU9InmOSpCzzG8Im9GVAp1iSKht0BJYQds78JpakkqRN2h5YQ9hk/tNYkiqb/A9h50wpsGMsSSVJGzWSsIl8Cj4Eq+Q58BZh586LsSSVJH3HCYRN4NXAD2NJqmy0G1BF2Dl0QixJJUn/UQzMJmzyHhpLUmWzvxB2Ds0FWsWSVJIEwK2ETdwLCFsjQLmhNTCPsHPp1liSSpL4PlBJ2KR9cixJ1RicQti5VAXsEUtSScphCWAcYRP2y7EkVWMyirBzaiLJc1GS1EDOI2yiLgd2jiWpGpPuQBlh59Z5sSSVpBzUAVhM2CR9XSxJ1Rj9jrBzaxmwZRxBJSnX3EfYBP050DyWpGqMUllS+r5YkkpSDukN1BA2OR8RS1I1Zj8i7BxbB+wXS1JJygEFwPuETcxPxpJUTcFThJ1rHxG2zbAkKaIrCJuQVwHbxJJUTUFnYCVh59wVsSSVpCasC+GT8WWxJFVTcjnhRee2sSSVpCbqacIm4g9J/mQg1Uc+8B5h597TsSSVpCZoIGETcA3QN5akaor2IfzB0yNjSSpJTUgR8Clhk+89sSRVU3YvYefgHJIbVUmSUnQ9YRPvUmCLWJKqKesALCLsXLw+lqSS1ASksizrObEkVS4YTNi5WAHsEkdQSWrsRhM24b6BG7MocxLAa4Sdk6/jOSlJQU4jbKKtAnaPJalySSpbUJ8WS1JJaoTaAPMIm2RvjiWpctEthJ2bC4B2sSSVpEbmdsIm2C+BVrEkVS4qBmYTdo7eHktSSWpEdif5dX7I5HpsLEmVy44j7BytIbmRlSRpI/KAtwibWMfEklSCEYSdq++QXFlQkrSBCwmbUEuBHWNJKkFXYA1h5+yFsSSVpCy2BclFfEIm02tjSSr9168IO2dXktzYSpL0tYcJm0g/JblMsBSnQmAGYefuw7EklaQsdACwjrBJ9OBYkkrf1Z+w83cdnr+SRAHwAWE3/0diSSpt2j/wGyxJCvK/hE2cJfgbqrLPVsByws7l/40lqSRlgVSeor4olqRS3S4m7FwuBXaIJakkxWw4YROm71Erm+UBkwg7p0fHklSSYnQ4YROlK6mpMegFVBN2bh8TS1JJikExMIuwSfKvsSSVwt1B2Ln9Be5lISlH3ETYBLkQd1NT49EG+Iqwc/ymWJJKUgPalfD91H8cS1IpdacTdo5XkdwIS5KapATwGmET4+tf95Mam1cIO9ffwHNdUhN1NmETYgWwSyxJpfrrAZQTds6fHUtSScqg9sAiwibDG2JJKqXPjYSd80tJbowlSU3G3YRNhHOAlnEEldKoBfBvws79u2NJKkkZsDfJ9/hDJsGjYkkqpd8gws79GqBvLEklKY3ygXcJmwD/GUtSKXOeIewa+IDkRlmS1GhdStjEtxboFkdQKYO2A1YTdi1cGktSSUqDzsAKwia9X8aSVMq8Kwm7FlYB28SSVJLqaRhhE95HQLNYkkqZVwD8i7BrYlgsSSWpHg4lbKJbBxwYS1Kp4exP8lwPuTYOjyWpJKWgEPiYsEnu/liSSg3v74RdG58DzWNJKkmBfkvYBLcM2DKWpFLD6wgsIewa+W0sSSUpwE5AGWGT2/mxJJXi8xPCrpFyYOdYkkpSRC8QNrFNBvJiSSrFJwG8Sdi18lIsSSUpgpMIm9CqgD1jSSrF7weEb419UixJJWkzWgNzCZvM/hhLUil7/Imwa2Y+0DaWpJK0CX/GiUwKlUrh/OdYkkrSRuxG+FeZJ8aSVMo+oT+dVQM/jCWpJH1DKg8zvRhLUil7hT48OwUfnpUUs1ReZ+oZS1Ipe6Xy+uxPYkkqSaS2oMn/iyWplP1cQEtSo/EAYRPWZ7ikqbQpqSyh/UAsSSXlNDc1kdIvlU20DoojqKTclMq2po/HklRqfJ4g7NqahttoS2ogVxI2QZUAW8eSVGp8OgMrCLvGrowlqaScsh2wmrDJ6eexJJUar0sJu8bWAt3iCCopdzxL2MT0AcmfDCRFlw+8S9i19mwsSSXlhEGETUg1wL6xJJUav71JrvoXcs0dFUtSSU1aC+DfhE1Gf4slqdR03EXYNTcHaBlHUElN142ETUSLgPaxJJWajrYkN84KufZujCWppCapB8klfEMmobNiSSo1PWcTdu1VAN+LJamkJucVwiagCSQ3CZJUfwngVcKuwfF4DUqqpzMI//SxayxJpaarJ+Hfwp0RS1JJTUIb4CvCJp3/iyWp1PQNIexaXAi0iyWppEbvDsImnC/wCWQpU4qBWYRdk3fEklRSo9aL8HeQj4klqZQ7DifsmqwB+sSSVFKjlAe8TdhE83wsSaXcM5ywa3MqyZUFJalOFxM2wawFdoglqZR7ugJrCLtGL44lqaRGZStgOWGTyzWxJJVy1/8Sdo26I6ekOj1K2MQyHfcilxpaAcmNtkKu1UdjSSqpUegPrCP6hLIOGBBLUkkHEHa91gKHxJJUUlYrBGYQNpk8FEdQSf/xMGHX7GdAUSxJJWWtXxE2kSwHOsWSVNJ6HYGlhF27v4olqaSslMpTxRfEklTShi4k7NotBXaMJamkrDOCsAlkCsm1AiTFLw94i7BreEwsSSVlleMJmziqgR/GklTSpuwOVBF2LR8fS1JJWaEYmE3YpPGXWJJKqstthF3LXwKtYkkqKXa3EDZhLADaxpJUUl1aA/MIu6ZviSWppFh9H6gkbLI4NZakkqI6jbBrugrYI5akkmKRAMYRNlG8HEtSSaFGE3Ztv0FyTpCUA84lbIIoB3aOJamkUN2BMsKu8XNjSSqpQXUAFhE2OfwujqCSUvZ7wq7xpcAWsSSV1GDuJWximAk0jyWppFQVAZ8Sdq3fG0tSSQ1iH6CGsEnhyFiSSqqvgYRd6zXAfrEklZRR+cB7hE0IT8WSVFK6PE3YNf8hbu8tNTmXEzYRrAK2iSWppHTpAqwk7Nq/PJakkjKiM+GTwC9iSSop3a7A4l/KWU/h14BSrioA3sef/6SccyDhDwL1jSWppEzpS/gDwAfFEVRS+jxH2EV/XzwxJWXYfYTNBc/GE1NSuiwg+gW/BOgYT0xJGdaR5DUedT6YH09MSemylOgXvMuBSk1byDLgS2LKKClNXifaxe6GIFLTlyB5rUeZE8bFlFFSmpxN3Rd6JbBbXAElNajdiLYV+FlxBZSUHnnAC2z+QnfhDym31LU2wEiSc4ekRq45cBvfrfqX4u/+Uq46H1jGd78NvB03AMsJ/uabWzoDA4DWwDySv/GVxZpIUpxakJwTtgVWk5wTFsaaSJIkSZIkSZIkSZIkSZIkSZIkSZIkSZIkSZIkSZIkSZIkSZIkSZIkSZIkSZIkSZIkSZIkSZIkSZIkSZIkSZIkSZIkSZIkSZIkSZIkSZIkSZIkSZIkSZIkSZIkSZIkSZIkSZIkSZIkSZIkSZIkSZIkSZIkSZIkSZIkSZIkSZIkSZIkSZIkSZIkSZIkSZIkSZIkSZIkSZIkSZIkSZIkSZIkSZIkSZIkSZIkSZIkSZIkSZIkSZIkSZIkSZIkSZIkSZIkSZKU/f4/GtTcZRlYMEMAAAAASUVORK5CYII=;" vertex="1" parent="1">
          <mxGeometry x="295" y="130" width="230" height="230" as="geometry" />
        </mxCell>
        <mxCell id="9bJqxLlEq6opLeguGgHp-2" value="" style="shape=image;verticalLabelPosition=bottom;labelBackgroundColor=default;verticalAlign=top;aspect=fixed;imageAspect=0;image=data:image/png,iVBORw0KGgoAAAANSUhEUgAAAgAAAAIACAYAAAD0eNT6AAAACXBIWXMAAA7DAAAOwwHHb6hkAAAAGXRFWHRTb2Z0d2FyZQB3d3cuaW5rc2NhcGUub3Jnm+48GgAAIABJREFUeJzs3Xl4VOXZP/Dvfc5kAzJJQJBFBa0KZAG1VNHWBW21LrXaCra1tgokQZRWW/tq+7pE7WKrbzcUSAC1tbYWamsXtVatWluXukIyAYsKuACyJTOBrDPn/v0B/amYwMxznpkzk3w/19Xr6iXzPOdLMsxzzznPAhARERERERERERERERERERERERERERERERERERERERERERERUWAk6ABE5M/M1VuK873CserpwRAdpx6GQTBMgWECDINiPwhKIRAoSnc3ywcwePf/3wmgGwAgaIVCoWiFYKsC2wTYBsU2cbDN82St68q6bqdz/R0ThrcF8NclIktYABDliDmrWsYl4m4lHK9KVCZBcTgEYwEMCyjSNhGs8xT/EdGV6jlNbijRtGhi2bqA8hBRClgAEGWhuZEdI+PiTRX1Pq4qUyGogqIk6FxJEUShaBTRZ1Wcf3kJ55klVUPeDToWEX0QCwCiLDBz9c7Rbk/i0+LoNCiOA3BI0Jksex2CpwXyeI/rPnzHhMEbgg5ENNCxACAKwLw1WtDdHf2EAqdBndMAnRR0psySlRDvYQEe3o6Sp5ZXSHfQiYgGGhYARBkyb40WdHe1naqi0wGcnTO39NOvXYC/A1jenui47+7JI3cGHYhoIGABQJRGdY9raOPwttOher4KPgMgHHSmLBeD4E/qyW/HbC3+a900iQcdiKi/YgFAlAa1zdHDNIELILgYwEFB58lRmyBY5oizeFF5cVPQYYj6GxYARJZMj2j+UC82Q6HVEDke/Pdli0L0HwpZ3Irwcs4XILKDH1BEPtW8sL1EC9yLRORKQA8IOk8/9y4Ui5AvtzWMD28NOgxRLmMBQGRodmPbREf0coh3IVSKgs4zwLSr4JehuPx04eTwq0GHIcpFLACIUlQbaStXeFcD+BIUbtB5BjhPgAc98a5dXFH2StBhiHIJCwCiJM1ubJvoON63wYE/G3mA3AcP1zVMCq8OOgxRLmABQLQPs5pbxrrqfBfAFznwZzlBAsCvgcQ1DRVD3ww6DlE2YwFA1IeZq7cU5/UUfFtFrwBQGHSefdgMYL1C1jvirQOcjarYJsB2T7FNFNsToURHflxiAJDobu9qmDK6HQBqXtgwyM0fVAAA3SENu3G3SAVDnV0nCg4VwTDAG+WpM06gYyEYB8Xw4P6qSRDtAOTHIXTdvKBixI6g4xBlIxYARHuYvkzdsvK2iwG9CcDIoPN8gOg7otKkoitFpUkdbUJ7++r/DuaZUvPChkEYNGiCeFKpopWiMkmBKgCjM5kjCRtV5ZoxlcV31Yl4QYchyiYsAIjep7op+jEB6gEcGXQWAN2ieEkFz4jo09KT/8yiIwa9E3SovZnzSvsYL6/7OKgcJ4qpKjgKQH7QuaB4yVOtWTKp9MWgoxBlCxYARNj1jVYLh1wnolcG/Jz/DUAehXiPxt2ev94xYXhbgFl8u+JpLdpRGv04POeTjugnVXEUgvvc8QBZEpLOb/KxABELACLUNkfPUA8LAIzN+MUFCVF5UtX7HRzvgf4+ca0msv0gVfcsgZwH0RMCKbYEawWYW19R8teMX5soi7AAoAGr5oXtJShy50NxYYYv7QnkCRVvmRN3/7BocvHmDF8/K8xZ0TZCncTnIM50hZ4EwMlwhF8UFMS/Nv+wYbEMX5coK7AAoAGpdmXsWHX0bgAfydhFRd9RdX6lCa9+yeTStRm7bg6Y80r7GA11f1lFaqE4OIOXXi+O85X68uJ/ZPCaRFmBBQANKNMjml+mbTdA9FsZuf0sSEDlfqjXMLqy5FHORN+7OlVnQ1P0k+Jgjqp8Fpm4KyBIqOIH0hm+sWGK9KT9ekRZggUADRg1ja0fAWQZds1MT7cYgDu8hP6c3/bNXLKy9RDPla+pYiaA4nRfT4F/u653/qKJZevSfS2ibMACgAaE6sbYWSL6SwBlab7URhG5NT+/ZwmfLdux67TFULWIfhPp35dhmwIXLK4seTjN1yEKHAsA6t9UpTYS/R+FfB/pvZ28VaC3amf7/ExvyjNQzFujBd3d0a+qSh2AUWm8lCrkR2Mqir/DRzbUn7EAoH5rViQ61FXcA+DTabzMVlX5oXTtWMCBPzMuXLFpcJEzaC5ErwIwLF3XEeAvXT3ehXcdWdaarmsQBYkFAPVLl6xsPSThyAMAJqTpEj2A3Ik8/G/D+PDWNF2D9uKil1tK8/LcqwV6OYCCNF3mNXFwRn15yZo09U8UGBYA1O/Mbo5OdTz8EcCItFxA8ag6zuWLK4ojaemfUlLbHD1MPfkeoNPTdIltEDmnoSL8zzT1TxQIFgDUr1Q3ts4QkV8gPaf3vQHVSxqqSv+Whr7Jp+qm6GkiWJiWfQREO8TTL9dXlf3eet9EAcn0zltEaVPdGLtSRO6F/cE/LqK3onNnFQf/7LW4suRhdOyshOr/AYhb7VylSMVZXtMUvdxqv0QB4h0A6heqm6I3CXBNGrp+GY7ObigvfSkNfVOazF7Z+lHHkSUAjrDdtwquX1xRcqPtfokyjXcAKLepSnVT9P/SMPgrBD9vkfBUDv65Z8mk0hdHbwl/DIobIEjY7FsUN9Q0RedDlV+gKKfxDUy5S1VqIrGfA7jMcs9vqud8ZfGk4ict90sB2H3uw68AHGK1Y5X60ZXFc7lXAOUqFgCUs2qaWhcDMttyt/eiMzGnYcrQqOV+A1PzguaFinYO64EO00SiMCRanHAlBABOAuK5UDeh8bhKm7huZx5kW7xj8Lb+tC/+RS+3lBaEnHoVzLDasUp9Q1V4jtU+iTKEBQDlpNpIa42q1FvsskcE36yvKJlvsc+M2H2AzsEKZ5I43nh4zjiIjgUwDsBoAGHDrmMANgBYB5X1cLx16jmvCryVoytL1ubiN9/qxujXRXALgDxbfYrIzPqK8J22+iPKFBYAlHMuWquF+Ttj6wDsb6nLDQ5kxqLK8L8s9ZdWs5pbxrrqfFw9TBXB0QAqAQzOcIydAJpU8W9x8GxCvH8tLS9bn+EMRmZHYsc7qr+Fve2ENxYUhA+ef5h0WeqPKCNYAFDOqY1EP62Kh2z0pcC/8sQ9b0HFkE02+kuHS1fFhnUn9FMOcJoCp2LXt/rsI/qOqDziAQ/nu/LI7RPD24KO1Jea5p2j4MV/B+A4Kx2qnsYlopRrWABQzqltar1KITf77UeB3xQWhC/Oxm9us5pbxobU/bxCz4PiGOTaih1BAornROQ+Rfx3DRVD3ww60p4uWquF+e2xu6A4339vclVDZfhH/vshypxQ0AGIUuVBhviuXEW+v7i8+BqIqI1MNsyKRIeGgAtUcQE8HK3I4WVmChfAcap6HODeWtsYfU4d3OMm9J6Fk0pbgo4HAHcdLJ1Q/WJNpG0toFf7602H2ElFlDksACjniOoGiPHY2KMqcxZXhu+wmcmYqsxujk4TldmiOFfTs4Vx0EQFU6GYmnDklpqm6O890aVLykseD7wAE9EG4NvVTa1vCGQBDD8TRXWD5WREaZe73zBowLpkRWx8wtXVBk27VGTG4orwn6yHStFFa7WwYEfbBQrvcohUBp0nEKKN6jk/LSwsvicbHsPUNMfOgaf3wuBkQXVl/OKJ4f+kIRZR2rAAoJxU2xT9qwKnpdCkXVTPqa8qfSRtoZIwb822cHdX6GsKzEO6TivMPe9C9efxvJ75d0wY3hZkkOqm6GkC/B7AoBSa/bWhsuT0dGUiShcWAJSTqlfFDpeEPgegNImXxzyRs5ZUhJ9Kd66+zFy9pTjUkzcPIt8EMDSoHFlum4r+X8LtuS3IQqC2ue0E9by/AChO4uWt6sox/PZPuYgFAOWsmkjsE4D+Horhe3nZW3D0nKD28695QfNQFKuF4noA+wWRIQdtheAGdITrg9qNcNdhQs79gB6wl5dt9UQ+F2RhSeRHbi0tInqfhorwP+Nu6AhAGgDs2OOPWwD8JM+VIwMb/BujZ6IwthKK+eDgn4r9oJiPwtjKmsbomUEEWDKp9EXk4UgR/AxA6x5/vAOQhngoNJmDP+Uy3gGgfmHeGi3o6olWKDDU8XTLqC2lkbppYvdM+CTNam4Z6yScBSI4I4jr9zuCBxLiXRrUToN1j2to04jWqoTIMI2jpaiopCkbJi0S+cUCgMiSOlVnY3N0tqrciuSeH1Py2gV64/bmkluXzxCrx/sSDVQsAIgsqF4VOxwJvVuAo4PO0itBFIotIohCJaqqnjpQABAPIiIOREtUUQLBcChKgo7ch+fEwYX15SVrgg5ClOtYABD5tPtkwh8j8wfy7GkdgEZRaYLoas9z1rt58fUjN5W+nerjkLrHNbRpZOsBiZ7QWMfxxkJlAkSrdNfBQ+PSET4FOxV6xeLK0sUB5yDKaSwAiAzNikSHuoo7AZwdwOV7oPoMHHkKHp7JC8mzmTp859JVsWE9cZ0KB8eK4gQFpsLi8bpJU73fVczMlq2FiXINCwAiA3MiLUd6cO6D4uAMXnYzIPeL4MEet+vvQW+a81/z1mwLd/XknSwezlDRc/axLNO211W88xZXlL2SwWsS9QssAIhSVNMU+yrEWwiVorRfTBCFJ/dCEr9taS79R7ZPgJu+TN2hFdGToM75Cj0fQDjtFxXtEJU59ZUlv0z7tYj6ERYAREmqU3U2NEdvhsq3MnC5pwWo186dv2uYMro9A9ez7sIVmwYXuYPOg2gtFMem/4r6o4aKkqsDP2CIKEewACBKwrw1WtDVFbsLwBfSeBlPgAc9lR8srgo/ncbrZFxNc+tRULkcii8grfMF9PfobL8wV4smokxiAUC0D7Mi0aEhDw+oYGqaLhGH6C+9OL67ZHLp2jRdIytcsrL1EM+RaxX4MtJ1HLngmQRw1tKKku1p6Z+on2ABQLQXsxt37O848UegUpWG7hXAb6B6XUNV6etp6D9rzYpED3UUN8quOypp+BySlZ46py6pGvKu/b6J+gcWAER9qGneOQpe/BEAFWno/nkHcsWiyvC/0tB3zqhuin4MwE8E+Lj1zgWvhrz4pxZUDXvLet9E/QALAKJeXLoqNqwnoc8CONRy19tF5Mr68uK7OFltN1WpbWqbqaK3ACiz3PtrCcExfBxA9GE8DZCoFz0JrwGWB39RLPPULa+vCN/Jwf99RLS+Krw0JG45IMst936oo1JvuU+ifoF3AIj2UNvUMlnhvAx7/z5aBZhbX1nyG0v99Ws1keiXACyweB6Bepo4YknV0JWW+iPqF3gHgGgPqs65sDT4C/AUJDGZg3/yGipKfp0QbzKAf1rqUhzHPddSX0T9BgsAoj05mGCnI2nQzvApDRVD37TT38CxtLxs/egt4WkK+SF2rZbwR239Ton6j/SswyXKZSohn2NOu6jOrK8q+a2tSAPR7hMMr65uir4iwFIAg8x703xbuYj6C94BINqDQtf7aP6uAifVV5Vy8LdkcWXJvY5gGgDzNf2Kfr3BEpEJFgBEe3BU/2rYtNlxvamLK0uetxqIsKii5N+O600FsMqkvbow/Z0S9VtcBUC0J1WpbY49r4qPJttEBC9qSD7dMD68NZ3RBrqaV2P7oVsfhuCoFJq90FARPppLL4k+iHcAiPYkognPuRCCaJItno8Dp3LwT7+G8eGt6EqcrECyOyjucBznYg7+RB/GOwBEfahdGTtWHb0PwKg+XyT4LTp2zszm0+dmrt452kn0TBDPGSfQIeroYKhT4kCLAcCDtEG8qHiyUxxp8xLyhoqszuZ99C9csWnwIKfoDhXM2MvLNqrKef3tZEUiW1gAEO3FRS+3lBbkOVco8EUAh+3+z10AnoTi5w1VJQ8EGO9DaiLbD4KGpgn0JAUqAYwHUGzUmSAKxX8E8oqKPgEJPd5QPnij1cA+VTfGzhLo1yE4AcB/Z/q/JsCvu3q8n9x1ZFlrkPmIshkLAKIk1bywYZBXEC6Orhq8dfkMSQSdBwCmL1O3bGL0FBHnPIWeDOAjab7kagCPQeTehvLif2XLrfXpy9QdXrFzeLwjFsvmuzFE2YQFAFEOmtPcVulp4itQuQDA6EBCCNaq4p5QQn61cHL41UAyEJExFgBEOaSmsfVUAP8LkROCzvI+qoqHxJEfNFSEbW3fS0RpxgKAKNupSs2qts/C0+8A+FjQcfbhn+LgB/XlJQ8GHYSI9o4FAFEW230y4QIAxwWdJSWiTzriXraovLgp6ChE1DsWAERZ6MIVmwYXuoOuFdEroXCDzmMoDsGCgvz4tfMPGxYLOgwRfRALAKIsUx2Jni6Kpdjb/gO5RPQdAb5aX1H6WNBRiOg9LACIskTd4xrasF/sGgiuRf/bpVMhmI+O8JUNU6Qn6DBExAKAKCvMbdx2YI+EfiPAx4POkk4CPJVIxL+0ZPKwt4POQjTQsQAgCtic5rZKz/MeRlDr+TNvkyPeGYsqyl4OOgjRQNbfbjMS5ZTqlW0neur9EwNn8AeAkZ46/6htbP1U0EGIBjIWAEQBqY3EPitu4iEoSoLOEoAhKvLn6sbWvR3mQ0RpxEcARAGobm79pHjyEIBQZq4obwP6KgT/EU9aIV7Ug7SJqoogrCLFoihTxeEQHAbgIGTm8yGujp6+uLz00Qxci4jehwUAUYZduGLT4CK36DUAI9N3FVmh0Meg8nhhYc8/Ul2HP3P1lmI3kf8JqJwo0FMATElTUADY2JHoOOzuySN3pvEaRLSHDH37IKL/GhQqmqmalsH/LVH5VQJy95Kq4lV+OrpjwvA2AA/t/h9qm6OHaQIXQHAhgEMsZH2/UUVu0UUAbrfcLxHtBecAEGWYKs6w3GVEFBeO3hI+pL4q/B2/g39v6stL1jRUldS1NIcPF9UvALLCZv9p+JkQ0T7wDgBRpgkOhlrp6S1VvXJMZcnv6kQ8Kz3uw/IZkgDwW6guq21qPVfF+Ql2zRfwRcT6XQUi2gfeASDKNEXCZw89EL2lI9ExcXFV6bJMDf4fIKL1VWW/R+fOiaLyAwB+d/fz+zMhohTxDgBRhimwRoByw+brPQdfWFJe+qzVUIYapoxuB/Cd2c3RPzke7gUw1qQfEf2P3WREtC+8A0CUYY7IHw2b/sn19Mgl5SVZMfi/35LykmddT48E8CeT9qqO6c+EiAyxACDKsO0ovgfA6yk2u310RfjchZNKW9KRyYaFk0pbRleEz4VgYYpN16Cz+NdpCUVEfeI+AEQBqGluPQqePAVg0L5eq4LrF1eU3JiBWNbURKLXQ1GXxEvb4ejxDeWlL6U7ExF9EO8AEAWgobz0JVE9EcC6vbwsJsCXcm3wB4CGipIbILgAQFufLxKsFdUTOfgTBYN3AIgCdNFaLczfEb1YHTlXVCYCGhLFOs/BQxKSBQ3jw1uDzujHxS+1Dc8r8OZCcTqAsYDEAW0W1T/kF5bcOf8w6Qo6IxERERERERERERERERERERERERERERERERERERERERERERERERERERERERERERERERERERERERERERERERERERERERERERERERERERERERERERERERERERERERERZT0JOgAR2dE196aJKjhZoUfB0cPhyXAI8ixeYicE7wjQ7EH+1R0PPV668NstFvsnogxiAUCUw/TKWwZ3dXbOVmA2oJUZvny3AA9C5PbC+dc+muFrE5FPLACIcpBOX+Z2jVx9iQLXQ7Ff0HkAPOPB+drg2655IeggRJQcFgBEOabj8rpxiDv3Ajgm6Cx7SAC4pXA/71qpq4sHHYaI9o4FAFEO6bj0uyeIePcrUBZ0lr34e2F3/uek4epo0EGIqG8sAIhyROe8m05V1fsBFAWdZV8E8lJHKHFK2U/rWoPOQkS9c4IOQET7tvOy705R1fuQA4M/ACj0qMK4/FHr6vKDzkJEvWMBQJTlWi6vK3XgLQMwJOgsqZETurbKzUGnIKLesQAgynKFcfenAA4OOocJhVzecdlNJwWdg4g+jAUAURZrv/TGYwH9StA5fBBAb9Ppy9yggxDRB7EAIMpiIrgeuT9Zt6Jj/1XnBR2CiD6IBQBRluq6rG4CgNOCzmGDAJcHnYGIPogFAFGW8tS5MOgM9sjUzq/ddFjQKYjoPSwAiLKUiJwRdAarVE8POgIRvYcFAFEW0pqbSxQ6KegcVilOCDoCEb2HBQBRFurI656AfvbvU4HyoDMQ0Xv61QcMUT8yNugAaTAu6ABE9B4WAERZSIBw0BnSoIhbAxNlDxYARFlIIAVBZ0iL9qL++fciykEsAIiIiAYgFgBEREQDEAsAIiKiAYgFABER0QDEAoCIiGgAYgFAREQ0ALEAICIiGoBYABAREQ1ALACIiIgGIBYAREREAxALACIiogGIBQAREdEAxAKAiIhoAGIBQERENACxACAiIhqAWAAQERENQCwAiIiIBiAJOgCRJTJz3lWTHOiJqlIpkMMVeqACQwTICzpcqkKQgjxgUNA5bOuA1wqIBp0jGQr0CLBDIG958F51BBHEvSeWLLy1cdcfE+U2FgCU02bP+5+pqs6FgE4HMDzoPNT/KbAZguXqOXffefsPngs6D5EpFgCUi2TWvKvOguJ/ARwTdBga0F4B5PtLb7v5d+BdAcoxLAAop8ycd9VkeFggguOCzkL0Pi8o9JI7bvvRC0EHIUoWCwDKCdOnT3fDIw6pg+BqAKGg8xD1Ii6Q70Xfff2m5cuXJ4IOQ7QvLAAo683++nf210RiGYATgs5CtE+Kxz3HOf/O+T/YEnQUor1hAUBZ7aLLrx7nxvVhAIcHnYUoBW/Ak9OWLrj5taCDEPWFBQBlrdmXXXmwwv0ngNFBZyFKlQDvxEPyibt+evO6oLMQ9YYFAGWl3bf9/wng0KCzEPnwH0+cT/BxAGUj7gRIWaeurs7xEolfg4M/5b7DXdXl06dPd4MOQrQnFgCUdd7a0nGDACcHnYPIBoWeWLL/R64NOgfRnvgIgLLKRZddVeUCL4FL/ah/iatgyh3zf7gi6CBE/5VzH7IXrdXCgvbYSVCd7EGGANgonvy9YVJ4ddDZyDdxofWA5Nz7kmgfQgLchl1LWbljYI6rWRmbAEdPUWCkA93hQV7pGRx+8q6DpTPobKnIqTsANU2x2YDeBGDknn+mgkdCcZm3cHL41QCikQWzLvufcwD5Q9A5iNLFUe8zi2+/5S9B5yAzl6yIjY+HdL4oPtXLH28C5NqGyvCSjAczlBNzAOpUnZqmWD2gi9HL4A8AovhUIqTP1Ta3cbOYHKUi3wk6A1E6eeJcE3QGMjM7Ejs+EdLn+hj8AWAkoItrm2INdao5MbZmf0hVeac5djugNft+LUrU8+6b80r7mAwkI4tmz/ufqaL4WNA5iNLsmOq5V/N9nmNmr9h2gKP6eyhK9vVahVZvaGpbANWsv8Oe9QVATVP0FlHMSaHJfhqKX5+2QJQWCvlK0BmIMkEdvTDoDJQax3WvB7Bf0g1Ea6sjsVvTl8iOrC4AapuiN0Dkm6m2U+iXLlqrhenIRPbV1dU5UJwXdA6iTFBgOnJs/tVANm+NFgDyhVTbCfCNmsZoXRoiWZO1BUBtJPYNBa4zbD441BatsBqI0ubNbR1VAIYHnYMoQ0ZWX3pVedAhKDkdHdFKAEOMGguur2mKXmE3kT1ZWQDURlrPU9Vb/PQhIZTZykPp5UBPDDoDUSZ5jk4LOgMlx8JYcmt1U+vnrYSxLOsKgNqVsWMV+CX8ZlPdaicRpZuqVAadgSiTRME7lLnC/1jiiODu2c3RqVbyWJRVBcDsFa0Hq6N/gEqRr44EUekojViKRek3PugARJmkKnzP54gxm0ubALT66kSlyPHw51mRaFadb5I1BcAlK1vLnJA8BGB/350p7myYIj3+U1GGcNkmDSzC93yuqJsmcRH8wkJX+7mKP1+ysjVrHk9nRQFQp+rERX4FtfFNUN5GnnzPfz+UKQoUB52BKMP4ns8hGpLvAvK2ha4mJFy5O1s2CsqKEBuaY9eK4AwLXbV5nndOw/gwn//nEAEGBZ2BKKPUcFY5BaJhfHgrHO+zAGK+O1Oc+U5zLCt2hAy8AKhtbP0UAP9HZYp2OOqdvWRS6Yv+U1GGBf4+JMoo4Xs+1zSUl76kKqcD2OG3L1FcXx2Jnm4hli+BvglnNbeMVZHfQOH67KpbRM5bVFX2hI1cREREe1pcFX5aHT0XgN9T/xxR3HPJytZDbOQyDhHUhWte0DzXc34HYJjPrnpEZEZ9ecmDNnIRERH1ZXF56aNw5IsA4j67Kos78puaFzTPRi4Twd0BKGqrAzDFbzei+rX6ivAf/QciIiLat4by8P2qUuu3HwGORmHM/yNwQ4EUAHOaYh8H9CrfHYl8v76qdJGFSERERElbXBW+A5CbLXT1v9Ur2wLZDTXjBUDNC9tLPOiv/D/3l+Wjy4sDq5yIiGhga6go/o4o7vHZjSOud+e8NdvCVkKlcuFMXxBF7nwA4/x0ocC/ugcXf6VOxLMTioiIKEUi2jUkPBvA0776URzc1RX6uZ1QyctoAVAbiX4aCr9nYb+bCIVm3HWw+J2FSURE5MtdB0unp+7nAGzw2dVXqxtjZ9nIlKyMFQA1L2wYpIrbfXbTI44z444Jg/3+oImIiKxYUjXkXfHkPADdfvoR0dvmRjZnbJOozN0BKBz8PQC+1jyK4Jv15cX/sJSIiIjIivpJ4WcAXO2zm7EJ5F9vI08yMlIA1Da2ToFgns9u7q2vKJlvJRAREZFlDZUlPwFkuZ8+VOXymubWo2xl2ptQui8wfZm6KrEGn7P+3+zu8S6xFmovqiMtRzjqnKvA4VAtVJE3RPXhhsqSRyCimchAA8PQ4cNxWEUl9h89CgVFg9DV0Y53N2zAa5EItm3ZkpZruiEXh5ZX4KBDDkG4dNehZLHWFrz5+htY0xyBl0ik5bpDR4zA4RUVGDHqvb/rpnc2YE2kCS1beXQHWaQqtU3RT3oin3ZED1aVDgj+43mJPyypGroy3Zd3Pa824chUAAcadhGCJ/V9s0ObAAAgAElEQVR1qseke6K7pLNzAKhtjM1S0SU+uvDEcaal+9b/patiw3oSXgMgn+vjJS/Dc7/aMGlIYzpzDESzLrtqJwbQgUCu4+KYk6dh4uQjIPLhf4KqilcbV+Lpxx6zOiDvP2YMTj7rLAwu7n210Y5YFH//ywPYvOEda9d0XBcfP+WTOLyqqs+/66pXXsazjz8Bz0tP8ZGldi697Yc8EMiy2Y3bJzni3gXgyF7+WBVynydau7SiZHs6c8xpbDnJE+cx+LjLriIXL64I32Uv1Yel9RHAzNVbilX0u/56kR+le/CfvWLbAT0JfXYvgz8AHAkn8XR1Y+y4dGah/k1EcPLZZ6P8iCN7HRD/+5oJkybjU+ecA3Hs/BMddcCBOHPG+X0O/gAwJFyCs84/HyMPOMDKNcVxcNq552L8pEl7/buWH3kUTjn77D5fQ5SM6sbYcY64/0Lvgz8AiEDPcxXPzl6xzc6bvA+LqsqeUMgtfvoQ1e+le0JgWguAUKLgagAjfXTxcosUp3VCxOzGHfs7odCjAA5N4uVDRPS+S1a2lqUzE/VflR/9KMYemsxbDTjw4EMw6WO+d8tGfn4+Tjn7bDjuvp/COa6Lkz9zNvLy8n1fd/LRx2DMuIOTeu3YQw9FxVEf9X1NGphmRaJDRfT3QFLHLB/muKFH5qxoG5HOTK1SfB2AV3x0MbpHC/zvmLsXaSsAZjW3jIXqN3x0Efc8rV5eIb6WVezNrEh0qOPEH4FifArNRsYd8fP3ogHKdVxMPmZqSm0mHz0VoZC/qToTjzwChYOSf8IyaPBgTDxisq9rhvJCmHT00Sm1OeKYY+A6fg8GpYHIhXwTwP4pNJngufq3dH6ZW14h3Z6nsyEwfrYlot+siWw/yGau90tbAeCq810AhabtRfSnSyaVvmgx0gdc8bQWhTw8AJWqVNsK8IV0ZKL+beRBB6KwqCilNvkFBRh9kL9//2MPPTzlNuMOS73N+40+aCzy81O7i1A4aBD2PzCtd2apv1I1+EzWyQlH/nLRWjUep/ZlyaTSF+HpT407UClSdW+yGOkD0lIAVK+KHQ71NUiua4931tnK8yGqsiMcW6qC1L6OvefQTG7WQP1D6dChRu1KDNv5uW7psMxfE/D/d6WBZ+bqLcUw32PmuPydbb+sU03f4/Cu9usAvGHaXAQX1KyMTbCY6P9Lz186oXXws8RQtfbuySN3Wsuzh5rm6A8F+KK/XgaxAKCU5OUXGLXLL/T3BSW/IPXr5hf4u2aewTUBoMDndWngKUwUDfbXg07fEGn7np00H9YwZXS7CC417kDhiug1FiP9f9YLgNpIW7kA55u2V+CPDVWlf7OZ6f1qmmJfhcq3fHbTtSUyOD0Ltanf4hz3fePPiFI1YvPgrfC5BS+gV1c3Rv2eU9On+oqSvwL4s2l7dfCF2Y1tEy1GApCOOwCed72PfrsdB34H5z5VR1qOgHgL/fajgn8snyEDatEyEVE2qpsmcQBP+e1HBItmN26fZCFSr9yEfAtAj1FjhSviXWs3keUCYHZj20QVnGfaXoHb6stL1tjM9F+XrGwtE3Xug0pqs7B6IR5+ZiMTERH5pyI2jtId5Ih730Uvt5Ra6OtDFk4OvwqYH4gnwPmXrIilsmJtn6wWAA706z763NrT46VttmPckTvh8zAiAIDgtw1VJQ/4T0RERDYsrgj/ye8e/Lsdmp8nSy300yvX0xsBbDNs7iRC+nWbeawVADWvxvaDqPEzFFX54V1HlrXayvN+tZHWGgE+a6Grp9Gxc6aFfoiIyKKORPvFAJ7235N8rrYxNst/Px+2cFJpCyA/Mu5A8dVLV8WG2cpjrQCQHp0D0/3cBVvynM5FtrK8X01j60dU5Vb/PckK19OzGqaMbvffFxER2XT35JE70Zk4QwS+949R0Z9Vr4r52wyjDx2J9tsBbDZsPqgn7tXaymKlAJge0XwFjE/rE8jNCypG7LCR5f2mL1MXIvcAKPbZVTPy8Mld1RsREWWjhilDoxqSTwNY7bOrwU5cfzF9mVrfmvLuySN3QnzcBRC5dHpE/e/VDUvHAZciNh3AaMPmmwZFi33PzO9NWXlsHoBjfHbzruN6Zy4aX8YzS8kyRVFiI4p7XkNRYhPyvRhc/fANpjFjojjhNPOnY2NiZvOjrjhtk/E1w6WPojj2/If+e0IGodsJoyM0Cm2hj6DDNf3YIOpdw/jw1tkrWs9wXHkGqW0P/AEqmFo2MXYpABsTDD+oY8dCFA6+EmZn5Ywe6sVmAPiV3xhWCgCBVhuv4BW59SfHSYeNHO83q7llLDz4nVTYrsBnFk0sW2cjExEA5GkbRnT+A/t1PocCb991ZXgQMMbPYck9Zl+Gwr7G5g6gZ+M+X9Xl7oet+cdgc9GJ6BHurUV2LJlcurYmEv0soI/7Wvkl+O7cxm1/WFA17C2L8dAwZXR7TWPsxxA1uhOgjs6GhQLA9yOA2uboYVA5wbB5GzriS/xm6I3rOQuR3MlQfVJg1uLKkg9/jSEyEJIEDmj/Mya3XIsx7Q8kNfj3dwWJrRjT8QAmt1yDMR0PIMTtNciShoqS5wCZ7bOb4riEbrMSaA/d8cRiAG1GjVVOmBWJJnes6F74LgDUk5kw38BracOUoVG/GfZU2xT7DIDT/fShwI8XV5bcaykSDXAHDu3G9IMfxOiOh+Bo2g64zFmOdmNM+wM475C/4oChZnulEO2poaLk1yK+9205uzYS/bSVQO9z15FlrSK4w7C5uJCL/WbwVQDUPa4hQL9q1FiQcD2d7+f6val5QfMUZrdV/kuAp8ZsCaf1HGYaOKoOaMdVZ25EaYFZsT+QlOVHcfWZG1B1ABfbkB3aEf4WfC4PVMX/7Rrv7HIS+nPz44K9r/qdpOirANg4vO10AKNM2gr0TwsnlRqfkNRnv0WxOQD8nJzUqpL48u7tJYl8qTqwA3NPeRf5IS/oKDkjP+Rh7invsgggKxqmSI/jehdA4Oduc/k7w2M11kLttnBS6RtQud+oscqYoZWx0/xc398jAFXzQ388WF/3P3P1lmJVXOerE8GlDRVD37QUiQawA4d2o/akzXDTd9Bov+U6QO20LXwcQFYsmli2Tjxc5qcPEdSl4xh4Ua/etK3nmR+8B/hYBXDRWi3UnbHPGDZfP7qy5FHTa/cl1JM3D4L9TNuLYll9ZcmvbWai3Oc6LkYeeABKhw1DKC+5fzIhSeD8Qx7mN38f8kMe5p0ew7LXT0U8yTud8Z44WrZtw7tvvY2ExwmF9J76qpJfVTfFPitQs/NqFMMTyL8UwA9t5hpVWfLYhkhsPYCxqbYV4Ox5a7Rg/mHSZXJt4wKgoL3tNAXCRo0Fd9aJWP1knBvZPCQOuRxq2IEg2hMKXWEzE+U2EUHlRz+KycdMRWFRaiuJDmj/M0o7+Mzfr7L8GM76aAfeKTozpXadHR145dlnEXnpRaiafihQf5Mnzry4Jk4BUGbSXiHfmrl6y4I7Jgy39o+7TsSraYzeBcH1Bs1LuzpjnwRgdD6NcQGgplUU4AGJO02v25e4l/91CIabthfIFXdMGLzBZqY9zY1sHhL3CmZCcCYEY6HwALymKve3OsW/Wl4hnB6eJVzHxSmf/SwO+shHUm4b8nZgZOdjaUg1MI3qeASbC1PbJ6CwqAhTp03DqAMPxGN/+hM83g3IGtMjml/qtX1ZRM8B8BEAjgDrVfCXjnjHnXdPHrkzXddeUDFkU3VT61UCaTDsYpibyLsMwA9s5kq43p2u51wLk8fygukwLACMnk7OW6MFAExv/z9u+xn7RWu1ECJfM+5A8Ex9efFd9hJ9WG1j66fiWvAadi1JORWK8QAmAviMiC4t09iq2StbP5rODJS8Y06eZjT4A8D+XU9yqZ9FjnZjRMeTRm3HHnoojjnpJLuByNjsla0fLdPYKhFdil1jSDmACQqcBsX8IrfotdpI6ynpzLC4omSJAv82bS8qX9s9BlqztLxsPSBmb3Lgs6ZbAxsVAN3d0U9AUWLSFqI2jmz8gLwdbV8CMMKwuQK4AiJpu09Y3dT6eRV5EHvflvIQx5F/1Da2TklXDkrO0OHDMXHyEYatFft1Pmc1DwHDus1/puVHHIGy/YynBpEl1U3RjzmO/AN7P5Z9pKr8tbax5XNpCyKiULkCMH5gPLKzu+2LNiMBANQzHRtLy7T14yYNTecnm22KIEg4cfcPhtfsnaqI413uo4ff7NoxKj3mNLacJJBfIbnHLYNUZPlFa7UwXXlo3w6rqICI2d5Wg+IbucNfGhQmtqIoYXY2gTgODquotJyIUnHRWi0U4HdI7sTYkIpzT/XKthPTlWdxVfhpCJaZthfFFVA13QCvVx5CvzfdE0DhGi0HNCoAFDC6mKg8uWhysekxiL2a3RydBpUqw+ZxqPpbNrgX1ZGWIzzHuR9AKgP6uPwdUd87PJG5/Uebb4I/JP6axST0fsU+frZ+fqfkX/7O2CwAB6XQpFBc74+1TS2T05VJHbnOfBMenVQTaT3JZp4lVUPeVZWnTNoKNDMFwJxX2sdAxaicVvV+Z9Jub0R97PUs+suGqtLXLcb5/+Y2bjtQ1HnI7FGJpO/2F+1TQZH5yTum31Jp3wrj5j/bwkHm58GQFeem3EJRonAemvNK+5g05MHiieH/qOIe8x4cv+cMfIhATcfIyXMjO1I+WTDlVQAJN36amO7973hGMxX7MisSHSpq8MbaJe4m8D2bef6r7nENbZDYr2F21CMgGG83kX1aU58Xdbdb2RTjSrSIGh8nYV9XRwdQZrRKCPme+bG9tHcFPn62ne3WDxyllMh4w0fuozTU85u6x/XkdOzO6glucoELoEh9S13Rcy9Z2Vq2cFJpi608jus94CUck8OHJKGJUwH8MpVGKRcA4ug0w6kTq2zP/neBLyG12+vvEdyXjq2IAWDDiLYboPiEjy7yrIWxoOuyugkJuKc70OMVqAAwrhPv5tuaBpsHQTbNmd+8cQNGGN4ydtVoPw5Kgqvmg/i7G9K6wpf2SY0/0xQ4fsOIthsA/K/FQACApRUlr9U0xX4P6PTUg0lR3MEXASywlWfRxLJ1NZHoq7tXiaUWBzgZKRYAqc8BUByXcptdHjZs1zfFl320/om1HO9T3dz6Sahe7acPUayzFMeYTl/mdlx245c6LrvhOQ/OKoH+WHfdxjscgNGSk1yxpqnJx+Yx3Pkvfcx+tqqK15ojlrNQitb5aq16dU1j66l2onyQ5+iPTdsKcIHNLLuZjpUpj80p3QGYG9kxMq6JvS3h6JOI3QKgJrL9ICiONmoseCYdM/9nrt5SLHH5BXyeseA5eMhSJCMdl910cidW3w5ggvlJz7lr25YteLVxJSZMStv8I8qgVStewfYtW4KO8QEuEOq87EZrh8t4ItsBebOoK/SqNFxt/Yh13xR/heAYHz04ELlz3pptE+cfNixmLReAJeUlz9ZEos9AcaxB82PnNm47cEHVsLesBfLwNwhM9rU59OKX2obfeVRx0m/2lAqAHs871nB1VPegaNh0k4NeCULnKQyXYagYH76wN248vw6A3+nGMQmJtVtKqdB5Py/o0JZbAJ0XxPWzydOPPYbBxcU48GCjepeyxJtvvIHn/v540DE+JAQpUMDa55CoAlB05nd7nZfduEKhD4rr3F34s2tftXUNPxzPWeC53jcB+Jk3NLqrK3QDAOtbtiukQaAmBYDEJfR5AD+1laXD63iiyC3qQeqPgiVUoMcC+FOyDVL6puo4ntHtf1G89JPjxOosHB9bEcc6Eu3WVyNUR9oqBPA7cKoCtQ3jwxlfSN5yeV1pJ1oeFciAH/wBwEsk8Lc//AHPP/Ukurv4XD/XdHd14t9PPoFH7v/DQDsUyFHgSED+VxO6uuOyGx9sn/fdqUGHWjS5eLMK5ljo6rLZjdsnWejnAzrj7csBGO3vr4DpWNSr3Vshv2LUOMVH9CndAVAVozeSCp4xadeXmldj+6FHDW8nyb3W95pWFUTaboP/yXvXL64suddGpFRozc0lXfHuv+/64KD/Us/Diuf+jciLL2HU2LEoLRuKwn0sETxgdAxh81WEtBc7ojGsWLX3HVw72nci1rIdG958E/G49Unjueh0Ue/THZfddFdnKPGNsp/WBbZMZXFFyT01keihUNT56CYk4i6A6vE2d2+9e/LInTVNrb8FUl9WLoKpsyLRoUsrSrbbyiOCp1XxsZTbqZfSXYzkCwBVQXOsymQFgIg+nXqrvfTXo59Sw+fsnni/tZkFAKqb2s4U0ZN8dnN7Q2XJTTbypELr6kKdW7vvBwf/PsXjcbz1+ut4C/veMuL401owmgVAWsRaW/D8U1afJA4UAujFhXHnpJ2X1p03+Pa6l4IK0lBRckNtJFqmiq+b9iHAx2sjbWfVA3+2mU0d/FY8pL62X+G6oqcAsLfNvafPQCT1n5HIJKhKssVR0oPonNWtY033/5eefKt3AEx3IgSwORopsf8JIv5m/UP1/tEVYfPDjHzo2ibfBXBSENcmoow62BHnyc5Lb/hUkCFGlYe/IcBf/PShUOtLAse8W/IEANPHr2bb4/fBRcL0S3Pp3KbtByT74qQLAE24Ztvtir6z6IhB7xi17ZvhG1juXz5DrD4QnB2JHS+A0UEMAADB2u64XlwnkvH1Yzsv++4UVbky09closAMUZE/dsy78figAtSJeHHBVwH42RfmmOrm1k/aygQAddMkrqJ/NGqsYjXL7lUFG03aJtxQ0mN18gWAemYFgEqjUbs+zF7RejAMZ9qL4EGbWQDAUf22j+Y9kpAL7jqyLJDncg682wCDHbCIKJcVQXF/x9frUtmb36qlFSXbxZMvADCfqOE51u8COJ6ajhEHzW3cdqDVMIDR2Kle8lv1J18AiNn+/xC1WgA4ITFZqgEAPfn5PVbXA9WsjE2An1s/gh/VTwpbfTySrM55N50K+FqXS0S5ayji8hutq/O1Z4kf9ZPCz0D1Z6btBXrSnOY2q8c85hd6jwLoMWnbIyHzO8G9UKDJqKGo/QJADLYm3NVOzP4SfTHbrAFQfcb2BhJw9csw3ylnHTp2ft9mnFR4qpcGdW0iygIix3VtcWuDjBByuusAedu0veep1Z345h82LKbA3pea9EHEcGzqgyNmY6emMFYnX/0JxpmEEfGs3gFQGO7+55gds9h3EBWo+TaQqvKNhimj221GSlbs0u8PE+D0IK5NRNlDRW/QK28ZHNT1F1SM2KHQb5n3oBfUqVq9iyEwPJLXMxyb+uKZjZ2C5MfqpH5wM1dvKQYw1CTMznjXf0za9aZO1ZFdh9GkzrO7F8Hs5rZPIIUf9B5eWVxZfL/FOCkJOYlpyLIDh4goEMO7ujpmBRlgTEV4GYBVhs0PfLs5epLFOBDAaAa+CiqhhrvT9qInr8d0F8fhF67YlFRRl1QBEOouGmcUQ7DF5qY7bzXHDgFgUq1qwrFbALiqXzBtK6o329zEIlUO1OqzKiLKXR4k0AKgTsRTxQ9M2zsQqzvxaR6egdnZxUMuaYwebCvHHROGtwHYZtBUBoUGj03mhUkVAOJ44wxCAJZPtXM8MVuJAKy3uUsTAKjgFMOmb2xfVWJ9K+JUKDAhyOsTUfYQ1UmdX7/JaI6XLWO2hn9jPBdAjT+Le7V7K3ajLJ7rmI5RvVOsN2onyY3ZSRUACjVcLiLrzNr10Zvjmb5Jrc5DmLl652iT85oBAIJf2t6LIGUqSW8UQUQDQEKtDqKpqpsmcQXuMWx++JxX2sfYzKNquATPdFzoi+g6oxwJtXgHABhhEkLEM6te+uI544zaid29CNxEfJphU02Yv8kt0uKgExBR9lDFR4POAJG7TZsm3J6T7UZR0yV442zmUNMv0Y4kNWYneQcAw4xCwDHayagvYvjDFVWrR2KKGu/7/8LSipLXbGYxxAmARPQeRw8POsLiiuII1HDgdfREm1lUHbMxQ40nhvfRnxiNoeolN2Ynt3xCsJ9JCKhaPdZWDZciep5j904E5AjDdo/ZzUFEZIGK4Zc8u8Qx/IxU4/lhvXIc47vXSd16Tz6H0SRAiNgsAJKsJj7UTMXqxDuo2RbAXii+zmoOwWFGzUR5lBkRZaMseSwoRru1ith99q6e8QR2ozFqL4zGUEnyrn2yxwEb7QEAw/C9mR7RfGhsiEFTddtLN9jKMTeyY2RcEyanIno9bve/bOWgzMjPz8fEI4/A2EMPR+nQocgvKNjr60fHfgYYL9+lvRk9dixmX7n3E1K7uzrRur0F69b8B6tefgU9Pd0ZSpfzAtsS+P2chPePhGOwlF5RMjeyY+SCiiGbbORocUreKtOYIvWdXkvqHtdQ3TQxP+PgfdRsGWDSj+2TfQRgdAxwyDML35vh2DkUZtvuRhumiNHezr3pSahppfn27nWdlCNGHXAgZsyuxseOPxEjRo3a5+BPwcsvKMSIUaNw9AknYkZ1NUYewAUvuWThpNIWAEZf2Hx8Nn/I8grpBmDyeS2bhu4w/cL8IZ4npmNoUmN2klWfGH3yqYZ2mLTrTQ/U9BmVtSIEAOCq0UYPKuDXwhyy/5gxOH36dBQOGhR0FDJUNGgQzpg+AyNGW10hRmknRp+V4tidgQ8xGzvijumk+Q/LR7fpGJrUmJ1kAaD5Jgm6vIS1+28Cz+T2P2DxMQQAiKdho3ZANsz+pyS4IRcnn3UWHJcnJec6x3Ux7awz+bvMLWtMGomYfTb32Z/p83cxHqs+pBsFpmOoxQJAkutsT3mevQdwIo7Z/VdRywfuGK6hV1hdEUHpc2h5BQYXW/0soQAVh0tw6MTyoGNQkkTNvnl7UGsDLwCoosOknQsx+sLcmzyNm46hSWVI6x2Awd1l1goADwmjDAqxOgtIxTEqAARq7UwESq+DDvlI0BHIsoM+wt9prvAcz2iulOOZfTb3RQzHjrh41iYLJbrbuwyb2nwEYFbRvP02rA2+jmEGgb0Mu3KY3QHwIJwAmCPCpaVBRyDL+DvNHWL4Walid4dThRoNvmI4Z643LW+MMisAkrxrnxVLP9JJPaOVA333Z3ZKFMRsBQMFQDWwgxopbfg7zRnKX1amJPsIwOhb9AEHJPccIhmeYQY4dre9VYjRrEyx/HyK0qctGg06AlkWa+XvNGcYfpMXtXuX1fSbvOmdg96UHbLR7G6CIqkMyT4CMBp8d+a3WCsAHLhGGcRw/kKf/anZ8ykVyZKdtmhf3nz99aAjkGX8neYSs2f5pnMH+qKGY0dIHWsFgJs/yPRxgsUCIMlqYk89Tp61wVfVM/uhqlheyG34fMr4QCXKtNdWRbAjxm+M/UVbtBWvrWoOOgYly3DredO5A332JygyaZcwvVvdix4JmY6hSWVI6x0A1+22NhlC4ZhuiGBtVyYAEMfsTeaoBH7aFiUnEU/g7395AF4iEXQU8ikRT+Bx/i5zipietaKI2cyhhmOHqvFY9SH56DItAGw+AjB7ppGHvMEm7Xrvy3hLRKvfvFUT64zaiWf1sApKr80b3sGDy5ehfSdXb+aq9p078dDvlmHzRmtHgVAGKNSoAFCRNywHMRo7bG6B341807lj9goAEbSaJLC5JWK8Y/A2mE3lLal5Qa1NBIyH8g3PiZbRNS9sNzpTgYKx6e23sWzpYvz7ySeweeMGdHd2Bh2J9qG7sxObN2zAv598AsuWLsamt98OOhKlYN6abWEARgc4OHH5j60c0yOaD7MTEnXk9iHWdp91HOMt8JN6hpnUaYAesN1kDZuT5JnEyWiYIj01TdE2AKlu0SbO4NYxgPHxjh9wx4TBG2qaojGTHFoQOh7AX2zk8MkLOkCuiHf3YOXzz2Pl888n9fpvnLYRYdsHghIAYMP69Vjy8C1Bx6A06uoMHQ8xWjLdumhy8WZbOcq86IEQMcph6yRAAIBgP8NFkUntPJvcHQDTrRktFgC7gmCjSbNET2is1RyAWaUpOs1yDlOWt0cmIvJPHD3JsKnVw9bEwTjDpkZjVJ85EoYTIpMcs5PdCMhoH3vH8gQ8KNaaNLN+SpRqo1EOyCet5jC3JegARER7UpVTzBrKKzZzeJ5j+qVxvdUcQJlJO3VsFgCGdwAAb5RZu75yiNEPVxRWJ+CJyBNmLXVSbaQtC04lsfesjIj6AbW7ZbqJ6lWxwwEcadJWRZ+wmUVMJ22LnUfN7/WnpmNoUvMQkj0N0Ogbo6fOOJN2fXK8dSbNVLTSZgxX44+btlXVC21mMSGKF4POQERZRBD4WSVOQi8wbKp54j5hM4uqmI0ZKuts5hAY3r32NKn5EEkVAGr6zRtq9dm7eo7pc54qmzkWVA17C8Brhs2/XPe4JjX5Ml1E8fcgr09EWeetIC8+fZm6CnzZsPmqBRVDNtnMI2I2ZojYnYsAlXFGOdzkxuykCgDXNaxqxHgiRR/deSsNm469dFXM8k58YjiI6gHv7Bf7ot0sqSlYcO0qAEbzGIio/xHB6iCvX1oemw7gEJO2qnjMZpaLX2obDtOliAnP7ueq6RiqzrpkXpZUAdDtdJpNbFAMv3DFJmubAY2uLFkLwGSXJemJ61RbOQBA1PudcVvBt+tUAz2JUSBLg7w+EWUPz9N/BnZxVRHIt807kHvthQFCBXoszE5v3bGwqsRoonpvdu+JYDKRXrWjbV0yL0xqELpjwvA2wGwiYFFeobUJeHUiHoCIUWNHjrOVAwC2ryr5O0TfMWw+8Z1IbIbNPKkqKCxcAq4GICKgqytPjec1+VXbHP08oJMMm7+xuLL4GZt5RHGsYbsmiFg7yrizK2Q6dm5pmDI6qaXeSX8LFdPZjZ5j9fm7Kv5t0k5Uj7eZY/kMSUBxj2l7gdwyN7I5sCOC5dZv7RSVG4K6PhFlBwEeKPtpndFur35duGLTYFX5sWl7BX5tc9Dd1afZWKGO2djUF0cMJyIi+eXySRcAnppufuNVGLXrgyMwqvYUONb2Vrwi7i/MW58GHuwAACAASURBVOsBCeRfby9N6go2j18EmP08iah/UMjtQV27yB10DYADDZtrKCG/spnnopdbSgU4xqStePq0zSyeGq5ek+TH6uSfQ4vZ5jdQsXoHIO54pj/kEAaFrO7EV19R3AzRJ03bq8rXa1fGjG432SDLZySgzheR5JpRIupnRP9ZdNu1gawKmhOJHg3oN4w7EDy4cHLY6qz7vDw5BUlukb+nhJf4l80sMFyJAE+SHquTLwA8x6wAELVaACwtL1tv+uxdPJxhMwsAwMP3fbTOU0fvnRWJ2t0xMQVFt1+zXsU5EwCPvSMaWBIe5GtBXHhWJDrUUywDYHrcLRyVH1iMtIvgdMOWby6ZPMzqyVOiMLoDoI42Jfva5B8BuAnTOwBj5rzSPsaobR9E5RGzKHqO7TX4DVWlfwOQ3EkxvTsopPjF9GXq2sqUqkHzr3lWRM6B2QoLIspFih8Mnn/dy5m+7PRl6oYUvwBgvE+MAE8tqgxb/cZd97iGROWzJm1V1GhM6svcxm0HAjDaBVDjcft3AJZOLH0TMDsW2MvrtjoD3wMeNmqoGL5xRPREm1kAAI74uQsABc4qm9gW2HM4ACicf+2jnnonArB7pjYRZaNHCzdPqAviwqUVsdsUOMtXJ+LrzmuvNu4XnQZgP5O2Yjom9SEB13TMbE3lTkTy34ZFVJqijQqkPkNS5VgAy1Nu14d8Vx7p8TQBRerfmtU5H7C7cUTDxOI/1jTHnoHh8hEAgGhtTSS6saGiJLCZ+YNvr3tJa24+qjOv+8cQXAyztbD9TigvhDFjxyFcWobCokF7fW249GFYPhCMdguXluFjx++9fu/saEe0ZTs2rF+PeNzeqaz9iQAvFoj3eVk+I5Hpa9dEotdDMcdnN4/VV5T81Uqg9/EcnG+0nkCQcBN41GYWdeQ4o2OARVek8vKUboer6LNQMVkiYfUOwO0Tw9tqmqLPmfSr0PMvXLHpirsnj7T3zFtENdIyV+A8D8MJJLvD1dVEomsaKkp+bS1biqTh6iiAWe2X3tggguuANMybyBHiOJh89DGYdPTRyM9P7lHlkNgzQA8LgHQYUhLG5AOPTuq13d3dWPHcc1j5/L+hnpfmZDnliYLu/HOk4epYpi9c2xj9sirqfHbT7akzz0ae97twxabBomK2N4vimYWTSlusBlKzMVPVeTaV16e0G516jumSsSNrXtiw969OKRKR+wybhgtDg6bbzAIAiyvKXhGB/9v4ikVzVrSNsBDJl0G3X/dc0W3XnSnqjQf0JgFeBJDxbwxBcVwXn/7c5zDlE59IevCn7JGfn4+PHX88Tjv3c3DcwKbXZBMVwY8Lu/c/dXeRn1GzG3fsr4KF/nvSny6pKl7lv58P2j0mFBs2Nx2LerV7f5jJRo0FKa2S+3/t3Xl4VOXZBvD7OTNZITMJCCqWKtaNTAJ1aVW0rba0bm1tVbRVsahkArh00U9tP5eotbVW64IsWXCpVitY10+tVsVqFbXIlkwQUUGFiELIzCSELHPO8/0BtogEMmeZM0nu33X5D+Z93hsIOc+c8573Te8OAIzXxN41IFcLBn0LwDN2Bu84S+phIHAzbNymFmgUwD1uZflMbm7q6s7O4OmwuXhjqyIraE0FkBWb9OTPqHoHwNUArtbL/lDU3tZ5kBj6ZVEpEUmvgexJSjAdan81sBeO+s547LXPKL9jkENfGjUK477zHfzruef8juIjaYDKBfl3XvmyXwkCYk5TwOHGZ7ImKJ3Xu5Nou8pbrgl2qGWmbG8LvyPdVv4xIppjJ4sEPWwA6soHfxJtSLwH4CtpxQJgAMfBxQagJjLkw2hD4k3Y2bRBceTkxsQRdaXhtG6X7Mr0/YcmK2OJ81TxFNK8u/I5ihOQJQ3AtuSmy1ux5Y0HJ289fMH5F15+Kxy8DuS2ocOH44ByV99eJR8dWD4GyxcvRvP6Abfz9QJV3FYwzHxYqqp8fQ5iAcc7WlAkMKHmOTMjw11/U2lyY+IIWLbXby1w+/U/QL9nc+DKmgNDG9IZkP7zasFr0PQbAFXY/U3tLMv9UHu7NgVM/BLAGS4nQnUk/PdoQ/ImQK9wUMbVY5QpPftHIhCx++PK1zOe+jl7f7Yigv0iZWh+ybft7jOhA8AqUcRg4BWY1tP5M6vsHlnuOnH4M00UN1SXlXjyFyiWXAJbK+4Ahf3t4HsiguNsjUN6n/4BGw2AQl4U6MR0xwEYHY1t/HJNZMiHNsbukAk8EAD+CCA/3bEqOCVaH/9KTXnxe27l+cyI9UVXNQ1LHg3gaJslut3MQ+kZvucI22NNyXMxCW3LlALbY3cf4eSpnPu6VNs7rRxbR85uL7x7Z6tUVWX5Kw/SbfciC9F/boyFr3M3zxaVjYn9VfXHNlfcbw6aeNDNPFOWt+xjmTjAzlhLkfaOjmk3AGYg8FwwlVLYePauGvg+gJnpjuvJnEh4Y0VD4lEBfmpjeFBErgRwrlt5PlN1rKQmL23+qREI/hvAHjZKuL7IhXovr8D+habLKHYxCW2r08GfrZO/Uy+oQItn/drdleNZTVcAsNPwNBnduWfNO108WYBsWbhSYON1cgBQeXTWmLCrf4eWZdjdH0EVgbQXuqR9T+2ugwY1Ab3fa3hbAjnNzridUdE622OBs8+PJfZzM89n6sYOXaNinQBB2ituRfVRLzJR73Ru7tVJmju0OZhdnzT7k80BO730Fh3tm11MQjak/zNNkLDUPGH2VwvtHru+UxXLkweI4Cy74y3ROW7m2ULtXiOX1JUP/iTdQTYfqln2dj0S/ebk+rbdbY3tQV1peL7tg4qAYEDhyapSYMurgYZl/Qhbns/1jmBVbn74bq8y0a6tW9tke2xbIO3lMdRLbTn2e/V1azy5hlAvdQ0KzQHwQRpDOtQ0Tq4rH7LMq0xGSq+3tZkcAECW1ZWGXV2TMC3WtgcgNh8bi61rsq0GwPa2h4pAAKkf2xrbYxhRtYzbHFQ4w8sT+WaXl7wkap0FoDfP6NotUydM3186vcpDu7Yy1gBVe88r24N7ojNgazdR2omOwDDbdwDUsvDu8pjLiSgd94ySDgUmAOjN7bWUqHVW7Zgi2yet7ko0ljxaBbb3g1HBrRBb+wb2qFvNU+w2JIaamWsANiL8ip1b2wAAMVzfhKd7cNEDANK+/bGVqKG3QtWzbW+ry0seEdHjsfM9YlcaYh1dN6b4La9yUO+0bNiA5UvsnpEi2JBr68UU2gknf6aNSxajZUNab0eRB2rLwv+God8AsLOF100ienx1eckjXuWoUjWg+ifY3+p8XX5ukauL/7YQu9fGlmajOO03AACbDcC8iHQBeMLOWIUec35ji6uvud0zSjqgOt1BicOjsdbzXQu0A9WR4hfQsWk/qE5TxdPYstAvBugjAvwMHaHI7EhJxk/moh17ff5L+OBde29RfZL/Lb4N4CJLcrG+4Ju2xn7w7kq88ZJnHyQpTTWlxYvQERqtIudC9TEAjQCWq+JpBS5Ax6b9qyPFrp7Vsr2PGxOTAXzNdgHR292+Sztlecs+ArX3TQ48sfWanDbb+9aLyjy19zqgEVBjElze6CZodN2eQt7PoRhmq4DozVOWtD/j1YITAKg5bEQ7gFlb/6MsZlkmnn/8MUQOORRfPfxw5Bf2fifrlDEY6wrGY6/2pzxMOHB8nP9ddEt6m8h1tLdjyRuvI7Zoke3HOeSNmsOkG1t2Yr0n03NPi7XtkVLzRgclmlOBbtdPblXTOBd2H8kbmGt3XtsNQG5e0XOdnckkgFDagxXnVqleXyXi2u5UMyPD2ypi8VsFNo/mVYStYOpWAPYOhKB+R1XR8NZCLF+8GLt/aS8UD90NObm9+yezWApw+ldCKMnN+Jkr/crGzhCeXF4IU3v3Kb67K4X4hg1Yt3YtLGvAHF1BvZRS604AJXbHC/SPdx00rNXFSKhSNZpiyUk2h8c3asj2SYS2G4Dp+0tnNJZ4AoqzbQzfu6khMR6Aqxt056Bregp5v4LNM50BnVARS5xVGwm7vrsT9V2mZaLpww/R9GF6e1h98k4IV5zUhtwgT6OzozMlmP50EdbGF/odhfqBivrEREBPtV1AsD6ALtc//Tc1JMZD5Ms2hz9u9/Y/4HDfUrXkIduDBZVO5t6RmZHhbRBnjxYEmOH2GgUamNZszEH1/GEwef1Pm2kB1fOHY208a46IoD5s8tL4KBHc6aSGKqq8OIvAybVQBfavwXDYAOy1oejv2PnK9p6JnDx5adz149ZGfBqaDSc76SnCAcu4P7rQ1mlMRJ9Tv6YQM1/YHV0pnhHQW50pwYwXdkfDGldPEKcBKrpQc4yg/AV2Hlf/V2yv9aEatzJ9Zuqy+L4QOdnWYNG18VjI0V10Rz+Vqo6VFCD32hqsCBgBudjJ/DtSdaykxMClDsscLQXJP7oSiAa8+jWFuPGpEWjpCvsdJeu1dIZw45MjePEn9+Qn/wS1fdofAECBS7Zc79yVEvmFg82I7nG6RbLjjyVi6F2wfcoDzo8u3Oj6T8Xq0vDTEDhagq2Kn1c2JOycMUD0BWs25uDh94/H2sKTYAlva2/PlDysLTgJ81adwNv+5JqKWOIsABc6LPNEbVnY3uZ3OzFpcUuxiO2zaNR04S0Kxw1AdWl4JURftjm8CAXByU4z7Igp1gUAHD2vUaAuGktwVxdyRUoDWFtwEpaW/BZrC05CB3cMREdgGNYUfB9Li6/H2sKTYKrND0NE24nGEocLtNZhmdagppw2EDuUmxOIAkjv/datFPLPOZGw4+Oebb8FsC2xpE4F37I1WPXSX76mM28dJ66e1jGntOSDivrElSJwsk1wIRSPT14aP7JubPEq18LRgNYtg7G28CSsLTwJBeY6FKXeRYG5DjlWHEHrizultiYSSMbjtufba297a1rXfpDO1u2fFyouRlH4izf3UkYhuqQYmwN7oC1nP0cH/BD1ZOqy+L6m4gnAwRnSAKC4cmb50I9civUfE5euGwToJbYLODgEb1uuNAAbjdDcEk3eBMDOUWh7tIdbpwL4kxtZthVfHrqzpDT5UwBOPsXvbgTkqeiK5DdrDgxxP1Fy1ebAHru8CC5uXIC3/vUv23NMvtTeUpu6Z+0vgzn06KNx8EjPjtgg6tG5i1qHmYb1FIDhTuqI4vWNy0Ouv/YHAAVG4TRA7eZriiM0z40crixNnheRLqja/oNS1V9Pi31q61bIzsw7XUyongXA6cYNo9GN56cui9veQIKIiLwVXbgxnJtnPQPgIIelNllB+ZnTRXY7MnHpukEQtb9QXXS6k3f/t+Xau0k5QWM2enfS047slrLyp7qVZVs15cXvqZNbLf+hY01D/i+6sInLk4mIskx0YVMh8gNPq+JQp7VE5ee1o0PvuJFre4WB/Ath/+7EJhPi2uuIrjUAM0aHmqFyn+0Copd59Qm7tqy4duvBE06Nk7xBd7tQh4iIXKT5g+8FMM6FSo9Ul4fmOK/zRefHEkMUcpnd8QLcOycS3uhWHnd3J1HcBsDuvme7mYZc5WacbQUU5wF432kdFZxeUZ/8vguRiIjIBZWx5MkCPc2FUu92datnJ8MGgGsADLE1WGDCcLSo/QtcbQBqxoTehsDJ4oQLKpYnD3At0DZmjSluUbFOhajztw0MdX0DIyIiskdVL3KhTLul5qn3HFxi/5WbnYguSx4Ehf1H3YqHqkvDK12M5PIdAAAC4zoI7C6cyBVTPduBrzZSskRUpjitI4pvTZjLF5aJiPy2ddv2bzqtI4rKuvIhy1yItEMqegsAe1vMC8yAKde5m8iDBqA6UtQIdXRAwQ8rGhLHuRZoO9Vl4T8DepPDMrnh0Zu4iwulhafS7xr/jChdwYJNQ2H3wvofcmN1efh+VwLtQGVj4kQRnOigxIOzxoZWuBZoK09OKBEDVQBs75ssQLUXrwV+piYSvgLAA05qGJ1JV8+Epv6vq7PT3rgOe+P+O2+HjTnTH7Otbtu/V2fz0kDU7vCEPpk3IlL0v+5k+aLowqZCtTDddgGBGUjJb12M9B+eNABbtgfGgw5K7G0i9xrXAm1PRAclQ5MhWGCzwjs1h42w+8ojDVCJjc22xsU3Ott/Kr6xxcYYZwuNW2yOj9v8M6KBa+sRve/ZGavAq12Dis6pEvHu0O78Qb8FsK/t8Yr7vfj0D3jUAGxhXulkwZ2q/CLaGD/EzUTbunWcbDaB7wOS/jMfddTc0AC17qM16Nic3j+Jrs4OfPyhs51IV69M/3VmO2O29fEHH6R9x6Nj82asW7PW0bw0QAn+amPQ0qClP7hnlHh226miIfE1CJwsGm8Pasqzt+M8awBqIkM+BMTJ9r5BWFK3dYGHJ+ZEwhstNb4HQTrdVRM6zVu9ykT9l2mZWPL662mNWfLGG0ilnJ1CunzxErRv2tTrr2/ftAmNS5c4mjOVSmHpm2+mNWbxggWwLNc3XqMBIGDqLQA+6fUAwQrDlO/NGlOc/u2xXpoQ01yB1No/7hcQ4GYvziL4jId3AIAgOm8E8LGDEgdLXuu1buXZkbrywZ9YqdR4AL05WanVMnBqzWFDEl5mov4rtugtfPBu7w7x+uj9VahfuNDxnN3dXXjxySdgmbu+uJopEy8++QRSXd2O51327zfx0arebb2xeuVKNC5e5HhOGphmjSluUZVT0LsTYFdaqdT42WOLPvUyU4kmrgd0rO0Comvbzc1OF6zvlKcNwMzI8DZVudJJDTX0ssrGVseveOxM3diha0zB4YDMQ88Lkf+tYhxZVxpO7yMc0TZUFS888QRiixZBdcffaqqK5UuW4PnHHoVa7jyaXLdmDf7vob+iNdlz79qaiOOph/6KdWvWuDKnWhb+8dhjWL50ac+/V8tCw1tv4cUnn+zxa4h6o7Y89BqswDgoeuokVRRzA5YeXjd2qDvf5D2INrQcC4j9/f4BiMpv7hu7R+9v3dmZw8viAFClanzcmHzT4f7MH3Z1W2O92qBhW9FlbeUImKdAcQAgeSLWKhN4pq40PB8i/AnlgfMvvHwTgAF3xkLJbrth/0gZdh8xAvmFhehob8cnTU14tzGGjevXezKnEQhgv9Gl+PJX9kW4ZMuGZImWjfjwvffxXmMjTI9uwQ8dNgz7RcowfM89kV9YiM2bNuHTpiasbIyhZcOAPGRz05w7/+DZm04DmqpUNiTGK3CcGNjXUumA4G0xA4/WjBlc7/X058cSQwIqSwH9kt0aCry5VyR0pKeLE5GBBgAAJi+LH2oE5A0nz0IgeKgmEv6Ji7EoSwzUBoAGNDYA/ZGqRGOt8wA91UGVlIr1tdpIibOFOL3g6SOAz9SNKX5LFbc7KqI4o6I+8XOXIhEREbmqoqH1EocXfwD6p0xc/IEMNQAAIB2broLDw3hEcLPX6wGIiIjSVVGfHCeiv3NY5oPNZofrW/72JGMNQM1hI9pFcIHDMkG1rLlTlrTv5UooIiIih6bF2vYQ0YfhdEti1ajXC/+2lbEGAACqI+G/K/Bnh2V2N4PdD01apfmuhCIiIrJp0irNT8F8BMCeTuoIcE9NefFzLsXqlYw2AAAgHebFAFY7qgEclbup9c9VqhnPT0REBABQldxNyTlQHOmojmBVbl4q42vcMn4BrTlsSMKAnO3gyOCtdEJTY+v17qQiIiJKTzSWuBHAmQ7LpMSUs6bvPzTpRqZ0+PIJenZZ6FVA/uC4kOpvovXxqS5EIiIi6rXK+uT5gFzmuJDihuoxIbsH0zni3y30zUVVAJzvcypyR2UsebLjOkRERL1QWd9yiorOdlpHFK+P2BDy5Kjf3vCtAag5TLpNwzoNgNNtwIKqOreyMXGiG7mIiIh6Ulkf/66K8QCAoMNSG01Lz6w6Vpyd9uWAr4vo5pSWfKCG/tT5egDkqurDFctav+VKMCIiou1U1CfHqcijAPIclrJEcFbd2OJVbuSyy/dV9LWlxc8DcL6YT6VADOuJaGP8EOepKMM83e+aKOsov+f7msnL4oeK6DMABjkupnp1dST8d+epnPG9AQCAEaWh6yF4yoVSIVjyWHRFcjcXalGGKNDudwaijJJeHVtLWeLcRa3DjAAeBxByodyTNWVhpzsGuiIrGoAqEStg6kQAb7tQbiS69X9dqEMZIkDGX38h8lmr3wGo94I51lVQcWMH2saubuucbDlZNisaAACYNaa4xTL1RACfOC4mODe6UJ1tyUiZ1OR3AKKMUqz1OwL1TnSh5ohgogulNpiCkzNxrH1vZU0DAAB1Y4tXWQZ+BNHNjgopwpIfL3UpFnlvhd8BiDJJRPk931cUJsoBFDus0m4ITpoTCb/rRiS3ZFUDAAB1peHXBTgHDheGWYYMcykSeUyBer8zEGWUSoPfEah3xMRQhyUsVTl7diT8piuBXJR1DQAAVEeKHxaR/3FSI6Da7FYe8pZhmv/0OwNRJpmGMd/vDNRrLY5GK35ZWx561KUsrsrKBgAAqiOhPwlg91zkZDOKY64GIs/Uzbq5XoFP/c5BlCEf3z3998v9DkG9k5sfrof9RZtX15SH73Azj5uytgEAgOqy8DUK/CntgSoPzotIlweRyBsKwTy/QxBlyFwAWbEKnHZt+v7SCehDaQ8U/WNNWTirD6zL6gYAAGojoUuhUt3rAYL1CASu9TASeUAt4z6/MxBlghjC7/U+xkjlViGNbetVMLumNHy5d4nckfUNAER0RFnRNIHU9uKr44CcUlM66GPPc5Gr7p7x+zdU8ZrfOYg89nrdHTe+5XcISs/srxautUROgSCx66+Wmr1KQxdky7v+O5P9DQC2bBRUXRaKispkAD1d3J8RA1+viYT+lcls5CJR50dEE2UxUSOrbwlTz+oioVfUkK8L8GwPX9KkIufWlIUqq0T6xFbP4neAdF20UvM6OxLfghhfVWiRoboWAXmhujS80u9s5Jicf+FlrwBylN9BiDzw8pw7/3AM+Py/z5u6NHmgaVjfVpERopIUWEs2GuF/9rW1Z06PM8y4LQsy8NzW/6h/URjBKbDMRQC4kyP1JykxzYvAi3+/MGtsaAX6wQZmAb8DEG1r8RuvfHrI4UcHAfBoZ+o/FNfOmfnHuX7HINpWn1gDQAPLyKEF1wrwvN85iFyhmJ/89P0b/I5BtL0+twaABoZo9JLdUrnBVwQ4yO8sRA68m5Myj5o9+2ZudEVZh3cAKCvV1NyywQrKCQKemkZ91hpoajwv/pSt2ABQ1rrnthtXp4JyNLTvL7ahAee9gFjHzJlxywd+ByHqCRsAymr33HbjasswvgEFD0+hvkHwQqArdUTN9D++53cUop3hWwCU9Za8+a/2/fYZcX9eUQkAHAU2rpSduqG4buRuBRW33PL7TX6HIdoVLgKkPmXy1EvHaMCYyc2CKLvIKyb0gnvu/EO930mIeosNAPVJ5110xXhRvR7AEX5noQFtMSC/n3PnjQ+Dm/xQH8MGgPq0cy/49eGG6NmATgCwu995aEBYJ8A8seS+2pk3/tvvMER2sQGg/kImXXh5mQEcA2iZQA4AMBLAYAC5/kbrLZUCGMV+p3BbN9Cegnb6ncOGLgBtAD6CYoUKYmIE5s+543cx8NM+9QNsAIiyhF72h6KO9s6k3zncJioX5s+4aobfOYjo87iamoiIaABiA0BERDQAsQEgIiIagNgAEBERDUBsAIiIiAYgNgBEREQDEBsAIiKiAYgNABER0QDEBoCIiGgAYgNAREQ0ALEBICIiGoDYABAREQ1AbACIiIgGIDYAREREAxAbACIiogGIDQAREdEAxAaAiIhoAGIDQJQtCjd3+h3BCypWh98ZiOiL2AAQZQmpquoC0O8ulipGwu8MRPRFbACIssuHfgdwm6qs9jsDEX0RGwCiLCJAzO8MLjMLC3NW+B2CiL6IDQBRFrEgr/idwVWCRXLT5a1+xyCiL2IDQJRFjACe9juDy57xOwAR7RgbAKIskn/7VSsAvOF3DpeoiNzvdwgi2jE2AERZRkVv9zuDGxR4Kv+Oq1b6nYOIdowNAFGWKVg3ei6ARr9zOGSphev8DkFEPWMDQJRlZN7pJgy9EID6ncU2wV2DZl79b79jEFHP2AAQZaGCO66Zr4rpfuew6b38ztxL/Q5BRDvHBoAoSxUMs/4H0Jf9zpEWRatpWadJzRXc/Y8oy7EBIMpSUlXV1RHUkwWyyO8svbQZ0B8Pnlm1xO8gRLRr4ncAIto5vagq1KHGowC+7XeWnWhWw/hh4R1XvuZ3ECLqHd4BIMpyMr0qmb+bdRwUvwNg+p1nB15VyziYF3+ivoV3AIj6kE0XX3eoYeodEBnndxYAn4rI1XlDzVqpqrL8DkNE6WEDQNQHbb7g2u+IyIUKnAggN5NzK7DUgMzJ6zLnSE1VeybnJiL3sAEg6sPiU39fkmt0HWMAR6lIqYrsJaqDXZyiC8B6QN4RxVuA+UL+jKp3XKxPRERERERERERERERERERERERERERERERERERERERERERERERERERERERERERERERERERERERERERERERERERERERERERERERERERERERERERERERERERERERERES0K+J3AKKB7JevacGmUPI8AD+G6EFQCSjwoSieMSxj5uyxRZ/6ndGJyfVtuwfEnKbACQBGQtSEJctV8Gj3oNBd94ySDr8zEg1UbACIfFLRkPiaAA8D+HIPX9Kmgim1kfBfMpnLLZX1ibNVMAvA4B6+5ANRPa26vHhhJnMR0RaG3wGIBqLJy+KHCvASer74A8BgUdwfjSWuyVAs10RjiWtUcB96vvgDwN4q8s9oY/yQTOUiov/iHQCiDJsQ09wSJN+GYlSvBwlmjSgNXVglYnkYzbEJczVQHEneKYopaQx7Fx2h0prDpNuzYET0BbwDQJRhQ6zWiWld/AFAMbUplnxs6rJ4iUexHLtgeXJo8ejkE2le/AFgP+S3nulJKCLqERsAogxT0ZNtDv2Bacji36F3gAAAE95JREFUaCxxuKuBXDClIXlUt6mLRXCinfEilt0/EyKyiQ0AUebt52Ds3lC8Ulmf/F10YVOha4lsOu/t9UUVDYlbLOhLAEbaraMqB7iXioh6gw0AUeYFHI7PUdFfI3/Q8oqG+KlQzfhanipVIxpLnBk0c5YL8CsAQYcl+bOIKMP4j44owwRY5VKpLwvk4WisdXFFQ+InE+aq08Zil6rma7CyIXFOUywZg+IvUNnLlcKC912pQ0S95rRrJ6J0CZ6C4jj3CupYAR4sKU3eEK1P3KdBeaB2dOgd9+oDUxpbyyzLnNgkibNcu+hvy9KnXK9JRDvF1wCJMmzi0nWDCgIF7wLYw7NJFItg6Asi8lK30fXKXQcNa01n+NRl8ZJUwPiGAf22KsYDiHiUFACa0LFp/5rDRrR7OAcRbYcNAJEPKhrj48WSZ5CZu3AK4CMAK1Ww0rCkBWIlLEgrABjQIoVRDEUJBAcAehCAPTOQCwBSluhxdZHiFzM0HxFtxQaAyCeVseTJCutBqBT4ncUnnap6Tm158Vy/gxANRGwAiHxUsaz1WxKwHoci7HeWDGsT1VOqy4v/4XcQooGKDQCRz7YssNNnAP2S31kyZJ2KdUJtpGSJ30GIBjK+Bkjks9mlRQ2W2X0kVF/2O4vnVF82UjmH8eJP5D82AERZoG7s0DUty8PfhuJaCEy/83hAIbgDneHxs79auNbvMETERwBEWacyFv+OAvd68r69H0TXioVz+byfKLvwDgBRlqmOFL+Aze0HQHEtgE6/8ziQguCOvFyzlBd/ouzDOwBEWaxiefIAw9Q7FG7uHJgR/7LUvKCufMgyv4MQ0Y6xASDqAyobEyfCwhUKfMPvLDsjitctyA21ZUVPQUT9zkNEPWMDQNSHRGPJo9XSX4vgBGTVv1+ZL2LdUB0pfsHvJETUO1n0A4SIemvq0uSBqYCeLYKzoBjlU4yPROV+E3JfXXnRcp8yEJFNbACIemla7NPBKRlUNOKTwvVVx0rK7zwAAFWZEmsdZ6qeIYLxAEZ7Op9gBYAXoda8EZHif1aJWJ7O10tV8zW4ZrdNQzuttrb7xu6xye88RH0BGwCinTg/lhgSgFwC1Z8A2HfrL3cBeEUgt1eXhZ70Md4XTIu17dGt5jGicoyKHizAAQCKbZaLK/AOROsNS17qzgm+eNdBg5rczOtURSz5Q1G9GMA3AeRs/eV3ATwYsPTWWWOKW/xLR5Td2AAQ9WBKQ/IoC/oIgOE9f5XM22y2n5vNnzqnLG0dngrqgQJ8RaCDAR2sahQb0CIAsCCtIlYckDaFtAUsc3UKOcvrygd/4nf2nkxcum5QfqDwHoGetpMvWyeWnFI9JrQgY8GI+hA2AEQ7UBlrLVW1FgAI9eLL/20Kjp8TCW/0OhcBkxa3FOfmGE8BGNeLL2+DFRhXM2Zwvde5iPoabgREtD1VUbXuR+8u/gDwtYDi+XMXtQ7zMhZteSSTk2M8i95d/AFgsATMu6HKDztE22EDQLSdiljyewAOTnPYwTm51j8nL437tSK/35u6LL5vAHhNgK+nM04Vh1YsT3zHq1xEfRUbAKLtCHC8zaGjjYAsmBJLpHWBol2b3Jg4wjRkARQH2hkvpu2/U6J+iw0A0Rfolx0M3t1SzK9sSPzUtTgDXEUscZah+iJ2uhhzF8TYx7VARP0EGwCi7Yl0O6xQqMAD0YZk9YSY5rqSaQCqmq/BiobkjaK4HyoFzqppXz5UicgTbACItmfhbXcKabRYky9OWd6yjzv1Bo7JS+OjmoYnXxbo5S6VdOnvlKj/YANAtB0R61EArhxkI8BRlmUsqYglznKj3kBQ2ZA4xwjIEiiOdKmkGobxqEu1iPoNvhpDtAPRhuTDgJ7qZk2FPJwjxkUzI4PXuVm3vzjv7U0jgqnu6YCc4mZdUcytLg+f4WZNov6AdwCIdsAUjWLLlrKuEehpKTUbow3JyXwv/b+qVI1oLF4ZTKVibl/8Aaw0VKe4XJOoX+APIaIeRBs37Qkr9Q8AEQ/KL7REflUXCb3iQe0+Y0os8XULuM3F2/3/JVgRtFLfnVk+9CPXaxP1A2wAiHZicn3b7oZYzwE6xoPyCsFcNeTq2tGhdzyon7WmLk0eaAZwPbbs5e/BzyFZapjyvdljiz51vzZR/8AGgGgXtpwIiP/z5FPqFikAfzEFv50TCbv62CHbVDYm9lfFVQDOhCLgxRwKvBq09Ac8CZBo59gAEPXCRSs1r7MzeReAMz2cxhLgaYHcOLss9KqH82Tc5GXxQ42A/ByKnwIIejeT/G1QsmjireNks3dzEPUPbACIektVKmKtv3fx3fSeCRYopKYj1T4vm48a3pmJS9cNyg8WTjAsrVTBEd7PKDfWRIp+AxFXXuEk6u/YABClqaI+MVEEswEUZmC6JKBz1cBD8Ybw/Hmni5mBOW2rmq/Bj3dLHGsZOENUTgdQlIFp20VRWV0evj8DcxH1G2wAiGyobGgZqzD+BuArGZx2A6CPieoz2qkv1Bw2JJHBuXs0aXFLcU6OfAeCE0TlRwCGZnD6dy01T60rH7Isg3MS9QtsAIhsmrS4pTgvV+5SlR/7MH0KwOui8goECzQHC2oODG3IxMTnLmodFszTI0VxpEK/IcDh8PS5fk/0ka5uPf+eg0vimZ+bqO9jA0DkULQhORnQWwEM9jnKh6poENEGVWOFGtbqHBOrza7wRzWHpXfA0YSY5pZYiZFiYB/LMvYWsQ4EpBxb9kRwclqiG9pE5RfV5aE5Pucg6tPYABC5oLIxsT9M/Dkzi91sSULQLMBGtXQTIF1qQMX67GeA5oohg1QxFFtu4Wfi2X36BAtM4Jz+/rokUSawASBySZWq8XFjYrKq3IxsvYD2Xe0CvW5jY/jmbF8ISdRXsAGgfmHSKs3P2ZQsh6FhATaiPVyf7m1vt0yrbx6ZkuAMAD/wY/7+RoHH1UxdWDd26Bo/5o8u1ByjIF5migzVFFoKCsIN0/eXTj+yELmJDQD1aZOXNn9JgoEqUfkJgEH/+R+CBIB7uzuN3959SNF6P7JVxhLHq+IWAKV+zN8PxBS4pLYs/Kwfk5+7qHVYTp51JYCfQRHe5n+1AfKAkQpeN/urhWv9yEbkBjYA1GdNjiW/Yag+ip2+diZrLMv6Ud2Y4rcyFmwbVfM1uHZYMiqCKiiG+ZGhzxGsh6XXjNgQrq06VlJ+RIg2xg+BZTwO6Jd6/CLBekBOqYmE/pXBaESuYQNAfVJ0WfIgBPT17T6Z9SQphvGD6tKilz0P1oNpsU8Hp5B7IVQuAbCbXzmy3AaB3hyQrhkzI8Pb/ApR2dj6TbWsJwGEevHlcQ3I4QPtMCfqH9gAUJ8UrU/8A4LxaQxph+qPa8qLn/MsVC+c9/b6ooCZc6Go/BzA7n5mySLrIHp7EF13+nnhB4CKhsRxAjyCNHZ5FODZ6rLw8R7GIvIEGwDqcybXt442xGq0MbQThvykpjT0mOuh0nTRSs3r6mo9U2H9EirlfufxhWi9wLg1N7fogWxYVFdRn/yxiD4IIC/dsRqQA3kXgPoaNgDU51Q0JKYJMMPm8BQgU2vKQnWuhrJLVSY3Jo41VM4HcAqAfL8jeawDwCOW6Jy60vD8bDm4p6IhXiGQmbC7o6HqtJry4lnupiLylg/bdxI5tqeDsUFAa6MNya9kxclxIloHvAjgxanL4iWmIWdCcBYUR6D/NOgKYIECf+nuth7Iqq173TrhUcTJ9ySRL9gAUJ9jQNvU8bVRr4g2Jkd1rdJJ94ySDleCOTRrTHELttzZmLF1L4FTFThNBEdAEfA7X1oEJhQLVPGwWqm/+fUO/85MWqX5eQ3Je1VwuvNq4uvaBSI7+ssnDBpAti7U+rtL5V5LBYMT7jpoUJNL9Vx3fiwxxLB0vBg4DirfBTDS70w9+FBF/yHAswETz29taLLSeW9vGhE0Uw9DcaQrBVWP83uBKVG62ABQn3PRSs3r7EyugrNHAdtaZ4mcXhcJveJSPU9Nq28e2S3Bo6AYJ4KvY8sBPZk+iKhVFDE18KZY+pppma9m46f8Hdn6mt9DAPZwqWRTi4RGzYtIl0v1iDKCDQD1SRX1yfNE1M3T4FIA/qemLHybizUzQ1Wm1idGWQGjXBUHQnQfKPYBsDcEe/Vyr4QdiQNoUsVqQ7BaVVaLgXcM06qfVR5e5fv6CRsqY8lfqeof4OLjTxE5rzoSututekSZwgaA+qxoQ7Ia0Ki7VWVewLIqs/n2dbqq5mtw3ZC2ISkDQ6FmIQJGoYiVZ5gQKwAFAFWjE6bVDgm0By00N68Y3NyfDt2ZuixekjKMGoGe5mZdgdRWl4Vc/h4kygw2ANR3qUq0MXkbFBe7XPkjQ61zZpeXvORyXfJBtKHlWMC4F26vnVCpHlFWNK1KxHK1LlGGsAGgvk1VKhsTN6nKpW5XhmB6C0L/w2e7fVPVfA027Za8Egau9OAtijtrIqGL++JjEKLPsAGgfiEaS1wDRZUHpZeIakV1efFCD2qTRyrr44epSC2Ar7peXFBVEwlf63pdogxjA0D9RrQh8QsAtwAwXC0sMFVxe4e5+er7xu6xydXa5KqJS9cNKggUXA/BxR586rdU8ava8vDtLtcl8gUbAOpXKhrip4rgPqgUeFB+tQqm1UbCz3hQmxyqbEycqBZmANjHg/LtqnJ2bXnoUQ9qE/mCDQD1O1Niia9biifg1Wl7iueNgPHL2aVFDZ7Up7RULE8eICZ+C+gEj6bYYEB+NLss9KpH9Yl8wQaA+qXJS+OjjIA8BWC0R1N0A3J3d5dcefchRes9moN2YuurfZcL9BewcYJfL60UAydVl4ZXelSfyDdsAKjfmrS4pTgvx7hPge97OE0zIDdtNttncH1AZkyLfTrY1NwLFHIZgCEeTvVkV7d1TlYdXkTkIjYA1L+pSmUscZmK3ODxgToboJiRl5/60/T9hyY9nGfAii5sKtS8QRUiuALubeO7I6qQm/aKFP2G7/hTf8YGgAaErQcI/QXAUI+n+gQqt6AzVVNz2JCEx3MNCJMWtxTn5gSigF4CYLjH020Q1TOry4v/4fE8RL5jA0ADxpTlLftYpvFXAIdnYLpWCO4OmHr7rDHF72dgvn5n6rL4vmZAfg7FecjAYUeieF0N84yayJAPvZ6LKBuwAaABpWq+BpuGJa+G4DcePxLYQmBC9XEoqkeUhZ/nLeWdq1I1mhoS4yGohMjJGfk7AlJQ3DBiQ+i3VcdKKgPzEWUFNgA0IEVjicOhuB/AfhmbVHStqnF/0LJqeFfg8yYvbf5SIBA4S0UqoRiVwak/sEQm9pWjoIncxAaABqyLVjaHujqDtyswKcNTWwp5WdSaGzSCj86MDF6X4fmzwrRY2x7dap4CyASBfhNu7+C4CwLc0x3suviug4a1ZnJeomzBBoAGvK0LBGcC2DfjkwtMVXlFoA8bAeup2aNLVmc8QwZNWd6yj2UZ3wf0NKh8Axm+6G/1PlSn1pQXP+fD3ERZgw0AEYBfvqYFm4qSl0PwawC5PkZ5H5DnIdbzebnms339lcLowqZCLSwcB8sYb4iOV8WhPsZJQTAziM7/nRkZ3uZjDqKswAaAaBtTYi0HW2pUA/ia31kAdANYIoLXYOmCAMzXZpYP/cjvUDszrb55pInAODVkHBRHAjgYQNDvXAq8CbEqayMlS/zOQpQt2AAQbadK1WiKtU6EWDdAZS+/82xnnQrqoag3RBpgWfXdOd0rMv0c+7y31xfldOccCMMot1TLICgXRTm83aAnfaJrReU3e0ZC9/MNDKLPYwNA1IOJS9cNKgwUXKbApQAK/c6zC81QfADR1QpZDZWPDQPNFtAswEbLkuYcNTu7AhLPNVUl0NX92W3wabFPB6uZm9MVEMk1tbhbAnmGoUNly6ZJQywLQ0V0BKB7Q2UfCPaBt1vwuqFdgJvbzc03cYtmoh1jA0C0C9Pqm0emJHg9BGdn6L10sktgQnF/UFNXZfvjEiK/sQEg6qUtJwwaVwB6HrLguTZ9jgXI3wImrpo1NrTC7zBEfQEbAKI0TV0W39c0jMshej7vCPjOAuRvsHB1zZjQ236HIepL2AAQ2VSxPHmAWPoLKH6G7F8j0N+0Q3CvCG6tLg2v9DsMUV/EBoDIoejCjWHNC0wSwSUARvqdp5/7BIrZOUGZPmN0qNnvMER9GRsAIpdMiGluMZITBFoBlW+C/77cohB9WSG1cYTmzYtIl9+BiPoD/oAi8sC0+uaRpgTOVMhUAHv7naeP+lghf7ZE6+ZEwu/6HYaov2EDQOShCXM1MKQseZxl4QwBfgig2O9MWS6uwBOGgYc2NoSenXe6mH4HIuqv2AAQZciEuRooibQeCegEAD+FYpjfmbJEHIInRWXeRil6lrf4iTKDDQCRDybENLdE40cpAscJ9DgAYzFw/j0qgCWAPAuYz7VI8au86BNl3kD5gUOU1abF2vYw1fyeAt8GcCSAA/zO5CrBClEssBQvKgLP1ZUP/sTvSEQDHRsAoix07qLWYcE8PRKKcaLWkRAZg76zfiAO1WUqxgIIXkt1yoK7Dyla73coIvo8NgBEfcS0+uaR3UawTFTKIVquigME2AfAcJ8ifQJgNQTvQKVBRJcFrFSMe/AT9Q1sAIj6uOjCpkIpKNpHLWuUCvYWwTC1MNQAhqhgKPCf/wAgDMAAkANg8NZfawPQDcACkNj6a80AmkXRrAaaAWxUxXrDwGqosbowMXjVreNkc8Z+k0RERERERERERERERERERERERERERERERERERERERERERERERET9yf8Dkdp+SxCzrxgAAAAASUVORK5CYII=;" vertex="1" parent="1">
          <mxGeometry x="255" y="190" width="82" height="82" as="geometry" />
        </mxCell>
        <mxCell id="9bJqxLlEq6opLeguGgHp-8" value="Any Digital Appliance" style="text;strokeColor=none;align=center;fillColor=none;html=1;verticalAlign=middle;whiteSpace=wrap;rounded=0;" vertex="1" parent="1">
          <mxGeometry x="570" y="150" width="120" height="30" as="geometry" />
        </mxCell>
        <mxCell id="9bJqxLlEq6opLeguGgHp-9" value="Our Integrated System" style="text;strokeColor=none;align=center;fillColor=none;html=1;verticalAlign=middle;whiteSpace=wrap;rounded=0;" vertex="1" parent="1">
          <mxGeometry x="100" y="150" width="130" height="30" as="geometry" />
        </mxCell>
        <mxCell id="9bJqxLlEq6opLeguGgHp-11" value="" style="curved=1;endArrow=classic;html=1;rounded=0;exitX=0.25;exitY=1;exitDx=0;exitDy=0;" edge="1" parent="1" source="9bJqxLlEq6opLeguGgHp-9" target="9bJqxLlEq6opLeguGgHp-2">
          <mxGeometry width="50" height="50" relative="1" as="geometry">
            <mxPoint x="190" y="220" as="sourcePoint" />
            <mxPoint x="240" y="170" as="targetPoint" />
            <Array as="points">
              <mxPoint x="240" y="220" />
              <mxPoint x="190" y="170" />
            </Array>
          </mxGeometry>
        </mxCell>
        <mxCell id="9bJqxLlEq6opLeguGgHp-12" value="" style="curved=1;endArrow=classic;html=1;rounded=0;entryX=0.997;entryY=0.428;entryDx=0;entryDy=0;entryPerimeter=0;" edge="1" parent="1" source="9bJqxLlEq6opLeguGgHp-8" target="9bJqxLlEq6opLeguGgHp-1">
          <mxGeometry width="50" height="50" relative="1" as="geometry">
            <mxPoint x="610" y="242" as="sourcePoint" />
            <mxPoint x="660" y="192" as="targetPoint" />
            <Array as="points">
              <mxPoint x="660" y="242" />
              <mxPoint x="610" y="192" />
            </Array>
          </mxGeometry>
        </mxCell>
        <mxCell id="9bJqxLlEq6opLeguGgHp-13" value="the system sends data over wifi to the backend server for analysis and storage" style="text;strokeColor=none;align=center;fillColor=none;html=1;verticalAlign=middle;whiteSpace=wrap;rounded=0;" vertex="1" parent="1">
          <mxGeometry x="190" y="370" width="460" height="30" as="geometry" />
        </mxCell>
        <mxCell id="9bJqxLlEq6opLeguGgHp-14" value="" style="curved=1;endArrow=classic;html=1;rounded=0;" edge="1" parent="1" source="9bJqxLlEq6opLeguGgHp-13" target="9bJqxLlEq6opLeguGgHp-3">
          <mxGeometry width="50" height="50" relative="1" as="geometry">
            <mxPoint x="370" y="540" as="sourcePoint" />
            <mxPoint x="420" y="500" as="targetPoint" />
            <Array as="points">
              <mxPoint x="420" y="550" />
              <mxPoint x="370" y="500" />
            </Array>
          </mxGeometry>
        </mxCell>
        <mxCell id="9bJqxLlEq6opLeguGgHp-15" value="&lt;div&gt;data&lt;/div&gt;" style="text;strokeColor=none;align=center;fillColor=none;html=1;verticalAlign=middle;whiteSpace=wrap;rounded=0;" vertex="1" parent="1">
          <mxGeometry x="331" y="536" width="60" height="30" as="geometry" />
        </mxCell>
        <mxCell id="9bJqxLlEq6opLeguGgHp-16" value="&lt;div&gt;data&lt;/div&gt;" style="text;strokeColor=none;align=center;fillColor=none;html=1;verticalAlign=middle;whiteSpace=wrap;rounded=0;" vertex="1" parent="1">
          <mxGeometry x="360" y="530" width="60" height="30" as="geometry" />
        </mxCell>
        <mxCell id="9bJqxLlEq6opLeguGgHp-19" value="&lt;div&gt;data&lt;/div&gt;" style="text;strokeColor=none;align=center;fillColor=none;html=1;verticalAlign=middle;whiteSpace=wrap;rounded=0;" vertex="1" parent="1">
          <mxGeometry x="320" y="550" width="60" height="30" as="geometry" />
        </mxCell>
        <mxCell id="9bJqxLlEq6opLeguGgHp-23" value="" style="shape=image;verticalLabelPosition=bottom;labelBackgroundColor=default;verticalAlign=top;aspect=fixed;imageAspect=0;image=data:image/png,iVBORw0KGgoAAAANSUhEUgAAAgAAAAIACAYAAAD0eNT6AAAABHNCSVQICAgIfAhkiAAAAAlwSFlzAAAOxAAADsQBlSsOGwAAABl0RVh0U29mdHdhcmUAd3d3Lmlua3NjYXBlLm9yZ5vuPBoAACAASURBVHic7N15fJTlvf//1yzZl0kIuwQwJKgssrihWAWBWpe69LhrtR76tdpdbWvP9yy/b89pa61H7TltT61H21N3pcetilikgrK5gCIJOwgJELJOtplMJrP8/rgTCMiS5L4n90zu9/PxmEdmhtzX/blF5n7PdV/3dYGIiIiIiIiIiIiIiIiIiIiIiIiIiIiIiIiIiIiIiIiIiIiIiIiIiIiIiIiIiIiIiIiIiIiIiIiIiIiIiIiIiIgcyWV3AV2GAXOBWcBpwMld7+UC6TbWJSLOFgbagDpgF7AZWAss73pPJGXZGQAKgRuAW4FzbK5FRKQv4sAa4CngeaDJ3nJE+s6Ok+5I4B7gLoxv+CIiqawV+C/gYaDW5lpEes0zgPvyAt8BXgIuQl37IjI4ZADnA98EosD7QMzWikR6YaB6AEowusnOGqD9iYjY5X2My5u7ba5D5LjcA7CPy4D16OQvIs5wDsZn3pfsLkTkeBJ9CeAW4DkgO8H7ERFJJlkYvQD7gI9trkXkqBIZAG4D/pTgfYiIJCs3cAXG7YOf2lyLyOckagzA5cDLGAP/REScrBO4EnjT7kJEekpEABiHcf1rSALaFhFJRU3ATOAzuwsR6Wb1IEAvsAid/EVEeirAGA+lS6KSNKz+n/H7wO0WtykiMhiMAeqBD+wuRASsvQQwEtgG5FnYpojIYNIMlKF1BCQJWHkJ4F508hcROR4fRk+piO2s6gEoBPagACAiciItwFiM3gAR21jVA3ADOvmLiPRGPnCd3UWIWNUDsAaYZUVDvuKplMxZyIjJ88kZNh5vRo4VzYqIQ8TjUF4D4Yj5tmLhABH/boI73qblg8cJ15Sbb9SwEviCVY2J9IcVAWAYUGO2Lbc3gxm3PMKEed/A5RqIJQpEZLCqa4PKJosbjUVpfv9R6l+/h3g0bLo1jM/ORvOFifSPFWfauVhw8r/wR29SOv8unfxFxLSibHBb/VHi9uA791uM/vs3cXlMr2buxvjsFLGNFf9ETHf9z/zqrxg+Sf8WRMQabjf4MhLTdtaEixh62UNWNGXJZVOR/rIiAJxqZmNf8VRKLrrDgjJERA7JS1AAAPDNuov0EZPNNmPqs1PELCsCQJmZjUvmLFS3v4hYLst0L/1xuD3kn7XQbCumPjtFzLLizFtoZuORUxZYUIKIyOEyEjzrfnaZ6c8urZkitrIiAJi6/z+7aKwFJYiIHM6b4I5Fb8E4s03kW1GHSH9Z8U/EVEebNzPXghJERA7nSsRi5z24M0zPfZbAUQoiJ6aL7yIiIg6kACAiIuJACgAiIiIOpAAgIiLiQAoAIiIiDqQAICIi4kAKACIiIg7ktbsAqzVXbWTX8sepqVhGoG43kY6ArfV4M3LIGTaeEZPnUzL36/jGTEno/px2/C/ckuCbvSWhrn86bmp7s3//pb8wt3+RVDZoAkCss4OPn7mbnct+Tzwes7ucgyIdAZr3VtC8t4LtS39D6bw7mX7zw7i91k5U7vTjFxGRvhkUASDW2cGKBy+hdtM7dpdyXPFYlO1Lf0vLvs1c8KM3LTsJOv34RUSk7wbFGID1T38/6U9+PdVs+hufPHOvZe05/fhFRKTvUj4ANFdtZNffHrO7jD7bsex3NO+tMN2O049fRET6J+UDwK7ljyfVNe/eiseifLbiCdPtOP34RUSkf1I+ABwof9vuEvrtwMal5ttw+PGLiEj/pHwACDZU2l1CvwXq95huw+nHLyIi/ZPyASASarO7hH6LhFotaMPZxy8iIv2T8gFARERE+k4BQERExIEUAERERBxIAUBERMSBFABEREQcSAFARETEgRQAREREHGhQrAZoRvwfrjO1vev+Fy2qxCaLl5nb/tJ51tTRT2bXk5fUdqK//3V7B6gQkRSkHgAREREHUgAQERFxIAUAERERB1IAEBERcSAFABEREQdSABAREXEgBQAREREHUgAQERFxIAUAERERB1IAEBERcSAFABEREQdSABAREXEgBQAREREHUgAQERFxIAUAERERB/LaXYDdXPe/aHcJ9rp0nt0VmPLCLS67SxATrn86bmp7s3//pb8wt3+RVKYeABEREQdSABAREXEgBQAREREHUgAQERFxIAUAERERB1IAEBERcSAFABEREQdK+QDgzcyzu4R+S8vKN92G049fRET6J+UDQHZRsd0l9Ft20VgL2nD28YuISP+kfAAYOWWB3SX028ipXzTfhsOPX0RE+iflA0DJ3K/jcnvsLqPPXG4PJXMWmm7H6ccvIiL9k/IBwDdmCqXz7rS7jD4rW/At8k+aZLodpx+/iIj0T8oHAIDpNz/MiMmps6jNiCnzmXbTv1vWntOPX0RE+m5QBAC3N50LfriYsgXfTurucJfbw8SLv8sFP1yM25NmWbtOP34REem7QbMcsNubzszbfs2EeXfy2YonOLBxKYH63URCbbbW5c3MJWfoeEZO/SIlcxYmrNvb6ccvIiJ9Y8Vi6qYW1Da7HriIyLGs25vY9nf82PRHqBWfwSL9MiguAYiIiEjfKACIiIg4kAKAiIiIAykAiIiIOJACgIiIiAMpAIiIiDiQAoCIiIgDWREAwmY2joRaLShBRORw8QRPMRLraDHbRIcVdYj0lxUBwNS/gmBDlQUliIgcLpLgABBpqjTbhOkEIWKGFQHAb2bjA+VLLShBRORwHZHEth/cbvqzq8GKOkT6y4oAsMPMxrveeZx4LGpBGSIih7Sbujh5ArEoLR88brYVU5+dImZZEQC2mNm4eW85O5Y9akEZIiKHtCTwCnvTmt8Srt1kthlTn50iZlkRANaYbeCTZ+6hpmKZBaWIiEAsBi2hxLQd3PE2DYt/YEVTpj87RcywYvH4OuAHmFjVKh6LUrn2edJzChly8hm4XLo7UUT6rz4ITe0WNxqL0rT6N9Quuo14tNN0a8C3AKurFOk1q5aiXAWcZ0VDvjGTOfnChYycuoCcoePxZuZa0ayIOEQsDpsOQIcFQ4ti4TYi/t0Et/2Vlg+fsKLbv9u7wIVWNSbSH1YFgDuB31nUlojIYPd/ANOjCEXMsCoAFACVQJ5F7YmIDFbNwFg0D4DYzKqL7U2oB0BEpDd+jU7+kgSs6gEAGA5sB/ItbFNEZDDxAxOBersLEbHiLoBuAYwRrV+ysE0RkcHkXowBgCK2s7IHAIxAsRKYZXG7IiKpbjVwAaCpTyUpWB0AAIqBj4GiBLQtIpKK/MBMYLfNdYgclIgZd6qAWwDTM2WIiAwCYeB6dPKXJGPlGICedmD8z34ViellEBFJBTHgNuBVuwsROVKiAgDApxhB4MsJ3o+ISDKKAHcAT9pdiMjRDMS380uAZ4DCAdiXiEgyaARuAJbaXYjIsQxU9/x44HngnAHan4iIXVYDN2LMjiqStAZq2b3dGIsF3QY0DNA+RUQGUhPwfYxb/XTyl6Q3kNfm48AG4I8Y18amARkDuH8RkURoBh4CbgbewfisE0l6do7Q9wHXAbdi9A4MVG+EiIhZMYxl0J8EXkRz+0sKSpZb9IYAc4BzgVOBUmAoxuqC6iUQEbt0YJzcGzDuatoCrAGWYwz0E0lZyRIAzDDV3fbnReZuz9258zNT29/34++b2p7B8Xco9tG/HxGHUre7iIiIAykAiIiIOJACgIiIiAMpAIiIiDiQAoCIiIgDKQCIiIg4kAKAiIiIAykAiIiIOJACgIiIiAMpAIiIiDiQAoCIiIgDKQCIiIg4kAKAiIiIAykAiIiIOJACgIiIiAMly1rYw4C5wCzgNODkrvdygXQb6xIRZwsCDUA9UAN8DKzserTYWJeIaXYGgELgBuBW4BybaxER6YsosBZ4DHgRCNlbjkjf2XHSHQncA9yF8Q1fRCSVNQBPAL8A/DbXItJrngHclxf4DvAScBHq2heRwSEbmA38H6AD+BCI21qRSC8MVA9ACfA8cNYA7U9ExC6rgBuBKrsLETmegQgAlwHPAL4B2JeISDI4AFyNMU5AJCkl+jbA24BX0MlfRJxlJPAORk+ASFJKZA/AbcAfE7wPEZFkFsXoCfiL3YWIHClRJ+fLgZcxBv6JiDhZEGOekw/sLkSkp0QEgBJgPer2FxHpVgfMBPbaXYhIN6vHAHgxRvvr5C8icsgw4Ld2FyHSk9UB4LvoVj8RkaO5ArjG7iJEull5CWAksA3Is7BNEZHB5AAwEWi1uxARK3sA7kUnfxGR4xkJ3G53ESJgXQ9AIbAHBQARkRPZAZwCxOwuRJzNqh6AG9DJX0SkN0oxbpUWsZVVPQBrgFlWNOQrnkrJnIWMmDyfnGHj8WbkWNGsiDhEPA7lNRCOGK9jHS3Egn6i7Y3EQs3Eo2HjZ2c78UiIaKgZImFiHa3EOgPEI2Fi7X7i0Q4667cTrtsKccu/rIcwVhHs6Hrt7/F+e9fzZoxegk6greu9NozxA92Ppq6f3e+3dG3XCoStLloGFysCwDCgxmxbbm8GM255hAnzvoHLlegZikUk1cSinXS01NLeVE2o6QAdrXWEA37j0dZIOOCns+t1e5ufjrZGou1+iEXtLt0uHRjBoBloxJiLoL7Ho7brvYau193PxSGsmKlvLhac/C/80ZsMnzTXgnJEJJVEw+0E6nfT0VxL0L/POMn79xNqPkCouYZ2/346WmoJtdTaXWqqyeh6FGFM0NYbUQ4PCFVdj/09nu/DCAuS4qwIAKa7/md+9Vc6+YsMUtFwO4G6zwjU7SZQv4dA/e6u57sJ1u3WiT25eIARXY/Jx/m9EMashvswQkH3890Ygxw/49DlDUlSVgSAU81s7CueSslFd1hQhojYJRJqpaV6Ky37NtO6fwutNTsIdp3sQ801dpcn1svEGMxYeow/jwGVGGHgyMdOjAAhNrMiAJSZ2bhkzkJd8xdJEcHGvbTu39J1st9Ea/VWWqu3EmzUFPdyGDcwvusx/4g/i2H0GHQHggpgI/ApGoMwoKwIAIVmNh45ZYEFJYiIlSIdAZoqN+DfvR7/7o9prvyUluqtREKawE5McwNjux4XHfFn+zkUBjZ2PTahOxoSwooAkGtm4+yiYgtKEJH+Cgf8+Pd8TNPujw+e8FsPbCPu3NHzYp/RXY+Le7wXAbZyKBh8hLG0cvOAVzfIWHEbYNzMxtc/bWpzEemDWGcHjbs+pG7bShp3fYR/93oCdZ/ZXZZIX8WALcDaHo9NGHcxSC8pAIgMYpFQKw073qdu20rqt62ifutKop0afyWDUhuwAVgHrATexZijRo5BAUBkEAk2VFG39T3qt62kbutKWvZWELd+FjuRVLEVeLvr8Q66bHAYBQCRFBbtDFG/dSU1FW9zoPxt/J+ts7skkWQVBT7hUCB4D4fPVaAAIJJi2mp3Ub3hTQ5seJOaTe8QDQftLkkkFbUBKzDCwFKM2xEdxYq7AEQkgWLRTmo3vUP1hjep3vAmrdVb7S5JZDDIBS7reoAxe+FrwKsYvQMRm+oaMOoBEElC8ViUui3vsmfNc+z98H8JtzXaXZKIkzQCbwCLgLcYpPMQKACIJJHmvRXsWfUUu997kvamarvLERFjyeW/YISBJRjLMw8Kgy4ANFdtZNfyx6mpWEagbjeRjoCl7feVNyOHnGHjGTF5PiVzv45vzJSE7s/px5+Kmio/pXLNc1SufZ5A3W67yxlUcrLAlwtZGVCQZ7zOyoD8HMjNNp7n5UBe1/PcbOPPsjONR242pPW4UOr1GL/fU27WEb/jNdrrqTUIkR4dyp0RaGs/4ncCEIke8TtBCIaMR0vAeN3eYbTXGjCetwWNP+v+vaZW4/3mNggcsQ8xrQZ4CvgjxrwDKW3QBIBYZwcfP3M3O5f9Pmlve3K5PZTOu5PpNz+M25tuadtOP/5UEwm1smf1s+z82+/x7/7Y7nJSQnYmFPlgaAEMKzR+FhUceq/I1+N9HwwthExn/29GKAz1fmhohvomqOvxvKEZGpoOvd/9XlDTRPTWWowg8DzQYnMt/TIoAkCss4MVD15C7aZ3TLc1EEZMuogLfvSmZSdBpx9/Kmmq3MCOt/+LPauf07z6PRT54KThUDwCxowwno8dCScNM56PG2UEAEm8QDtUHoB9tbCv7tDzvTVQVWM8b9Dd9D21An8CfosxO2HKGBQB4KM/3sXOZY+abmcglS34NjNv+7UlbTn9+JNePE71p0vY+ubD1JS/bXc1thhWCGVjoawYSouNk3tx1wm+eKTR/S6po73DCAb766DqgPF8RxVsr4LtlUaPggPFMW4p/BXwJibPjQMh5QNAc9VG3vq/05O22/tYXG4PF/98A74xk0214/TjT2bxaIQ9q59h8+u/pGVfyl8uPKEh+V0n+bGHTvZlY40TfkGe3dXJQGpq7QoElUYo2Lbn0OvGlOws77MNwC8wBg4m7foEKT8PwK7lj6fcyQ+M27w+W/EE029+2FQ7Tj/+ZBSPRti96mk2vfpT2mp22l2O5Xy5cHqZ8Zg2EaaWwsRxRgAQASPwnTnJeBypscUIBJ9uP/zR3DbwdSbQNOA54KfAz4EnScJ5BVI+ABxI4S7VAxuXmm/D4cefVOJxKtc+z8ZF/0Rb7S67qzHN7Ta+vU8rO3TCP70Mxo+2uzJJZUPyYdZU49HT7v1GENiwDT7ZZjzftRdiSd+RflwTgCeAHwL/BLxEEl0aSPkAEGyotLuEfgvU7zHdhtOPP1nUb1/NJ0/fQ8PO9+0upd9KTjr0wXz2FOObvQbeyUAZP9p4XHHhoffagrB+K6zdCB+Uw4eboDI1p8c4Ffgz8AFwD7DK3nIMKR8AIqHU7TeyYhS404/fbqHmA3z89D1Urn0e4kkT7E8oJ8vonj2364Q/63QYMcTuqkQOl5sNF8wwHtEYhDqNuxE+qICPKuCjTfDJ1pS6dfFsjGmG/wTcB9TaWUzKBwARW8Tj7FrxBBue+xHhQPIPeR5aAHPPhAvPgPOmGd/uvR67qxLpPY8bcjJgYjGMHwVXXACdUWPypE274MMKWL0BVn4Mjcl9m6IL+BpwJfAPwGPYdFlAAUCkj4INVbz/6K3Ubl5udynHlJ0J50+H+efAvLNh+kTjmr5IqnO5ICPNeHT3CkybaIxPWXgVxGJQvhPeXWc81m40bltMQoXAo8DVwN8D+we6AAUAkT7Y+9HLfPj415NucR6P2+jSn3e2cdI/73TIcN48S+Iw3b0C2RnGrIftXUv2dA9Y/fYNEO40xg+sWAfvrTcuGUST68api4GNwJ0Ytw0OGAUAkV6IRTv55Ol72L70N3aXclBmunGyv2qOMXBqWKHdFYnYwwVkpUNmGnREINhh9AQApKfB+TOMBxjTHy9ZDYtXGqGgIznW+RsCvAg8jDE2YEBuGVQAEDmBcFsjq//zWmo2/c3uUijIg8vON076XzrPGCQlIgaXywgBmWlGj0Cw4/O3ERYVwM2XGo9AO/ztAyMMLF2bFHMR3ANMB64H6hO9MwUAkeNoq9nJuw9eQuuB7bbV4MuFa+fDdV+EOWccvvKciBxdZroxTqA9bIwBONoou5ws+PKFxqMzAqs+gVeXw2vLjRUWbXIRxm2CC4CE3uetjxKRY2g9sJ3lP7+IYOPeAd+3223confr5XDzJcYHlYj0jctljA/ISINAhzEe4FjSvDDnTOPxi+/CW6vhhb8aPQSRgZ/MdyLG7YILgG2J2onjA0D8H64ztb3r/hctqsQmi5eZ2/7SedbUkWRaq7fyzs8vot0/sANzTzsZbrscbrnUWAVPRMzzuCE/Czq8EAideHbBjHS4Yo7xqK6HRUvhhbeMKYwH0FhgBXA+kJA5xR0fAESOFGqpZcUvvzRgJ3+PG66cA3ffbNy6JyKJkZEGaR5oC0G4l8PsRg2F795oPN7fCI8ugjdXDdidBCMxVhacDdRZ3bgCgEgP0c4QKx+5ikDd7oTvKy/buG/5OzcY0/CKSOK53ZCfbYwNCPRxBsFzphqPPdXw2P/Cs28a0xUnWBnwGjAHsHRGA00NItLDx099n4btaxK6jzEj4KG7oepNeORenfxF7JCVDr5sY5xAX40bBT/7Nmx4EX5yF4weZn19R5iFsbywpRQARLrUlL/NznceS1j7hfnwi+/AtpfhnluM0f0iYp80rxEC+jtLZn4OfPM6+PBZeOheY8rtBPoecKmVDSoAiGAsqvTBY7cnZEGfrAy472uw81XjZ1aG5bsQkX7yerpCQD96Arqle407dtY8aYwVyEzMv3EX8HvAsnuCFABEgG1LfpWQ2/2u/yJsf8X45l+Yb3nzImIBj9v4Nt+fywE9FeTBP98BHzwNV821prYjjMHoCbCEAoA4XritkS2LH7K0zeFDYNED8Pz9up1PJBV43ZCXaU1bo4bCf/8L/OH/GTMPWuw+jIWETFMAEMfbtfxxOoNNlrV3zXwof9H4KSKpIz3N2kt0X74QVv7R+GmhAuBWKxpSABDH273qaUva8biNrv5FD2hhHpFUlZ1u7dLZQwuMnoCH7rV0Gu+FVjSiACCO1lT5Kc1VG023k5UBr/+HMchPRFJX9/TBVrv1cnjqp5YNEJwKTDHbiAKAOFrdlhWm20jzwisPG6vziUjqy/Ba2wvQbd458ORPLesJ+ILZBhQAxNEadr5vuo1H7oUvzrKgGBFJCi6XEQISYe6Z8K/ftKSpc802oAAgjtZU+amp7c+fDt+81qJiRCRpJHLZ7YVXwdmmO/B1CUDElHBbg6ntf3ir+XuHRST5eBJ4dnS54Ns3mG5mqNkGFADE0cJtjaa2v2CmRYWISFIxMzNgb5x7uukmTAcAx68G6Lr/RbtLsNel8+yuwFbRzj4uByYikhxMTwmsHgARE1ass7sCEUmEmPXLghxm9YbEtt8bCgAiJjz4ZELWDxIRm0VjiWs7HoffPJ+49ntLAUDEhFUb4Dcv2F2FiFgtHElc2//9EnxYkbj2e0sBQMSkex+BJavtrkJErBKPJy4A/O0D+P9+l5i2+0oBQMSkzghcfS+8sdLuSkTECh2dEEvAJYC/roFb/xkiUevb7g8FABELhMJw5d3wwP/YXYmImBGPQzBsfbtPvg63/TN0JKDt/lIAELFINAY//jVc/j3YX2d3NSLSH8EOa7/91zfB7f8C9z6UPN/8u6V8APBm5tldQr+lZeWbbsPpx5+M3lgJk6+Fx16yuxIR6YtwBNot/Ib+2nKY/TV4/T3r2rRSygeA7KJiu0vot+yisRa04ezjT1ZNrfCNn8F190FVjd3ViMiJRKLQ2m5NW/tqYeFPjEdjszVtJkLKB4CRUxbYXUK/jZz6RfNtOPz4k92it6H0SiMM1JqbdVhEEiQag5Z283N6+Fvh3x6DWbca3/6TXcoHgJK5X8fl9thdRp+53B5K5iw03Y7Tjz8VhDuNywETrjTGCLQG7a5IRLpFYtAcMHfdv70D/vM5OOsm42eow7r6EinlA4BvzBRK591pdxl9VrbgW+SfNMl0O04//lTSFjTuEjj1K/DLPxmXCUTEPuEINLf1f9rfplb49fNw1s3GN//mNmvrSzQr1jsy1Wly/dPm51GNRcK8++Cl1FQsM93WQBgxZT4X/HAxbk+aJe05/fjNeOEW+9byzc2Gm74Ed98Mp463rQwR5+m61S/Yz2/qe6rhyb/A/7wGLQFrS+sjUx9ggyIAgHES/OSZe9mx7HfEY0l2r0UXl9tD2YJvMe2mf7f85Of04+8vOwNAN7cbrrgAvn8TXHiG3dWIDG6xOLS192+mv9Ub4Pd/hiWrEr9YUC8pAPTUvLeCz1Y8wYGNSwnU7yYSsrdPxpuZS87Q8Yyc+kVK5ixMeLe304+/r5IhAPR0yji44WK47XI4+SS7qxEZXDo6oS3Ut8F+1fXwlxXwzGLYtCtxtfWTAoBIfyVbAOjmdsO5U+HWy43LBLnZdlckkrqiMQiEev+tvyMMb62GF/5qzN2fbBP49KAAINJfyRoAesrLhmvmw/VfhLlnQnpyXD0RSXpxjOv87WFOeKYKR2DlenhlufGNvy017tZRABDpr1QIAD1lZ8JFZ8G18+HKOeDLtbsikSQUh1Bn17S+xznFtHfAu+vgtRXGdX2bB/T1h6kPMK9VVYhI4gVDxrSir78HGenwhRlw+ReMQDB6mN3VidgrjtF9Hwwf+77+xhZYutZYme/ttca/KadSD4A4Wqr1AByL2w1nngbzzjYes6dDZrrdVYkMjDjGipztRznxd4Th/XJ4b73xbf+TrUkzgt8KugQg0l+DJQAcKSsDZp4K58+A+Wcbtxemqb9PBplozOjqD4UPjeyPxWDjDlixDt7faNy6lyLX8/tDAUCkv8wGgMll+VRsb7GomsQZkg9zz4ILZ8KsqTD9FAUCSU1xjOm128PG6PzOCJTvgHWbYNUnxsOfArNsTp4AFTtNN6MAINJfZgNA5/Zr+MOLn/FPD5VT15giE4BjnPxPL4PZ0+CM04yxBJp3QJJZ97f9ympYvwU2bIMPyo3u/VSZex+gMB/uu82YATRjlunmbA8AISCjvxv/3eMtKb2mvaQ2swEgvutaABqbwvzLIxX8/tmdRKKpGWrHjoRzTzceZ02CqWXGLYgidmkOGCf79zcaJ/qPKmBvrd1V9Y/XA3deAz+50+iRA3CZn/nT9gBQBwzt78aXPFCRdLPDiXNYFQC6lW9r5r5fbGTx8mpT7SYDlwtKToJpE2FqqdFjMG2i8Z5rcA6dEJvE47Brn/GtfsN24+en22H3fvNL9NrN5YLLzocHvguTSo74M5sDgBVXAf2YCAAHypcqAMigMWWijzf+cD7ry/389LebeXXpfmIpOuQ4Hoede43HS3879H5eNkzpEQimTDCmMB4+xL5aJXXUNsLWPVC+89CJvnzH4Fsm2+2Gq+fCPy6EGafYXc3RWZHjFwOX9Hdj35gpXPzzT1JyTXtJfVb3ABypYnsLP//tZl54o4poil4a6C1fLpSNhdJiKCuGieOM12VjD3V5nMLkXgAAIABJREFUijM0tsD2SuOxbQ9sr4IdVcbrVFsyt688bmM9j3+43Rjodzx29wBYEQAeBu4208DM235D2YJvWVCKSN8kOgB02767jYef2MYzr+yhNdCPZchSXJHPCAYTxxk/x42Ck4bBScONsQc5WXZXKH0RaIfKA7CvFvbVGcvj7qgyTvY7qqCh2e4KB15eNtxyKdxzi/H/eG8MhgBwLfCimQbc3nQu+OFiRkyeZ0E5Ir03UAGgW2sgwtOv7OF3T+9k41YHfkoeQ0EejBkOxSONYDBmBBSPMAJC9/v5OXZX6QwtAag6YAy221cLVTWwt8Y40Xef9JtS4Da7gXJ6Gdx1Ddx8ad8HzQ6GADAMqDHbltubzvSbH6J03l26HCADZqADQE8rP6rnd0/v5H+X7KUjfIx5S+WgzHQoKjB6E4YWwLBC42f36+4/Gz7k0HvZmXZXba9gCOqbjG/ktY3Gz/omaGg69LzOf+h3GpqMSXXk+DLSjem377oGzpvW/3YGQwAAWAWcZ0VDvjGTOfnChYycuoCcoePxZmq1E0kcOwNAt3p/By++sZdnX61k9fr6lB/1nEyyMoyeg5wsY4xCdiZkZUJhnvEzK8Pofcjueu7LNX43O9P4NufxfL7nwZdrDPDquY+e0y4fbZuWAER7LCkbChsL0XSLxT5/bbx7m9agcSIPtBu/095hvG5qNZ63h4yJb9pDxvvNbcbvtgQO34eY43IZ82bcdAlct8AImabbHCQB4E7gdxa1JZIyrAgAPVVVB3lpyT6eenkP68r9lrYtIn03qcT4tv/Vy2DCGGvbHiwBoACoBDSjjziK1QGgp41bm3n21UpeWbqPLTt10VVkoJxWms9VC0Zz45wtTC1N3H4GSwAAeAD4kYXtiSS9RAaAnj6rCrB0ZQ1/Wbafv75XQ7hTYwZErOLxuJg1vYgvzxvFFfNHc1pp132r/kUJ3e9gCgDDge2A7vgVxxioANCTvznMkncP8Nrb+3nr3Rr8zRq1JdJXQwrSufgLI7li/mi+dOFICvLTPv9LCgB98j3gVxa3KZK07AgAPcVicT7e1MTKD+tZta6et96toaWt09aaRJJRVqaH2WcMZf7s4cw+cyjnTB9Cmtd9/I0UAPrEA6wEzK9xJJIC7A4AR+oIx1izvoFlq2tYtrqWDzc0puziRCJmeD0uzp42hHmzRzDvvOHMmlFERvoJTvhHUgDos2LgY6AoAW2LJJVkCwBHCrZHWV/hZ91GP6vW1bN8bV1KLVss0lv5uWmcPW0Is88s4owphVxw9jB8eUfp1u8LBYB++RLwGmDyv75Ickv2AHA0W3e1svbjBlavb2DN+gY272hRL4GkFK/HxaSyfM6dWcS5M4o4d2YRE09OwE1oCgD99lXgTwneh4itUjEAHKk9FOXTLc18XOFnfUUT68v9lG9r1uyEkhQy0t1MPcXHzCmFzJhUwMwphUw9xUdW5gDMGDvIA4AVywEfy1NdP59APQEiSSsr08M504dwzvRD6/l2RmJUbGthfYWfDZubqdjWzKYdLVTXhmysVAa7UcMzmVSaz+SJPqZPKmDGpAImT8w/8WA96ZdEBgAwQkA98AxQmOB9iYhF0rxupk8qYPqkgsPe9zeH2bSjhU3bWw7+3LyjlarqQbaYuyRU8ahsTivNY3KZz/g50cdpE/Io9KWfeGOxzEB1z48HngfOGaD9iQyIwXAJwAqtgQg7drexY08bOyvb2Lmn6/meAHsPBLW+gcO4XDBmZDal43OZMDaHCeNyKR2Xy4SxuZSOzyUvJ9HfPS0yyC8BDOT1eQ/wTeDfAAuWURCxnwLAiYU6ouysDLBzTxu79waoqm6nqjrI3up29uwLUF0XIqpBiCnF43Exalgm407KoXh0FmNGZlM8KovxY3IoHZdLydgcMjMGwaquCgCWGwbcDXwLzRooKU4BwLxINE51bTuV+4NU7g+y70A7+2tC1DaEqK4NUVMfoqa+g3q/bl8cCMOGZDC8KIORwzIZOSyT4UWZnDQyi5NGZFE8Oouxo7MZNTwLr8cB47sVABLGB1wH3IqxlLBGeUjKUQAYOJ2RGLX1HVTXhThQF6KusYMGfweNTWEam8M0NoVp8IfxtxjPG5vCtAYidpdtq7wcL0MK0o2Hz/hZVJhBYX7awefDizIYMTSTUcMyGT40QwPuelIAGBBDgDnAucCpQCkwFGN1wQz7yhI5PgWA5NYZidHU0klrW4SmljCB9ihtgQhtwa7XwShtwUOv43EOrq3QGogQicRpD0UJdUTpjMRoCxqBoi0QoTPy+csWkUjsmKEjL8eL9ygn1zSvi9yua+K52V7SvG4yMzxkZXrwel0Hr5cX+tJxuaAgP528HC85WV5ysj2HXmd7ycnqep3rpSA/TSdzsxQAkp6pi4d/XvSqqZ3v3PmZqe3v+/H3TW3P4Pg7tJOp/38UAEQGsUEeABQPRUREHEgBQERExIEUAERERBxIAUBERMSBFABEREQcSAFARETEgRQAREREHEgBQERExIEUAERERBxIAUBERMSBFABEREQcSAFARETEgRQAREREHEgBQERExIEUAERERBzIa3cBXYYBc4FZwGnAyV3v5QLpidzxNddemcjmB4Kp9exFRMSZ7AwAhcANwK3AOYDLxlpEREQcxY4AMBK4B7gL4xu+iIiIDLCBDABe4FvAvwL5A7hfEREROcJABYAS4HngrAHan4iIiBzHQNwFcBmwHp38RUREkkaiA8AtwMuAL8H7ERERkT5I5CWA24A/otH9IiIiSSdRAeBy4HF08heRQcxVssjU9vFd11pUiUjfJeISwDjgTyTPJEMiIiJyBKsDgBdYBAyxuF0RERGxkNUB4LtotL+IiEjSszIAjAT+n4XtiYiISIJYGQDuBfIsbE9EREQSxKoAUAh8w6K2REREJMGsCgA3oG//IiIiKcOqW/VutagdfMVTKZmzkBGT55MzbDzejByrmhb5nBduMTdVhb85TKEv3aJqRCR5RBLaur8loc33ihUBYBhwjtlG3N4MZtzyCBPmfQOXayCWKBAx790P6rlywWi7yxARq8XDCW1+xfqENt8rVpxp52Jyxj+3N4MLf/QmpfPv0slfUsqDj20lHre7ChGxXDSUsKbjcXjwyYQ132tWnG1nmW1g5ld/xfBJcy0oRWRgrVpXz2+e3GF3GSJiuWjCWv7P52H1hoQ132tWBIBTzWzsK55KyUV3WFCGiD3u/dkGlqw4YHcZImKZGHgSs4jtktXwg0cS0nSfWREAysxsXDJnobr9JaV1RmJcfedq3nin2u5SRMQKkUZwWT+49/X34Op7IZK4zoU+seLMW2hm45FTFlhQgoi9Qh1RrrpjFf/5P9vtLkVETImAO9fyVv/jObjqHggldmxhn1gRAEzd/59dNNaCEkTsF4nG+d6/fsLlC1eyv6bd7nJEpD8ifnBnWtZcbSP83Q/h+/8O0ZhlzVrC3E3QBlNjoK9/WkOoxT5m5wE4loL8NB6473TuuLEkIe2LSAJEGsBbdOi1f5Gp5ha9Dd+8H+qbTNZ1bObuwLOqChE5pKmlk2/84zqu+/YaqqqDdpcjIicSawVPviVNVdXAdfcZjwSe/E1TABBJoEWL91I6502+8Y/rqG3osLscETmaaABIB1eaqWYaW+DHv4ZTrja+/Sc7BQCRBAt3xnjsuV1MuHAxP/7lRloDiZ1iVET6INoKLi+4M/rdRDAED/wPTLjC+NmeIllfAUBkgLQFIzzw6BZOnb+EX/5+K00tnXaXJOJsUT+4s/p98ve3wC//BKVXGt/8m1otri/BNAhQHC1RgwB7Izfby01XjuXuv5/IqRO0mKbIwIlDpBa8wznuafAYgwB37YPHXoJH/wzNbYmpsJdMfYApAIij2RkAurndLq6YP5rv317GhecMs7sckcEt1gGxIHh7MYXNEQFgxTr41bPw2rsQS45b+kx9gFm1HLCI9FMsFueVv+7jlb/u45SSPG74cjG3fWU8JxdrKWwRS0XqjJH+vTn5d9lXC39eBn94FT4dZPN8DboegOaqjexa/jg1FcsI1O0m0hGwtP2+8mbkkDNsPCMmz6dk7tfxjZmS0P05/fj7Khl6AI7G7XZx7owibv3KOG66ciy52crqIv0WC0As3OsTf6gjyl+WVfPkC2tYsjp5pu49Cl0CAIh1dvDxM3ezc9nviceTo2/mSC63h9J5dzL95odxe62dZ9rpx99fyRoAesrL8XLNJWO4/vJi5p47nPQ0jd0V6ZV4xBjo5y3iRGPew50x/ra6lhffqOLPb+5Nlbt1FABinR2sePASaje9Y7qtgTBi0kVc8KM3LTsJOv34zUiFANBTdpaHi84dzrWXFnPlgtH48szdtywyOMWMBX3ceccd4R9sj7JsdQ2LFu/ltbf309yacnfmKAB89Me72LnsUdPtDKSyBd9m5m2/tqQtpx+/GakWAHrKSHfzhbOGcflFo7j20jGMHpFld0ki9opHIdoInjxwHX0+/wZ/mDfeqeb1v+1n8fIDBIIp8U3/WJwdAJqrNvLW/52etN3ex+Jye7j45xvwjZlsqh2nH79ZqRwAenK7XZw5tZB55w1n3uwRzD6jiMwMj91liQyM7q5+d97nFvIJdURZta6BZatqWLa6lo82+onFBs3dZ86+C2DX8sdT7uQHEI9F+WzFE0y/+WFT7Tj9+MUQi8X5YEMjH2xo5P7fbSEr08PMyYWcf9ZQ5s8ezoXnDCPNq7EDMsjEAhANgtcHXuMW2lgszsebmnh7ZQ0rP6pnxft1qXI9f8ClfAA4UJ4CEy4fw4GNS8234fDjt9vksnwqtrfYXcbntIeirFpXz6p19Tzw6BaGFKQzd5YRBGbNGML0SQUKBJKa4lFj1T63FzxD6Ixl8cnGJtZ+3MjytbUsf7+Oxqaw3VWe0OQJULHT3hpSPgAEGyrtLqHfAvV7TLfh9OO32yeLv8gfXvyMf3qonLrG5J0AvLEpzP8u2cv/LtkLQJrXzemn+ph95lDOmFLIF84aqnkHJLl1fduvbszgo/II68rrWPVROavW1dMeSt779I5UmA/33QZ33wwZs+ytJeUDQCRk7zyMZkRC5ieOdvrx283rcXHHjSVcc8kY/uWRCn7/7E4i0eS/vtgZibGu3M+6cv/B98aOzubcmUWcO6OIs6YNYeopPvJyUv4jQlJYa2srGzfX8MHGIGs3BFmzvoHK/am5vLbXA3deAz+5E4ZYs+qwafrXLWKBIQXp/OYnM7jz5hLu+8VGFi+vtrukPqvcH6Ryf5AXXq8CwOWCkuJcpp3mY+qpPk4/tYBpp/koKc7FNTjGTkqSiMdhV1UbGzY38+nmejZu8bNhS4BdVUHiyZ+nj8vlgsvOhwe+C5NK7K7mcAoAIhaaMtHHG384n/Xlfn762828unR/yo44jsdhZ2UbOyvbeOmtfQffz8vxMuUUH6ef6mPaaQVMmejjlJI8hhf1fzlVcY7ahg627mqlfFszGzY38emWZsq3Ng+6gXpuN1w9F/5xIcw4xe5qjk4BQCQBZk4p5KXfnUfF9hYeeHQLz71WmRKXBnqjNRBhzfoG1qxvOOz9zAwPJWNzmFyWT8nYXEqKc7pe+xg1/Oj3ZMvg5G8Os6sqwK7KALsq29hVFaBiWwvl25pTcbKdPnG74dLZ8K93Je+Jv5sCgEgCTS7L58mHzuafvzOJh5/YxjOv7Bl033S6hTqibNrewqaj3BVRVJhO6bhcJp6cR+m4XMadlM1JI7M4aUQWY0dnk6O1DlJKIBihcn+QfTXt7DvQzp59QXbsaWPbZ63s2NNGgz/5R+FbLS8bbrkU7rkFSovtrqZ39K9OZACUjc/ld/82k1/++HSee62S/3p6Jxs2N9ld1oBp8Idp8Dfy/ieNR/3zzAwPo0dkUlKcy6jhmYwekUVJcc7B56OGZWqmwwHSHopSXRtif2071bUhdlW2sb82RHVtO7sqA+yvbedAXSjlr81b5dTx8LUvwx1fMUb4pxIFAJEBlJfj5Y4bS7jjxhLWlft57LldPPXynpS6jSkRQh3Rru7iY69emZHuZkhBOoW+dArz0yn0pRnPfemMHp7JqOFZh71XmJ/m+NDQHoribw7jb+k0fjaHD57c/c2H3vM3d+JvCbPvQPug76K3QkY6XHGBcdKff47d1fSfAoCITc6YUsjvf3YGP/vBFF58Yy/PvlrJ6vX1+mZ1DB3hGNW1IaprQ73eJivTQ35uGjnZHnx5aWRnesnK9FDoSyMr00NWpoeC/HSyu5778tLIyfaSnekhL9eLx+0i/4gFl3x5abh73AaRlekhM+PQpEoej4v83MO3aWnrJNpjDEioI3ZY6IvF45878ba0dhKNxWltixAMRQkEIzS3dtIeihIMRWlqCdMeinad5LvfN34nEIzS0tbp+GBpJZcLZk+Dmy6B6xZAkc/uisxzfACI/8N1prZ33f+iRZXYZPEyc9tfOs+aOhxsaGEG37xlAt+8ZQJV1UFeWrKPp17ec9g9+tI/3SdIkf6aVALXzoevXgYTxthdjbUcHwBEkknxqGy+d3sZ37u9jI1bm3n21UpeWbqPLTtTf9IkkVRxWmk+Vy0YzY1ztjC11O5qEkcBQCRJTT3Fx/0/msr9P5rKZ1UBlq6s4S/L9vPX92oId6beAlAiycrjcTFrehFfnjeKK+aP5rTSrtF8/i32FpZgCgAiKeDk4pyDgwf9zWGWvHuA197ez1vv1uBvdt4tVyJmDSlI5+IvjOSK+aP50oUjKchPO/FGg4wCgEiKKfSlc+OXx3Ljl8ceXPp05YfGyn9vvVtDS5tGcYscKSvTw+wzjOWxZ585lHOmD3H8ipgKACIpzO12ccaUQs6YUsj3bi+jIxxjzfoGlq2uYdnqWj7c0DhoZiAU6Quvx8XZ04Ywb/YI5p03nFkzishId/YJ/0gKACKDSEa6mzmzhjFn1jD+7R4ItkdZX+Fn3UY/q9bVs3xtXVIvWyzSX/m5aZw9bQizzyzijCmFXHD2MHx5zuvW7wsFAJFBLDvLw/lnDuX8M4fyvdvLANi6q5W1Hzewums+/807WtRLICnF63ExqSz/4PLV584sYuLJeXaXlXIUAEQc5pSSPE4pyeO2vxsPQGckxrbP2li30c+6cqO3YH2FX/fPS1JI87opOzn34KWuM6YWMnNyIdlZHrtLS3kKACIOl+Z1M7ksn8ll+dz6lXGAEQoqtrWwvsLPhs3NVGxrZtOOlj7NwifSV6OGZzKpNJ/JE31Mn1TAjEkFTJ6Y7/jBeomiACAin5PmdTN9UgHTJxUc9n5zayc79rRRsa2FTTtaDgaDz6oCmsJYeq3Ql951os8/+HPqKT5GDNWy0QNJAUBEes2Xl3awK7an1kCEHbvb2LGnjZ2Vbezc0/V8T4C9B4IKBw7jcsGYkdmUjs9lwtgcJozLpXRcLhPG5lI6Ppe8HJ16koH+FkTEtLwcLzMmFzBjcsHn/izUEWVnZYCde9rYvTdAVXU7VdVB9la3s2dfgOq60GEL5Ujy83hcjBqWybiTcigencWYkdkUj8pi/JgcSsflUjI2h8wMXaNPdgoAIpJQmRmeg2MMjiYSjVNd207l/iCV+4PsO9DO/poQtQ3Gyn819SFq6juo9+v2xYEwbEgGw4syGDksk5HDMhlelMlJI7M4aUQWxaOzGDs6m1HDs/B6XCduTJKaAoCI2MrrcVE8KpviUdnMPuPYv9cZiVFb30F1XYgDdSHqGjto8HfQ2BSmsTlMY1OYBn8Yf4vxvLEpTGsgMnAHkoTycrwMKUg3Hj7jZ1FhBoX5aQefDy/KYMTQTEYNy2T40AwNuHMQBQARSQlpXrfxTXRkVq+36YzEaGrppLUtQlNLmEB7lLZAhLZg1+tglLbgodfxOAfXVmgNRIhE4rSHooQ6onRGYrQFjUDRFojQGfn8ZYtIJHbM0JGX48V7lJNrmtdFbtc18dxsL2leN5kZHrIyPXi9roPXywt96bhcUJCfTl6Ol5wsLznZnkOvs73kZHW9zvVSkJ+mk7kcl+MDgOv+F+0uwV6XzrO7ApGESfO6GTYkg2FDMoAcu8sRSSqKhyIiIg6kACAiIuJACgAiIiIOpAAgIiLiQAoAIiIiDqQAICIi4kAKACIiIg6U8gHAm5lndwn9lpZ19KlR+8Lpxy8iIv2T8gEgu6jY7hL6LbtorAVtOPv4RUSkf1I+AIycssDuEvpt5NQvmm/D4ccvIiL9k/IBoGTu13G5U2/ZSZfbQ8mchabbcfrxi4hI/6R8APCNmULpvDvtLqPPyhZ8i/yTJplux+nHLyIi/ZPyAQBg+s0PM2Jy6ixqM2LKfKbd9O+Wtef04xcRkb4bFAHA7U3ngh8upmzBt5O6O9zl9jDx4u9ywQ8X4/akWdau049fRET6zmVBG59fFLsPrn/a1Oaf07y3gs9WPMGBjUsJ1O8mEmqztP2+8mbmkjN0PCOnfpGSOQsT3u3t9OPvqxduMfdPIL7rWosqEZGk41+U0OZdZ5hvwraNuyRVABDpCwUAETmmQR4ABsUlABEREekbBQAREREHUgAQERFxIAUAERERB1IAEBERcSAFABEREQdSABAREXEgKwJA2MzGkVCrBSWIiIhIX1gRAFrMbBxsqLKgBBEREekLKwKA38zGB8qXWlCCiIiI9IUVAWCHmY13vfM48VjUgjJERESkt6wIAFvMbNy8t5wdyx61oAwRERHpLSsCwBqzDXzyzD3UVCyzoBQRERHpDSsCwHJMrggYi4R598FL2b70N7ocICIiMgCsCAB1WNALEIuEWf+n7/DW/53G1jcfoXlvue1r2YuIiAxWXovaeQo4z4qGmvdW8Mkz91jRlEjCNbV0UpCfZncZYhNXibn14uO7rrWoErFeJKGt+03dQG8Nq2YCfB7QjD7iOCver7O7BBFJhLipOe5OaMX6hDbfK1YFgCbgvyxqSyRlPPjYVuKmRsCISFKKhhLWdDwODz6ZsOZ7zcq1AB7G5KyAIqlm1bp6fvOkqakwRCQpJW5A+n8+D6s3JKz5XrMyANQC/2xheyIp4d6fbWDJigN2lyEilomBx5eQlpeshh88kpCm+8zq1QB/C6y1uE2RpNYZiXH1nat5451qu0sREStEGsGVbnmzr78HV98LkSS5293qABAFrgMaLG5XJKmFOqJceccqHnjU1MSYImK7CLhzLW/1sZeMk38osWML+8TqAABQBdwCdCagbZGkFY3G+fEvN/KVu1ZTU5+4AUQikkARP7gzLWuuphG+8gP4xs+S55t/t0QEAIAlwEJMzhAokopefmsfUy7+Ky++oaWuRVJKpAG8wyxr7sWlMOVaePkdy5q0VKICABiTA92GegLEger9HVz/nbVc9+01VFUH7S5HRE4k1gqefEuaqqqB6+6D638M9U2WNJkQiQwAYISAKwF/gvcjkpQWLd7LxIuW8KNffEpjUxJd/BORQ6IBIB1c5mb1bGyBH/4KJl4Fi962prRESnQAAHgTmAm8PwD7Ekk6oY4oDz62lQlzFvOLR7cQbE+yC4EiThZtBZcX3Bn9biIYgvv/CBOugH9/KrkG+h2PawD35QG+CfwbkJgbLEVSwOgRWXzva2XccWOJ1hFIcVoLIMVF/eDOMwLA0fiP//frb4H/fhl+9SxU1yegvhMzdQ4fyADQbRhwN/AtwJoLLiIpKDfby9euGc/3bi+jdJz1tx1J4ikApKo4RGrBO5zjngaPEQB2VMF/PAf/8xdos3eIT8oFgG4+jDkDbsVYSXAgLkeIJB2328UV80fz/dvLuPAc60YgS+IpAKSgWAfEguAtPPHvHhEAVqwzvu2/9i7EYgmqr29SNgD0NASYA5wLnAqUAkOBPKD/F2ZEUswpJXnc+pVxfPXqcRSPyra7HDkBBYAUE6kzRvq7enla8S+iqgaeegOefB227klsef0wKAKAiF2Scq4Kt9vFuTOKuPUr47jpyrHkZh/jGqWInFgsALFw7771Ywzc/cuyap58YQ1LViffBD49KACImJCUAaCnvBwv11wyhusvL2buucNJT9PVMpFeiUeMgX7eIk50lTncGeNvq2t58Y0q/vzmXloDkYGp0RwFABETkj4A9JSd5eGic4dz7aXFXLlgNL483UUg8nkxY0Efd95xb+8LtkdZtrqGRYv38trb+2luTbl56xQARExIqQDQU0a6my+cNYzLLxrFtZeOYfSILLtLErFXPArRRvDkgevo8/k3+MO88U41r/9tP4uXHyAQTIlv+seiACBiQsoGgJ7cbhdnTi1k3nnDmTd7BLPPKCIzw2N3WSIDo7ur3533uYV8Qh1RVq1rYNmqGpatruWjjX5isUHxzx4UAERMGTSfBD1lZXqYObmQ888ayvzZw7nwnGGkeTV2QAaZWACiQfD6wJVuvBWL8/GmJt5eWcPKj+pZ8X5dqlzP7w8FABETTAWAyWX5VGxvsaqWhBlSkM7cWUYQmDVjCNMnFSgQSGqKR41V+9xe8AyhMxLjk01NrP24keVra1n+fl1KrLsxeQJU7DTdjAKAiAmmAkDn9mv4w4uf8U8PlVPX2GFVTQmX5nVz+qk+Zp85lDOmFPKFs4ZycnGO3WWJHFvXt/3qxgw+Km9jXbmfVR81sGpdPe2h5L1P70iF+XDfbXD3zZAxy3RzCgAiJpgKAN0TuTQ2hfmXRyr4/bM7iURT86rC2NHZnDuziHNnFHHWtCFMPcVHXo7mHxD7tLa2snFzDR9sDLJ2Q5A16xuo3J+ay2t7PXDnNfCTO2FI1yT4rjNMN6sAIGKCJQGgW/m2Zu77xUYWL682VVQycLmgpDiXaaf5mHqqj9NPLWDaaT5KinNx6ZNDLBSPw66qNjZsbubTzfVs3OJnw5YAu6qCxFMzTx/kcsFl58MD34VJJUf8mQKAiK0sDQDd1pf7+elvN/Pq0v2DacQxYExMNOXzL8atAAATEUlEQVQUH6ef6mPaaQVMmejjlJI8hhdp1m45sdqGDrbuaqV8WzMbNjfx6ZZmyrc2D7qBem43XD0X/nEhzDjl6L+jACBir4QEgG4V21t44NEtPPdaZcpeGuitzAwPJWNzmFyWT8nYXEqKc7pe+xg1/Oj3ZMvg5G8Os6sqwK7KALsq29hVFaBiWwvl25pTcbKdPnG74dLZ8K93HfvE300BQMReCQ0A3bbvbuPhJ7bxzCt7Bt03nd4oKkyndFwuE0/Oo3RcLuNOyuakkVmcNCKLsaOzydFaByklEIxQuT/Ivpp29h1oZ8++IDv2tLHts1Z27GmjwZ/8o/CtlpcNt1wK99wCpcW920YBQMReAxIAurUGIjz3WiX/9fRONmxuMrPrQSUzw8PoEZmUFOcyangmo0dkUVKcc/D5qGGZmulwgLSHolTXhthf2051bYhdlW3srw1RXdvOrsoA+2vbOVAXSvlr81Y5dTx87ctwx1eMEf59oQAgYq8BDQA9rSv389hzu3jq5T0pdRuTXTLS3QwpSKfQl05hfjqFvjTjuS+d0cMzGTU867D3CvPTHB8a2kNR/M1h/C2dxs/m8MGTu7/50Hv+5k78LWH2HWgf9F30VshIhysuME7688/pfzsKACL2si0AdKv3d/DiG3t59tVKVq+v1zcrC2VlesjPTSMn24MvL43sTC9ZmR4KfWlkZXrIyvRQkJ9OdtdzX14aOdlesjM95OV68bhd5B+x4JIvLw13j9sgsjI9ZGYcmlTJ43GRn3v4Ni1tnUR7jAEJdcQOC32xePxzJ96W1k6isTitbRGCoSiBYITm1k7aQ1GCoShNLWHaQ9Guk3z3+8bvBIJRWto6FSwt5HLB7Glw0yVw3QIo8lnQpgKAiK1sDwA9VVUHeWnJPp56eQ/ryv2Wti0ifTepBK6dD1+9DCaMsbZtBQAReyVVAOhp49Zmnn21kleW7mPLztaE7UdEDndaaT5XLRjNjXO2MLU0cftRABCxV9IGgJ4+qwqwdGUNf1m2n7++V0O4MzYg+xVxAo/HxazpRXx53iiumD+a00q7RvP5FyV0vwoAIvZKiQDQk785zJJ3D/Da2/t5690a/M3Ou+VKxKwhBelc/IWRXDF/NF+6cCQF+Wmf/yUFAJFBLeUCQE/dS5+u/LCeVevqeevdGlraNIpb5EhZmR5mn2Esjz37zKGcM33IiVfEVAAQGdRSOgAcqSMcY836BpatrmHZ6lo+3NA46GcgFDkar8fF2dOGMG/2COadN5xZM4rISO/jEtgKACKD2qAKAEcKtkdZX+Fn3UY/q9bVs3xtXUotWyzSW/m5af9/e3ceG8d5n3H8S+4u9+ZyuSIlSqJE0TosUT5k+VIUx0eMpG6cpo7tJE2L2umRFMgfKZoECFD0SIMAbVyguYqmRtEmTtpcTgInce00vm3ZjmPJkiWZOmiK1EFKFMnlsTf36B8vRVESJUva2Z0l5/kAi9ldad/5CcLuPPPO+77Djdc0s/X6GJs3RnnPjS1EwnN0618KBQCRBW1BB4C57O+d5NU3Rnh5xwiv7Bihu2dCvQQyr7hddWxY0zhz++ot18VYuyps/Y4UAEQWNMcFgLNN5YscOJRg++442/eY3oIde+NaREZqgsddz5pVITZvjJrHVVGu64oS8Lsqv3MFAJEFzfEBYC5T+SJ7D0ywY2+cXd3j7D0wzls9EwwOZewuTRawtlYfG1Y30rU2wrUbmti0oYmutY3vPFivUhZ4ANAtuETkHB53PdduaOLaDU1nvD8+OUVPf4K9ByZ4q2diJhgcOpLUEsZy0aKRhukDfePM9qp1ERYv0m2jq0kBQEQuWiTsmemKnW0ymaenL0FPf4K3Dyd4u3/6eX+So8dTCgcOU1cHy5cEWN0R4ooVQa5YGWL1yhBXrAixuiNEOKhDTy3Q/4KIlC0cdLOpq4lNXU3n/FkmW+Dtw0ne7k/QdzTJkcE0RwZTHB1M038syeDJzBk3ypHa53LV0dbiY+WyIO1L/SxfEqC9zU/H8iCrV4boXBHE563CNXopiwKAiFSUz+uia00jXWvmvll6vlBicCjN4YEUhwdSHDueZuBEhqGRDINDGU4MZzgxnGU4rumL1dDS7KU15mVJi48lLT5aYz6WLfGzbLGf9qV+ViwN0Nbqx+3SELL5TgFARGzldtXR3hagvS3A1gsMiprKFxkazjJ4MsPxkxlOjmYZiWcZHcsxOp5jdCzHSDxHfMI8Hx3LMZnMV+8fUoPCQTfNTQ3mETHbWNRLtNEz87w15mXxIh9tLT5aF3ntG3AnVacAICLzgsddb85El/gv+jNT+SJjE1NMJvKMTeRIpgskknkSqenXqQKJ1OnXpRIz91aYTObJ50ukMwUy2QJT+SKJlAkUiWSeqfy5ly3y+eJ5Q0c46MY9x8HV464jNH1NPBRw43HX4/O68PtcuN11M9fLo5EG6uqgqbGBcNBN0O8mGHCdfh1wE/RPvw65aWr06GAuF6QAICILlsddT0uzl5ZmLxC0uxyRmqJ4KCIi4kAKACIiIg6kACAiIuJACgAiIiIOpAAgIiLiQAoAIiIiDqQAICIi4kAKACIiIg6kACAiIuJACgAiIiIOpAAgIiLiQAoAIiIiDqQAICIi4kAKACIiIg6kACAiIuJACgAiIiIOpAAgIiLiQAoAIiIiDqQAICIi4kAKACIiIg6kACAiIuJACgAiIiIOpAAgIiLiQG67CxARma/qOn9c1udLvfdbVInIpVMPgIiIiAMpAIiIiDiQAoCIiIgDKQCIiIg4kAKAiIiIAykAiIiIOJACgIiIiAMpAIjTpcv58NjElFV1iEhNyVe09fhE2U0ky21AAUCcbricDz//m5NW1SEitaSYrWjzz+8ou4mRchtQABCnK+tL9NDD+ymVrCpFRGpGfqxiTZdK8NAjZTdT1skLKACI7C3nw9u2D/PNR3qsqkVEakV+qGJNf/0H8PKuspsp67cLFABEtpXbwGe/vIsnnz9uRS0iUgtKBcgdqUjTT74Mn/sXS5oq+7dLAUCc7qVyG5jKF7nnL17m8WcHrahHROw2dRhK1o8B+OWLcM9nIV+wpLmyf7sUAMTpdgNld8ZlsgU+9Mlt/NO39llQkojYJw/psnvXz/HwT83BP5OzpLk30SUAEUv8lxWNFAolvvCV3dz9py8xcKKs2YUiYpf0Hiha9/0dGoV7Pw+f+rJlZ/4AD1vRSJ0VjYjMc83AIaDRqgYXRb386z9s4iMfaLeqSRGptNwxSL5sWXM/+jV8+h9h2NoJBeNAB1B2q66ySxGZ/07F/TutajCVKfDoE0d56+AEN2+KEQl7rGpaRCqhMDZ98C+W3dSRE/DnX4IvPgypTPmlneVvgWesaEg9ACKGD+jGJGtLNXjqefC+Dr70VxtpjXmtbl5EylVMwOSzUCzvaD06AV/5Dnz9+5CuzDpCh4D1gCWtqwdAxMgDB4CPY3EwLhRLbN8T5z9+2AvAdV1RPB4NvxGpCfkxSDxf1sE/lYF//i589Avw9GuWXuufrYj5fdpvVYMKACKn9WDGAWypROOZbJGntw3x7Z/0USiU6FobwefVV1DENlPHIfkilC5vaH58Ar7xA/j4X8Njz1k2wv98HgK+ZWWDugQgcqYG4AXgpkrvKBRw8+B9HXzmE2tYvTJU6d2JyIwSZPZBZi+Xs5Z3zxH42vfh27+ARKoC5Z3rFeBWwNK7jykAiJyrBbPIxtpq7Ky+vo7fu3Mpf/mJNdx6U0s1diniXMUMpH5rzv4v0fPb4av/Az9/AYrljxW8WPuAW7Bg7f+zKQCIzK0ds9RmVefxresM87EPtvPAhztY1R6s5q5FFr5cP6R3QvHi++qPDcGjT8N/PgZvHqxgbefZPbAV6K9E4woAIud3JfArYEW1d1xfX8cdW1p54N6VfPj9ywn4NVZA5LIVE5B646LP+pNp+Okz8Mjj8Mxvq3q2P1sf8H7M4OSKUAAQubDlwJNAl10FhINu7rtrOR+9u53bt7TSoBkEIhenlIfMW5A5yDvN789NmYP9j34Njz4Fk9W5tn8+u4HfAQYquRMFAJF31gz8BLjN5jqIhD3cddsS7nnfMu66rY1w0G13SSI1qAjZPjPI7wLT+yZT8MQ2+NmzZjueqF6FF/AMcB8Qr/SOFABELo4L+JvpR02cgnsb6rnlhhbuvqON+393OUsX++0uScRepQLk+iDdDaW51/MfGYfHXzR35vvfbaa7v0aUgG8An8Pi0f7nowAgcml+H3PzoCa7C5mtvr6O66+K8t53tfLerYvZujmmNQbEOUpTkH0bsgfPOePP5GDbTrNAz9Ovwevdtl3Tv5A48CDw82ruVAFA5NItAf4NEwZqkt/n4rquKO++YRF3bm3l1pta8LhrouNCxDqFCTOyP9s7s5hPsQhv7IenfgMv7TRT92y+nv9OngA+CRyt9o4VAEQu3wPAV6mx3oC5NDc1cPvNJgjcvKmZazc0KRDI/FQqQO4I5HohP8JUHnbuh1d3w3Pb4bnXzZr880Ac+AzwXbsKUAAQKU8Mc3euTzOPltb2uOu5+soIW69fxOaNUW65YZHWHZDaVkxA9hCDx3p5fW+O7d2wbZfp3q/QjXcqpQj8N/B54ISdhSgAiFjjeuBrwLvsLuRyrVgaYMt1MbZsinHDNc1ctS6iWQZiq8nJCXbv6eW1nQO8uivJK2/C4UtfwK+WvIQ5699hdyGgACBipTrgXuDvsXHdAKvU1UFne4hr1ke46soIV1/ZxDXrI3S2h6jTL4dYqFSC3iMJdnWP82b3SXZ3D7Fr3yS9R4uXs1R/LdoD/B3wM8xo/5qgr7GI9eqBP8B84dfYXIvlwkE3G9dFuPrKCNesb2Lj2gjrOsO0xrx2lybzwNBIlv29k+w5MM6u7jHe3DfOnv3jTCbzdpdWCfuBLwI/5J1WIrKBAoBI5biBj2Dm9W6yuZaKi4Q9rOkIsbojxJqOMGtXme2ajhDNTQ12lydVNDqW42BfgoN9kxw4ZLY9fQkO9iUYn6zKFHe77cDcvvfHQMHmWs5LAUCkOu7EBIH34cDvXSzawOqVIdauCrN6ZYiVywIsW+Jn2WI/K5YGCAY01mA+SabyHB5IcexEmmPH0/QfS9HTn+DAoUl6+hOMxC/+ZjsLSAlz75CHMKv51TzH/RCJ2Gwt8CfAn2FmEAjg87pYuthHZ3uItlYfSxf76WwPzjxva/FppcMqSWcKDA5lGBhKMziUofdwgoGhDINDaXoPJxkYSnP8ZGahXJu3wjimi/+bmDX85w0FABF7BICPAZ8CbrS5lnnB53URizYQa2pgUdRLS8zLoqiXWLRhZhtraqA15pt5z+l3UUylCwzHs4zEcwyNZBgZyzE8mmVkLMdIPMdwPMvJkaz5O9PvZbI122Nda14F/h1z8K+dBYUvgQKAiP02AH8M/CHm7oNiEb/PRWPIQzDgIhL2EPC58ftcRCMe/D4Xfp+LpsYGAtPPI2EPwYCbgM9FOOTGVV9HY9hzRpuRsIf6WdMg/D4XPu/pRZVcrjoaQ2d+ZiIxRaFw+pQ5ky2Szpw+0BZLpXOujU9MTlEolphM5EllCiRTecYnp0hnCqQyBcYmcqQzBdKZAvHxU++bv5NMFZhITJ2xD7HEEeB7mMV7um2upWwKACK1ox64A/gj4EPMgxUGRRwgDjyGOeg/Rw2O5r9cCgAitckFbAHux1wqaLW3HBFHiQO/xIzi/xWwIEc1KgCI1D4PcDvwQeADwCp7yxFZkA5hDvq/wJzpL/j5igoAIvNPF3A3JgzcjAkIInJppoBXgMenH3vtLaf6FABE5rcA5v4D7wa2AreiQCAylwKwE9iGWZP//zBT+BxLAUBkYQlhegXunH5swgwuFHGiXuCpWY+4veXUFgUAkYUtBrwHM4ZgC3A1oHV5ZSHKAbsw3frPAi8Ao7ZWVOMUAEScxQ2sAzZPP7YC12JmHYjMFwXMjXa2n/WYlwvy2EUBQERCmBCwedZjPfp9kNoxyJkH+pdQd37Z9AUXkbk0Yy4XrAc2ztq22FmULHhDwB7MKnuntrtRV35FKACIyKWIAp2YqYgbZm077SxK5p048BZm6t2p7V7Mmb5UiQKAiFghhukl6MQsVDR7uxT91jhNCRjAjMLvxSyyc+r5PmDEvtLkFH0pRaTSvJgwcHYwWAV0oHsezFdjQB+nD+6zt4eArG2VyUVRABARu/kwYw7aML0F59suRmsaVEMGc/Y+eIHtURy+iM5CoAAgIvOFF1gCLAMWYUJD9KztXM+d+jtXwlxrH51+XOj5MHAMOI7O3B3DqV8MEXGOU0Egirnc4MUsodyIWRSpcfq1d9afBzHTIxs4fYmijnMvV7iB8FnvnWp/thTnHlgngfxZ741hDtynnueAxPQjN/1eBjPffWL6vYlZ7Y9x+uCuaXIiIiIiIiIiIiIiIiIiIiIiIiIiIiIiIiIiIiIiIiIiIiIiIiIiIiIiIiIiIiIiIiIiIiIiIiIiIiIiIiIiIiIil+j/Aca5K3lXZZvGAAAAAElFTkSuQmCC;" vertex="1" parent="1">
          <mxGeometry x="530" y="680" width="112" height="112" as="geometry" />
        </mxCell>
        <mxCell id="9bJqxLlEq6opLeguGgHp-24" value="" style="curved=1;endArrow=classic;html=1;rounded=0;entryX=0.002;entryY=0.406;entryDx=0;entryDy=0;entryPerimeter=0;" edge="1" parent="1" source="9bJqxLlEq6opLeguGgHp-3" target="9bJqxLlEq6opLeguGgHp-23">
          <mxGeometry width="50" height="50" relative="1" as="geometry">
            <mxPoint x="452" y="750.28" as="sourcePoint" />
            <mxPoint x="712" y="679.7103797468355" as="targetPoint" />
            <Array as="points">
              <mxPoint x="480" y="750" />
              <mxPoint x="502" y="750.28" />
              <mxPoint x="452" y="700.28" />
            </Array>
          </mxGeometry>
        </mxCell>
        <mxCell id="9bJqxLlEq6opLeguGgHp-25" value="stores data" style="text;strokeColor=none;align=center;fillColor=none;html=1;verticalAlign=middle;whiteSpace=wrap;rounded=0;" vertex="1" parent="1">
          <mxGeometry x="500" y="689" width="70" height="30" as="geometry" />
        </mxCell>
        <mxCell id="9bJqxLlEq6opLeguGgHp-27" value="" style="rounded=1;whiteSpace=wrap;html=1;fillColor=#f8cecc;strokeColor=#b85450;" vertex="1" parent="1">
          <mxGeometry x="40" y="970.01" width="760" height="460" as="geometry" />
        </mxCell>
        <mxCell id="9bJqxLlEq6opLeguGgHp-26" value="" style="image;aspect=fixed;html=1;points=[];align=center;fontSize=12;image=img/lib/azure2/other/Azure_Monitor_Dashboard.svg;" vertex="1" parent="1">
          <mxGeometry x="290" y="1090" width="291.12" height="270.57" as="geometry" />
        </mxCell>
        <mxCell id="9bJqxLlEq6opLeguGgHp-29" style="edgeStyle=orthogonalEdgeStyle;rounded=0;orthogonalLoop=1;jettySize=auto;html=1;exitX=1;exitY=0.5;exitDx=0;exitDy=0;entryX=1.008;entryY=0.502;entryDx=0;entryDy=0;entryPerimeter=0;" edge="1" parent="1" source="9bJqxLlEq6opLeguGgHp-27" target="9bJqxLlEq6opLeguGgHp-27">
          <mxGeometry relative="1" as="geometry" />
        </mxCell>
        <mxCell id="9bJqxLlEq6opLeguGgHp-31" value="&lt;b&gt;&lt;font style=&quot;font-size: 25px;&quot;&gt;Front-End Dashboard&lt;/font&gt;&lt;/b&gt;" style="text;strokeColor=none;align=center;fillColor=none;html=1;verticalAlign=middle;whiteSpace=wrap;rounded=0;" vertex="1" parent="1">
          <mxGeometry x="-40" y="990" width="510" height="30" as="geometry" />
        </mxCell>
        <mxCell id="9bJqxLlEq6opLeguGgHp-33" value="&lt;font style=&quot;font-size: 15px;&quot;&gt;provide simple dashboard for the end user that shows energy consunption over time and shows some analytics and advices to &lt;br&gt;&lt;/font&gt;" style="text;strokeColor=none;align=center;fillColor=none;html=1;verticalAlign=middle;whiteSpace=wrap;rounded=0;" vertex="1" parent="1">
          <mxGeometry x="225" y="1030" width="390" height="30" as="geometry" />
        </mxCell>
      </root>
    </mxGraphModel>
  </diagram>
</mxfile>
